<?xml version="1.0" encoding="UTF-8"?>
<svg width="32px" height="30px" viewBox="0 0 32 30" version="1.1" xmlns="http://www.w3.org/2000/svg" xmlns:xlink="http://www.w3.org/1999/xlink">
    <!-- Generator: Sketch 53 (72520) - https://sketchapp.com -->
    <title>Group Copy</title>
    <desc>Created with Sketch.</desc>
    <defs>
        <polygon id="path-1" points="16 -1 1 31 16 22 31 31"></polygon>
        <polygon id="path-3" points="0.5 490.49949 700.5 490.49949 700.5 0 0.5 0"></polygon>
    </defs>
    <g id="Page-1" stroke="none" stroke-width="1" fill="none" fill-rule="evenodd">
        <g id="Group-Copy">
            <mask id="mask-2" fill="white">
                <use xlink:href="#path-1"></use>
            </mask>
            <use id="Fill-1" fill="#000000" opacity="0.374488467" transform="translate(16.000000, 15.000000) rotate(-270.000000) translate(-16.000000, -15.000000) " xlink:href="#path-1"></use>
            <g id="Group-20011-Copy-2" mask="url(#mask-2)">
                <g transform="translate(-483.000000, -74.000000)">
                    <mask id="mask-4" fill="white">
                        <use xlink:href="#path-3"></use>
                    </mask>
                    <g id="Clip-3898" stroke="none" fill="none"></g>
                    <path d="M536.5407,98.1270257 C535.6552,97.8077005 536.1167,96.4588269 537.6617,96.8327076 C537.3302,97.2876709 536.5247,97.4663529 536.5407,98.1270257 M547.0107,101.143598 C548.2592,101.376835 547.0347,101.798765 547.7607,102.437916 C546.7007,102.259234 546.7907,102.741224 545.8897,102.654636 C545.6512,101.798765 547.3107,102.037007 547.0107,101.143598 M503.6272,105.243773 C502.9172,105.292322 502.8002,104.999524 502.1277,105.027052 C502.2387,105.449482 501.6237,105.449482 501.3832,105.676714 C502.0957,105.774313 502.9912,105.010535 502.8772,105.887929 C501.2182,105.373905 502.1277,106.640695 500.5322,106.191238 C500.3782,105.975018 500.2992,105.530565 500.2407,105.097624 C500.7707,104.658677 501.1102,104.106114 502.1277,103.948954 C502.3767,104.599116 503.6117,104.891414 502.8772,103.948954 C504.0512,104.095103 504.4037,103.927432 504.7457,104.165675 C504.7062,104.717737 504.0622,104.918442 503.6272,105.243773 M524.9442,104.165675 C523.6402,103.234227 520.9322,103.867872 518.7167,103.965471 C518.7852,103.867872 518.8702,103.792295 518.9922,103.721723 L518.9922,103.505002 C518.6157,103.505002 518.5472,103.683684 518.2447,103.721723 L518.2447,103.976482 C517.9747,103.981487 517.7097,103.976482 517.4657,103.948954 C516.1037,103.358853 516.8192,101.820287 517.8367,101.360318 C517.7042,101.38184 517.5932,101.387346 517.4817,101.387346 C517.6457,101.181636 517.7837,100.953904 517.8687,100.705151 L518.2447,100.705151 L518.2447,100.48843 C517.8527,99.4158381 517.2462,100.315254 516.8297,101.284741 C516.3637,101.105559 516.2047,100.780728 515.5947,101.143598 C515.9287,102.254229 515.6427,103.023011 515.9687,103.732734 C515.0677,103.645645 515.1552,104.128137 514.1002,103.948954 C513.5492,103.759261 512.9132,103.624124 512.9767,103.088078 C511.6622,103.050039 511.7472,103.813817 510.7292,103.948954 C510.8462,102.595076 508.2572,103.619118 505.8692,103.298792 C506.1447,102.714197 505.1272,102.865851 505.1222,102.437916 C505.7632,102.448927 506.0812,102.27575 506.2432,102.01048 C504.9947,101.809776 505.9172,101.527989 506.2432,101.143598 C504.7752,102.091563 502.2707,100.80225 501.3832,101.79376 C502.4457,101.522984 503.2802,101.760726 503.6272,102.437916 C502.0637,102.595076 502.1432,102.361838 501.3832,102.871357 C499.9917,102.01048 499.8672,102.946934 499.1382,102.01048 C498.5977,103.59159 498.4597,103.998004 499.8462,104.994519 L499.8432,105.027052 C498.8947,104.902425 499.1542,105.47651 498.7617,105.676714 C499.2202,105.639176 499.5572,105.530565 499.8272,105.384416 C499.8167,106.039583 499.9277,106.738795 500.4897,106.592146 C500.7762,107.079642 501.2662,107.453523 502.5037,107.398968 C502.7132,106.873933 503.3837,106.613668 504.0012,106.32137 C504.4862,106.857416 503.1662,107.366434 504.0012,107.398968 C504.0567,106.862922 505.2652,107.339907 505.4957,107.398968 C505.4267,106.927988 505.8002,106.716773 506.6167,106.754311 C506.9452,106.0561 505.3867,106.457008 505.4957,105.887929 C505.7262,105.590126 506.9347,105.855396 506.9927,105.454988 C506.4207,105.070597 505.6442,104.79932 505.8692,103.948954 C508.8507,103.499497 509.6907,104.734755 512.2292,103.948954 C512.1182,104.084592 511.2967,104.777798 512.2292,104.810331 C512.2557,103.802806 513.0827,105.06459 513.7242,105.027052 C513.8352,104.604122 513.2207,104.599116 512.9767,104.37689 C513.6867,103.976482 513.6522,104.507023 514.8447,104.37689 C514.2537,105.22175 515.8177,104.826348 515.9687,105.243773 C515.5262,105.275806 514.9057,105.205734 514.8447,105.454988 C515.2982,105.503537 515.0757,105.698736 514.8447,105.887929 C515.7857,105.779819 515.9872,106.093638 516.1357,106.440492 L516.0002,106.52708 C515.7857,106.906466 516.4537,107.79437 515.6267,107.821898 L515.6267,108.038118 C515.3882,108.763857 516.1092,110.042159 515.2502,110.410534 L515.2502,110.621749 C516.5067,110.556683 516.2997,109.646757 516.3742,108.899496 C518.0832,109.782395 517.4897,106.862922 516.3742,108.254839 C516.3212,108.005585 516.4002,107.382951 516.3952,106.933494 C516.5277,107.074137 516.7292,107.171736 517.0892,107.188253 C516.4297,106.277826 517.1902,105.433466 518.2447,104.853375 L518.2447,106.31086 L518.2447,106.960021 C518.9817,106.570624 518.5787,105.52556 518.5552,104.696215 C518.8092,104.577594 519.0772,104.468984 519.3342,104.37689 C519.9807,104.512028 519.3052,105.405938 520.0842,105.454988 C521.1547,104.518034 522.5487,105.048574 524.9442,104.810331 C525.9752,105.822863 523.0867,107.317885 526.0677,107.615688 C526.5397,107.004065 524.9442,105.590126 526.4412,104.810331 C528.0077,104.556073 527.1067,105.720258 527.9387,105.887929 C528.6382,105.481515 527.7162,105.498032 527.9387,104.810331 C528.0132,104.799821 528.0827,104.792313 528.1537,104.783804 C528.1527,104.786808 528.1512,104.78931 528.1502,104.791813 C528.1142,104.89742 528.3922,105.116143 528.6972,105.499033 C528.7572,105.200229 528.8067,104.952476 528.8527,104.722242 C530.2347,104.647165 531.0587,104.872895 532.7987,104.593611 C532.5392,105.752791 534.9877,105.346377 535.0437,106.32137 C535.5392,105.964006 536.7052,105.985528 537.2882,105.676714 C537.8737,105.985528 537.5822,106.797855 538.7827,106.754311 C538.9732,106.072116 537.9027,105.871913 539.1592,105.676714 C540.0547,105.58462 538.9492,106.657212 540.2772,106.32137 C540.3142,105.985528 540.2297,105.573609 541.0297,105.676714 C541.1122,105.265295 540.6057,105.200229 540.6537,104.810331 C543.7012,104.745265 545.6382,104.501517 547.3842,105.454988 C547.8137,104.420434 553.1722,104.826348 551.1262,105.887929 C553.0317,106.776334 552.0432,104.507023 554.1182,104.810331 C554.8422,105.119146 555.6212,105.384416 556.7337,105.454988 C556.4742,104.712732 558.0482,104.685705 558.6047,105.027052 C558.6842,104.263274 556.8507,104.599116 557.1102,103.732734 C557.5872,103.721723 557.6297,103.456453 558.2337,103.516013 C558.3847,102.995984 557.5502,103.050039 557.8577,102.437916 C556.6387,102.383861 557.0652,103.272265 555.9867,103.298792 C555.8992,102.995984 555.3717,102.936423 555.2392,102.654636 C556.1907,101.690655 555.0222,101.002954 554.8652,100.066 C555.6472,99.8327627 558.0112,99.9123437 558.5262,98.9763906 C558.5237,98.9889034 558.5212,99.0019166 558.5187,99.0144294 C558.6187,99.0409564 558.7182,99.0664824 558.8177,99.0925089 C558.9012,98.8217331 558.9837,98.5499564 559.0682,98.2786801 C558.9407,98.2401409 558.8132,98.2021021 558.6867,98.1625619 C558.6482,98.3547576 558.6107,98.5469533 558.5727,98.739149 C558.2652,98.4328371 558.0142,98.0904885 557.1102,98.1270257 C556.5562,98.3812846 556.5272,98.9393529 555.9867,99.204623 C555.1812,98.4463509 554.5872,97.5639523 554.1182,96.615987 C551.1582,98.1270257 551.0972,100.553497 554.4917,101.79376 C554.6087,102.719703 554.5182,103.53203 552.9977,103.516013 C553.2967,102.768252 552.4407,102.692675 552.6212,102.01048 C551.3037,102.779263 549.4942,101.809776 548.1347,101.360318 C547.7662,100.764712 550.1777,100.699645 549.2557,100.499442 C548.3757,100.493936 548.1532,100.867817 547.0107,100.710156 C545.7682,99.7086363 545.0952,98.3652683 543.2717,97.6935843 C542.6887,98.0564538 543.7222,98.6630716 542.5242,98.9879023 C541.2682,98.7876985 542.3387,98.5869941 542.1482,97.9047994 C539.4397,98.0404375 543.2347,99.8818126 540.6537,99.8547851 C540.9077,98.1865863 538.2712,97.8021949 539.5302,96.1825456 C538.0192,96.724097 538.1122,96.2911562 536.5407,95.9658249 C535.7567,96.8111857 534.3942,97.3467311 535.7932,98.3437464 C533.3157,98.3167189 536.6837,99.2266455 535.0437,99.8547851 C534.6012,99.5299543 534.7177,98.8908035 533.5462,98.9879023 C533.3927,99.5079319 534.2297,99.4538769 533.9227,100.066 C534.7837,99.9303621 536.7632,99.8597902 537.2882,100.499442 C537.5687,101.165119 536.2597,100.910861 536.5407,101.577039 C537.7332,101.760726 537.9612,101.387346 538.4087,101.143598 C538.5282,101.652616 538.9997,101.950419 538.7827,102.654636 C540.9027,102.725208 541.3107,101.809776 543.2717,101.79376 C543.7542,102.06954 543.7542,102.584064 543.2717,102.871357 C543.9552,103.21771 544.5387,102.671153 545.1427,103.298792 C545.1472,103.347842 545.1512,103.395891 545.1547,103.444441 C545.0952,103.399895 545.0122,103.344839 544.9422,103.289783 C544.8262,103.42442 544.7117,103.560559 544.5957,103.697198 C544.7217,103.788791 544.8462,103.880885 544.9722,103.972979 C545.0367,103.866871 545.1042,103.761764 545.1622,103.652653 C545.1587,104.040548 545.0267,104.351865 544.3952,104.37689 C543.7572,103.992499 542.3357,104.059567 541.2607,103.926932 C541.2922,103.858863 541.3242,103.790793 541.3567,103.723725 C541.2237,103.674175 541.0912,103.624624 540.9572,103.575574 C540.9222,103.670671 540.8877,103.765267 540.8527,103.860364 C540.2907,103.744746 539.8952,103.53253 539.9037,103.088078 C539.2012,103.012 538.1867,104.165675 538.0352,103.088078 C536.8852,103.223716 534.9957,104.463478 534.2932,103.516013 C534.8077,103.093083 536.5512,103.380375 536.5407,102.654636 C534.9877,103.283276 535.8992,100.066 533.9227,101.360318 C534.3627,101.392851 534.9822,101.32228 535.0437,101.577039 C534.0607,101.511973 534.7492,102.410888 533.5462,102.226701 C532.4117,102.248222 532.4967,101.095048 531.3017,101.79376 C530.9387,102.865851 534.0547,101.928897 533.9227,102.871357 C532.7007,102.243217 533.5622,103.223716 533.1727,103.516013 C532.4417,104.069077 530.5337,104.328341 528.9582,104.194705 C528.9887,104.040548 529.0182,103.891896 529.0472,103.745747 C528.9467,103.698199 528.8467,103.651652 528.7482,103.604103 C528.6537,103.782285 528.5522,103.957964 528.4557,104.135144 C527.7337,104.028035 527.1282,103.825829 526.8152,103.516013 C525.6382,103.412908 525.8292,104.095103 524.9442,104.165675" id="Fill-3899" stroke="none" fill="#FDFDFC" fill-rule="evenodd" mask="url(#mask-4)"></path>
                    <path d="M493.152,72.0271975 C492.2905,73.218911 489.7095,73.2404329 488.665,72.8880741 C490.1415,74.4806959 488.851,74.3450578 490.5365,75.6884258 C490.16,75.6884258 490.0885,75.8671077 489.7865,75.9051465 C488.7265,75.8726134 488.228,75.5152494 487.171,75.4772107 C487.1495,76.6148692 484.293,76.1218672 483.8025,76.9882494 C484.0835,77.0317938 484.2215,77.1614258 484.176,77.3891577 C483.9375,77.508279 483.702,77.6489222 483.461,77.8386154 C484.0995,77.8331098 484.881,77.6218947 485.6335,77.4917622 C486.2485,77.5408121 486.879,77.6058784 487.5155,77.6704441 C487.179,77.9522311 485.7955,77.6274003 485.7025,78.0553361 C486.6115,78.2935787 487.5685,78.1474299 488.1515,77.7305053 C489.7675,77.8816592 491.3815,77.9687479 492.778,77.6329059 C492.0575,77.3621302 491.6385,77.1564207 491.2675,77.0047663 C491.183,76.6959518 490.9865,76.4522036 490.568,76.3330823 C490.539,76.4737255 490.5575,76.6413962 490.5495,76.7930507 C490.2555,76.7445012 489.916,76.73349 489.4125,76.7715287 C490.3295,76.2840323 492.4865,75.3906225 491.6545,74.616334 C491.649,74.8976205 490.621,74.8866093 490.5365,74.616334 C492.81,74.3886021 493.1915,74.8926154 495.0255,73.966172 C494.739,74.5838009 494.408,75.7640028 495.3965,76.3385879 C495.868,75.3906225 496.6105,76.3926429 497.2675,75.26049 C496.3135,75.3741057 495.818,75.6288651 495.773,74.8270486 C497.8,75.3205512 496.4935,74.6703891 497.641,74.1828927 C498.3485,74.2314421 498.465,73.9391444 499.1385,73.966172 C499.623,74.5022178 498.3035,75.0167418 499.1385,75.0437693 C499.9335,74.7134329 500.5295,74.2694808 501.383,73.966172 C500.707,75.206435 502.7315,74.5617785 502.8775,74.8270486 C502.875,75.26049 501.86,75.10333 502.1275,75.6884258 C503.0125,75.7589977 502.827,76.4411924 504.001,76.3385879 C504.078,76.0998448 504.414,76.0027459 504.7455,75.9051465 C505.191,74.3075196 501.285,74.849071 503.251,73.5327306 C499.324,74.252964 500.087,72.2008743 496.8935,72.0271975 C496.8355,72.2819569 496.9575,72.6393208 496.52,72.6718539 C496.573,72.1413137 496.324,71.7779436 495.773,71.5937561 C495.33,72.0597306 494.9595,72.5632433 493.902,72.6718539 C493.2845,72.6718539 493.69,72.0762474 493.152,72.0271975" id="Fill-3905" stroke="none" fill="#FDFDFC" fill-rule="evenodd" mask="url(#mask-4)"></path>
                    <path d="M507.74015,74.616284 C507.63465,75.1793574 507.87815,75.5422269 508.86415,75.4771607 C508.96715,74.9140873 508.72615,74.5512177 507.74015,74.616284" id="Fill-3912" stroke="none" fill="#FDFDFC" fill-rule="evenodd" mask="url(#mask-4)"></path>
                    <path d="M476.3693,97.1956773 C476.4278,97.1140942 476.5228,97.0600391 476.6923,97.0490279 L476.7028,97.0600391 C476.5973,97.1085886 476.4808,97.1521329 476.3693,97.1956773 L476.3693,97.1956773 Z M481.2133,98.3273297 C481.4258,98.7877986 481.2133,98.9990137 480.9273,99.1611788 C480.6598,99.1832012 480.3868,99.2102287 480.1113,99.2422614 C479.8093,99.0370524 479.6763,98.7387486 479.7193,98.3273297 L481.2133,98.3273297 Z M476.7298,104.154764 L475.2298,104.154764 C475.0283,103.044633 478.0123,103.174766 476.7298,104.154764 L476.7298,104.154764 Z M464.3698,95.7492043 C464.0758,95.86282 463.7338,95.993453 463.2308,95.965925 C462.7878,95.061504 464.8098,95.581033 465.1013,95.1045478 C465.2178,95.115559 465.2923,95.1425865 465.3398,95.1916365 C464.9238,95.3267741 464.4178,95.4028516 464.3698,95.7492043 L464.3698,95.7492043 Z M469.9668,100.28232 C469.1983,99.5891146 468.1493,98.1486477 468.0963,97.0490279 C468.1758,97.9859821 466.3388,97.1251054 466.5963,96.6160871 C466.6333,96.0635244 468.0588,96.3072726 468.0963,95.7492043 C467.2743,95.6896436 466.7178,95.5164673 466.3313,95.2777242 C466.4003,95.1265702 466.4003,94.9368771 466.2568,94.6610962 L465.8808,94.6610962 C465.8913,94.7361727 465.8753,94.7962338 465.8483,94.8557945 C465.2948,94.1515774 465.4673,93.2201288 465.1013,92.7326324 C464.0573,93.2251339 465.0803,93.5669821 463.9778,94.0269505 C463.1698,93.6205366 461.4868,93.8697904 462.4833,92.9493531 C461.7783,92.9003032 461.6563,93.1931013 460.9883,93.1660738 C460.5568,92.4348292 461.0413,92.0719596 460.6493,91.6980789 C460.8348,91.2811543 461.3758,91.0749443 461.3913,90.565926 C460.5378,90.4738322 460.1568,91.1455162 460.2308,91.6925733 C460.0398,92.4723674 458.3173,93.0574632 458.3703,93.1660738 C458.9533,93.1820901 459.6633,93.1335407 459.4913,93.5935091 C458.5638,93.5669821 457.6758,93.5559708 457.6203,94.0269505 C459.5893,93.9023235 460.0028,94.6610962 460.9883,95.1045478 C460.8083,95.3593072 460.5908,95.5975498 460.2413,95.7492043 C459.9153,95.4353847 459.6798,95.0670096 458.7413,95.1045478 C458.8103,95.9338924 458.4368,95.1806253 457.6203,95.3212685 C457.0503,95.9984581 457.4798,96.6536253 458.3703,97.0490279 C456.6758,96.9304071 456.0763,97.5500381 454.9593,97.3408251 C454.9778,97.2737568 454.9943,97.2146966 455.0153,97.1396202 C454.9198,97.2021839 454.8373,97.2512338 454.7618,97.2957792 C454.7173,97.2842675 454.6748,97.2747578 454.6288,97.260243 C454.6393,97.2912746 454.6578,97.3193032 454.6723,97.3483327 C454.4733,97.4624489 454.3518,97.5270147 454.3088,97.621611 C454.2173,97.8158088 454.2408,98.0665641 454.2153,98.293295 C454.3658,98.3193215 454.5188,98.345348 454.6703,98.371875 C454.7318,98.1511503 454.7958,97.9244194 454.8823,97.6141034 C455.6268,98.2472481 457.6013,98.1441431 458.3703,97.260243 C458.4773,97.5760646 458.5188,97.7927853 458.6348,98.0450422 C458.6613,98.1246232 458.6933,98.2042043 458.7188,98.2837853 C458.7283,98.2772787 458.7408,98.2712726 458.7518,98.264766 C458.8378,98.4089127 458.9513,98.5705774 459.1178,98.7712818 C458.6033,98.782293 458.2963,98.6686773 457.9943,98.5545611 C458.8423,100.038572 462.6263,99.9795121 464.3513,100.710256 L464.3513,101.143698 C463.8398,101.154709 463.5328,101.046098 463.2308,100.926977 C463.5748,101.523084 464.4123,101.825892 465.4778,102.01058 C467.6323,100.613157 470.6613,101.614677 472.7203,101.967036 L472.6113,101.999569 L472.6803,102.026096 C472.3468,102.05913 472.0978,102.145718 472.2088,102.438016 C472.7438,102.503082 473.0883,102.584165 473.3883,102.551631 C473.9978,103.591691 472.4048,105.362494 474.4853,105.660798 C474.1753,106.27242 475.0128,106.223871 474.8563,106.743901 C474.1858,106.716372 474.0688,107.009171 473.3613,106.960121 C473.5283,107.150314 473.6903,107.345013 474.1118,107.388056 C474.5358,107.350518 474.3178,107.171836 474.1118,107.171836 C475.8448,106.397047 476.6238,108.016697 478.9718,107.604777 C479.0353,108.460649 478.3968,107.539711 477.8483,108.038219 C480.3763,108.715408 478.9238,106.240388 479.3478,105.882523 C480.0478,106.153299 480.3948,107.079743 480.4688,108.254939 C480.5723,108.250435 480.6678,108.243928 480.7593,108.236921 C480.7408,108.307993 480.7218,108.378565 480.7028,108.449638 C480.8073,108.474663 480.9128,108.50069 481.0183,108.527217 C481.0368,108.420608 481.0553,108.313999 481.0738,108.20689 C481.9278,108.113295 482.0933,108.012192 481.9633,108.899596 C482.6128,108.53072 483.5508,108.270956 484.5818,108.466154 C484.0808,108.10879 483.6248,107.723898 482.7133,107.604777 C482.7568,107.510181 482.8098,107.439609 482.8683,107.382551 L482.8683,107.589261 C483.0433,107.572244 483.2183,107.555727 483.3933,107.539711 C483.3833,107.44111 483.3733,107.34201 483.3638,107.243409 C483.5043,107.262929 483.6598,107.310978 483.8348,107.388056 C483.6358,107.21488 483.4448,107.036198 483.4608,106.743901 C483.4078,106.742899 483.3628,106.746904 483.3143,106.748405 C483.3043,106.644299 483.2938,106.540694 483.2833,106.436588 C483.1453,106.444596 483.0073,106.452103 482.8683,106.459611 L482.8683,106.818476 C482.0573,107.074737 482.2813,107.929107 481.2133,108.038219 C481.1748,108.026707 481.1433,108.011191 481.1098,107.996676 C481.1343,107.855032 481.1588,107.713388 481.1838,107.571744 C481.1043,107.555227 481.0273,107.539711 480.9488,107.522193 C480.9218,107.622796 480.8958,107.723398 480.8693,107.8235 C480.5398,107.402571 481.2163,106.682838 482.3373,106.960121 C481.6378,105.779919 479.8728,105.216345 479.3478,103.938544 C477.2493,104.47459 477.8878,102.979567 475.9773,102.860446 L475.9773,102.427505 C474.8798,102.302878 474.4243,101.733799 473.4308,101.815382 C472.9933,101.5391 472.5638,101.257313 472.2088,100.926977 C472.6913,101.22478 473.8333,101.143698 474.8268,101.143698 L474.8268,101.79386 C475.5213,101.658222 475.8923,101.566128 476.2633,101.528089 L476.3533,101.566128 L476.4328,101.512073 C476.5678,101.495556 476.7083,101.495556 476.8648,101.495556 C476.8253,101.593155 476.7828,101.690254 476.7298,101.782849 L476.7298,102.215789 C477.9063,102.107679 478.1873,102.681764 478.9718,102.215789 C478.0218,101.549611 478.6003,101.315372 478.6253,100.908458 C478.6763,100.943994 478.7393,100.980531 478.7833,101.015067 C478.8458,100.907958 478.9523,100.803351 478.9573,100.691737 C478.9618,100.627172 478.8098,100.552095 478.7273,100.482024 C478.6828,100.553096 478.6243,100.621666 478.5833,100.692238 C478.5298,100.572116 478.4233,100.435476 478.2243,100.27181 C478.5793,100.374414 479.1998,100.320359 479.9228,100.147183 C480.4743,100.260799 481.0703,100.347387 481.1843,100.710256 C479.8463,101.051604 478.8073,100.444986 478.5663,101.576639 C480.2703,101.5391 482.4513,102.346422 483.8023,101.79386 C483.5773,101.419979 482.0268,101.809876 481.9293,101.360418 C481.3938,100.69424 481.9928,100.521064 482.6818,100.0656 C485.1513,99.7953246 486.4948,100.071606 487.1708,98.9880024 C485.5223,99.1286457 484.1128,99.0856018 482.7188,99.1021187 C484.2928,98.2732746 485.4453,97.1576385 484.5818,96.1716345 C484.2743,95.8252818 483.3838,95.9874469 482.7133,95.9604194 L482.7133,96.1716345 C483.0153,96.2151788 483.0843,96.3883551 483.4608,96.3883551 C483.2703,96.924401 482.7533,97.2767598 482.3373,97.6826732 L482.3373,98.3273297 C481.7328,98.3923959 481.6958,98.1271258 481.2133,98.1161146 L481.2133,97.6826732 L481.5898,97.6826732 C481.0543,97.0440228 482.9043,96.3723388 481.2133,96.3883551 L481.2133,96.6050758 C480.6253,96.5890595 479.7878,96.7081808 479.7193,96.3883551 C478.5238,96.4909596 478.4018,97.2116936 477.1008,97.2547374 C476.9948,96.9028791 477.4558,96.8758516 477.4743,96.6050758 C477.3018,96.7567303 477.0848,96.8813572 476.8463,96.9949729 C476.0723,96.7837578 476.0273,96.1501125 474.8268,96.1826457 C474.6018,96.9188954 472.5348,96.5890595 472.5798,97.4769637 C473.4833,97.8398332 474.5303,97.5039912 475.2513,97.6286181 C474.5913,97.9214163 474.0743,98.2897914 474.1118,98.9774917 C475.1608,99.0100249 475.1873,98.4519566 475.2298,97.8993939 C475.4843,97.9429382 475.6698,97.9479433 475.8183,97.931927 C475.8658,97.9859821 475.9133,98.0455427 475.9478,98.1271258 C476.1548,98.0835814 476.2208,97.9589545 476.2473,97.8183113 C476.4623,97.7317231 476.6663,97.645135 477.1008,97.6826732 L477.1008,98.549556 C475.6218,97.7587507 475.8128,98.6306385 475.2298,99.4104326 C475.5608,100.152688 476.7348,99.3563776 477.8483,99.8383684 C477.3708,100.060595 477.1988,100.455997 477.0688,100.872922 C476.3533,100.683229 475.7863,100.542586 477.0688,100.0656 C476.2318,100.109144 475.5158,100.104139 474.8298,100.087622 C474.5463,99.8874183 474.3498,99.6326589 473.7353,99.6271533 C473.7563,99.789819 473.8093,99.9359678 473.8838,100.071606 C472.7388,100.038572 471.5783,100.038572 469.9668,100.28232 L469.9668,100.28232 Z" id="Fill-4017" stroke="none" fill="#FDFDFC" fill-rule="evenodd" mask="url(#mask-4)"></path>
                    <path d="M475.28285,94.714851 C475.41785,94.8284667 475.54535,94.9370773 475.60585,95.0937368 C475.61135,94.9911323 475.66985,94.8775166 475.75735,94.7528897 C476.57335,95.1748194 475.91335,95.7924483 476.32185,96.1823454 C477.47135,96.345011 476.77735,95.44059 478.19235,95.7494045 C477.85835,95.1212648 477.85835,95.0887317 478.19235,94.4600915 C477.40785,94.4711028 476.81185,94.379009 476.18385,94.2979264 C476.34785,94.146272 476.53335,93.9781007 476.72985,93.7994188 C478.80435,94.0757001 480.84235,94.1137388 480.09535,95.0937368 L481.96335,95.0937368 C482.12235,94.6442791 481.70635,94.5256583 481.58985,94.2328601 L481.58985,93.7994188 C481.06535,93.7238418 481.55785,93.4205329 481.96335,93.371483 C482.10385,92.9981028 481.67185,92.960064 481.21335,92.9385421 C481.53685,92.4075013 482.60235,92.3048968 483.08435,91.8604442 C481.49985,90.5876481 480.38685,90.8313963 478.97185,90.5661262 C478.40735,90.8208856 480.03185,92.7002995 478.22435,92.28838 C477.48685,92.3929865 477.24185,92.211802 476.85535,92.1101986 C476.89335,91.9570426 476.93185,91.8038866 476.97035,91.6502302 C476.88835,91.6277072 476.80685,91.6046838 476.72485,91.5811598 C476.67385,91.7418234 476.62285,91.901486 476.57185,92.0616491 C476.41085,92.0456328 476.22535,92.0436308 475.97735,92.0771649 L475.22985,92.0771649 C475.17685,92.6132108 475.16085,93.1222292 475.97735,93.1547623 C475.96935,93.3664779 475.52135,93.3229335 475.22985,93.371483 C475.24035,93.577693 475.69085,93.5341486 475.97735,93.5887042 C475.91885,93.8374575 475.29885,93.7668856 474.85635,93.7994188 L474.85635,94.0161394 C474.85085,94.0867113 474.85635,94.1517776 474.86935,94.2058326 C474.62585,94.2058326 474.36585,94.2163433 474.07935,94.2438714 C474.46135,95.3269743 471.89585,94.7093454 471.83235,95.5326838 C473.28485,95.4350844 473.98935,94.9045441 475.28285,94.714851" id="Fill-4085" stroke="none" fill="#FDFDFC" fill-rule="evenodd" mask="url(#mask-4)"></path>
                    <path d="M484.1762,101.576839 C483.9217,102.243518 486.3202,102.476255 486.7947,102.01028 C485.3052,102.221495 485.6682,101.360118 484.1762,101.576839" id="Fill-4087" stroke="none" fill="#FDFDFC" fill-rule="evenodd" mask="url(#mask-4)"></path>
                    <path d="M486.079,92.28833 C485.369,92.3373799 485.252,92.0500874 484.582,92.0776154 C485.1885,93.1331903 484.367,92.8028539 483.0845,92.5050507 C483.373,92.9870415 481.3595,93.1932515 482.7135,93.5886541 C482.9465,92.369913 483.5405,93.5290935 484.955,93.3714329 C484.5605,92.5646113 485.7455,92.6732219 486.079,92.28833" id="Fill-4088" stroke="none" fill="#FDFDFC" fill-rule="evenodd" mask="url(#mask-4)"></path>
                    <path d="M478.60075,88.8385169 C480.91675,88.6653406 481.44975,87.4681214 483.08425,86.8995424 C481.79925,86.9265699 481.18425,87.9826454 480.46875,87.1162631 C480.25975,87.4250776 479.88325,87.6412978 479.34775,87.7609196 C479.26325,87.5982539 479.33725,87.3384894 478.97175,87.3329838 C479.00075,87.706364 478.88675,87.9986617 478.60075,88.1938604 C479.29475,88.4000704 479.84625,87.549204 480.09525,88.1938604 C479.59725,88.4105811 478.70375,88.3940643 478.60075,88.8385169" id="Fill-4090" stroke="none" fill="#FDFDFC" fill-rule="evenodd" mask="url(#mask-4)"></path>
                    <path d="M489.4125,80.0048213 C490.579,79.8912056 491.0215,79.3551597 492.031,79.1439446 C491.1405,78.2230068 488.5115,79.3331373 489.4125,80.0048213" id="Fill-4094" stroke="none" fill="#FDFDFC" fill-rule="evenodd" mask="url(#mask-4)"></path>
                    <path d="M505.49575,96.3992162 C505.52475,97.0814109 503.66975,97.9212662 505.12175,98.1269756 C505.64175,97.7801224 506.96625,97.8942386 507.36625,97.4768136 C507.94675,99.5999756 509.28525,99.8872682 508.86375,101.79371 C509.38075,100.640035 510.87775,98.7821428 509.23475,97.6935343 C510.37175,98.1434925 511.47125,97.3687035 512.60275,97.9047493 C512.59525,97.0438727 513.80925,96.8757014 515.21875,96.8326576 C515.40925,97.3687035 515.92875,97.7155567 516.34225,98.1269756 C516.55975,97.6014405 517.75475,97.6449848 518.58425,97.4768136 C518.41975,97.8291724 518.67975,97.9427881 518.99225,98.018365 L518.99225,98.1159644 C518.97625,99.3507218 519.31575,98.8417035 519.41375,98.1269756 C519.55675,98.17052 519.67075,98.2350857 519.70775,98.3436963 C519.40325,99.4968706 520.33825,100.179566 519.70775,100.926827 C521.66375,100.948849 519.57525,99.7516301 521.95225,99.8547351 C522.22525,99.258628 521.20775,99.4157881 521.20525,98.9878523 C523.99575,99.1990674 522.69975,98.0779257 525.31775,98.5549114 C525.16675,98.0348819 526.00425,98.0839318 525.69175,97.4768136 C524.89375,97.2655985 522.10325,97.7425842 521.57875,96.8326576 C522.47675,95.9497585 522.58025,96.0743854 524.19675,96.3992162 L524.19675,95.1048982 C523.00725,95.6574609 522.68125,95.3701683 521.20525,95.1048982 C521.43525,95.6299328 521.37725,96.0638747 521.13325,96.388205 L520.11325,96.388205 C520.20575,96.5618819 520.25375,96.751575 520.32775,96.930257 C520.03075,97.0383671 519.69175,97.1034333 519.32075,97.1084384 C519.24675,96.9677952 519.14625,96.8596851 518.99225,96.8216464 L518.99225,97.1034333 C518.24475,97.0653946 517.43125,96.8431683 516.71825,96.3992162 C516.29175,95.1159094 516.52275,92.4782233 517.83675,91.0047228 C517.01775,90.5447544 516.41125,89.954153 516.71825,88.8495281 C515.83875,88.7844619 515.31125,88.5081805 514.10025,88.6328074 C513.97825,89.8295261 515.82825,88.6433181 515.96875,89.4991897 C515.07825,92.2885302 517.20875,94.9312213 513.72425,96.1824955 C513.41375,95.6139165 512.41475,95.3701683 511.85575,95.9657748 C512.71175,96.4102274 510.46975,96.8867126 509.98475,97.2605934 C509.43125,97.1519828 509.04125,96.9462733 508.48725,96.8326576 C508.23325,98.0403875 507.22075,96.5889094 505.49575,97.2605934 C505.82175,96.881207 506.74925,96.594415 505.49575,96.3992162" id="Fill-4096" stroke="none" fill="#FDFDFC" fill-rule="evenodd" mask="url(#mask-4)"></path>
                    <path d="M486.45255,79.9996661 L488.32105,79.9996661 C488.23605,79.5877466 488.74455,79.5226803 488.69755,79.1332838 C488.02405,79.1653164 487.82255,78.9215682 487.95005,78.4886273 C487.38805,78.5211604 486.56655,78.4125498 486.45255,78.705348 C488.00305,78.8675131 486.89005,79.2303827 487.57355,79.7774398 C486.75755,79.918083 486.38655,79.170822 486.45255,79.9996661" id="Fill-4099" stroke="none" fill="#FDFDFC" fill-rule="evenodd" mask="url(#mask-4)"></path>
                    <path d="M484.20815,89.0606431 C484.15515,88.7683455 485.46665,88.253321 484.58215,88.1942609 C483.31515,89.1472313 484.20815,87.787847 481.96365,88.410481 L481.96365,89.2713577 C483.29115,89.2012863 482.88315,88.6757512 484.20815,89.0606431" id="Fill-4101" stroke="none" fill="#FDFDFC" fill-rule="evenodd" mask="url(#mask-4)"></path>
                    <path d="M485.93055,82.8050228 C485.77155,82.7945121 485.61805,82.788506 485.48555,82.788506 C485.57005,82.7129291 485.68405,82.658874 485.84055,82.6208353 L485.98105,82.7509678 L485.93055,82.8050228 Z M494.27805,81.9496518 C494.75505,82.2314387 494.75505,82.7454622 494.27805,83.0272491 C492.87905,83.2544805 493.68205,82.2204275 492.40455,82.3770871 C492.72005,82.0577619 493.61005,82.0632675 494.27805,81.9496518 L494.27805,81.9496518 Z M488.66505,85.8326059 C490.90755,85.6379076 489.18205,84.392139 490.53605,83.8881258 C490.54155,84.1749178 491.19105,84.0883297 491.28355,84.3215672 C491.49055,84.6303817 490.84355,85.4372033 491.65455,85.3991645 C492.35155,83.9802196 493.55205,84.4081554 495.39655,84.3215672 C495.87605,83.4712012 494.31005,83.8015376 494.27805,83.2434693 C495.60805,83.3680962 496.53555,83.2599861 498.39105,83.46019 C498.42255,83.1193429 499.34505,83.2870137 499.13855,82.8105284 C496.78255,82.5827965 499.97555,81.7594581 498.01455,81.3049953 C497.97205,82.0958006 497.47155,81.8410412 496.52005,81.7324306 C496.02705,82.2739821 497.99605,82.4041146 496.89355,82.5938077 C494.44755,82.3936039 493.41705,81.4616548 494.64905,80.2218924 C493.94405,80.1728424 493.82205,80.4656406 493.15205,80.4381125 C493.74055,81.5322267 492.59805,81.0337191 493.15205,81.9496518 C489.69605,82.0847894 489.40755,82.0632675 486.79455,82.3770871 C486.68305,81.9546569 487.30055,81.9496518 487.54205,81.7324306 C487.18655,81.6188149 486.30155,80.7634438 486.04705,81.3049953 C486.27505,81.315506 486.48955,81.3320228 486.42055,81.5162104 C485.38205,81.7274255 485.28905,81.9816844 485.57305,82.3340432 C485.11955,82.5182308 484.69055,82.6373521 484.20805,82.372082 C484.09155,82.6698852 484.12855,82.8805998 484.26105,83.0327547 C483.96155,83.1623867 483.71005,83.3195468 483.42905,83.46019 C486.31205,83.4927231 485.50655,84.9982563 485.67605,85.6158852 C486.16655,84.7009535 487.55255,85.8055784 488.66505,85.8326059 L488.66505,85.8326059 Z" id="Fill-4103" stroke="none" fill="#FDFDFC" fill-rule="evenodd" mask="url(#mask-4)"></path>
                    <path d="M499.13835,97.9048995 C499.20185,98.2297303 499.00585,98.706716 499.51435,98.7712818 C499.75835,98.4844897 500.30985,98.370874 501.00635,98.343346 C501.06235,97.8078006 501.07835,97.2982818 500.25935,97.260243 C500.22485,97.6015906 500.30985,98.0135101 499.51435,97.9048995 C499.52535,97.1085886 498.10735,97.1361166 497.64085,96.6160871 C497.27785,97.5475356 495.40435,97.8943888 494.27835,97.260243 C494.01335,98.0135101 495.58685,98.035032 496.14385,97.6936844 C496.46185,97.9429382 496.63685,98.2732746 496.52035,98.7712818 C498.39635,99.0640799 497.97785,98.0295264 499.13835,97.9048995" id="Fill-4134" stroke="none" fill="#FDFDFC" fill-rule="evenodd" mask="url(#mask-4)"></path>
                    <path d="M503.62735,87.1270741 C502.10635,86.5314676 500.27535,87.0840303 498.76185,86.2606918 C498.86785,86.861804 500.17185,87.8743351 499.51435,88.2046715 C499.26035,87.7011587 497.81335,87.8908519 497.64085,87.3437948 C496.17535,87.5384931 496.24985,87.8097693 494.64885,87.5550099 C494.29135,88.334804 496.26535,87.9399018 496.52035,87.7717306 C496.58385,88.0965614 496.38485,88.5730466 496.89385,88.6326072 C497.41035,88.5029752 496.94685,87.8042637 497.64085,87.7717306 C497.76035,88.0640282 498.17335,88.1886551 498.01435,88.6326072 C498.75135,88.6976735 498.75685,88.3403096 499.13835,88.2046715 C500.48185,88.8167948 500.19835,89.29328 500.63285,90.143646 C501.59985,89.2772637 502.65785,88.7952729 503.62735,88.4158865 C502.79535,88.3292984 503.33335,87.2732229 503.62735,87.1270741" id="Fill-4135" stroke="none" fill="#FDFDFC" fill-rule="evenodd" mask="url(#mask-4)"></path>
                    <path d="M491.2836,100.499291 C491.5591,99.6163924 490.0751,99.7570356 490.5361,98.771532 C489.8816,98.7875483 489.3731,98.7224821 489.0366,98.5548113 C489.0656,98.9336971 488.9571,99.2315004 488.6651,99.4211936 C491.0321,99.1939622 490.1866,100.48828 491.2836,100.499291" id="Fill-4136" stroke="none" fill="#FDFDFC" fill-rule="evenodd" mask="url(#mask-4)"></path>
                    <path d="M504.00115,89.4993399 C503.78115,89.9432919 503.21415,90.1925458 502.87715,90.5719321 C503.80765,90.5499097 504.03565,90.1710239 504.74565,90.5719321 C504.89415,90.203557 504.19465,90.0243745 504.74565,89.9272756 C504.76665,90.0624133 504.80415,90.1815346 505.12215,90.1439963 C505.37615,89.5644061 504.34815,89.7265713 504.00115,89.4993399" id="Fill-4137" stroke="none" fill="#FDFDFC" fill-rule="evenodd" mask="url(#mask-4)"></path>
                    <path d="M504.00115,91.8714054 C503.88715,92.4399844 504.51765,92.5756225 505.49565,92.5160619 C505.60965,91.9474829 504.97915,91.8063391 504.00115,91.8714054" id="Fill-4138" stroke="none" fill="#FDFDFC" fill-rule="evenodd" mask="url(#mask-4)"></path>
                    <path d="M496.1437,85.3992146 L496.1437,84.5328323 L495.0257,84.5328323 C495.0412,84.8361412 494.8452,85.0093175 494.6492,85.1824939 C495.1527,85.2475601 495.3647,85.4918089 496.1437,85.3992146" id="Fill-4140" stroke="none" fill="#FDFDFC" fill-rule="evenodd" mask="url(#mask-4)"></path>
                    <path d="M490.9074,97.9048995 C489.7944,97.9644601 488.6309,97.309293 488.2894,98.1271258 C489.0654,97.9969933 490.7484,98.3923959 490.9074,97.9048995" id="Fill-4141" stroke="none" fill="#FDFDFC" fill-rule="evenodd" mask="url(#mask-4)"></path>
                    <path d="M496.1437,94.0271507 C496.1462,93.9080294 495.8417,93.7834024 495.7727,94.0271507 C496.4772,94.0541782 496.0327,94.7418785 496.8937,94.6768122 C496.9757,94.5036359 496.9017,94.249377 497.2677,94.2438714 C497.8717,95.1267704 498.0937,95.3755238 497.2677,96.1823454 C498.4177,96.0306909 497.9827,96.0306909 499.1382,96.1823454 C499.9172,95.0832261 498.9502,94.6607959 498.3912,93.81043 C497.5112,93.8049244 497.2887,94.1838102 496.1437,94.0271507" id="Fill-4144" stroke="none" fill="#FDFDFC" fill-rule="evenodd" mask="url(#mask-4)"></path>
                    <path d="M493.5258,102.438066 C493.6103,103.022661 495.4493,103.694345 495.7728,102.871507 C494.7708,102.497626 494.3498,103.022661 493.5258,102.438066" id="Fill-4145" stroke="none" fill="#FDFDFC" fill-rule="evenodd" mask="url(#mask-4)"></path>
                    <path d="M501.75675,95.7493544 C502.88025,95.3754737 501.21825,94.4169977 500.63275,95.104698 C501.34025,95.1267204 500.89225,95.8199263 501.75675,95.7493544" id="Fill-4146" stroke="none" fill="#FDFDFC" fill-rule="evenodd" mask="url(#mask-4)"></path>
                    <path d="M502.50355,90.3603166 C500.94055,90.2141678 500.46305,90.0950465 501.00655,91.0049731 C501.94205,91.0430118 502.18055,90.6746367 502.50355,90.3603166" id="Fill-4147" stroke="none" fill="#FDFDFC" fill-rule="evenodd" mask="url(#mask-4)"></path>
                    <path d="M494.27825,96.1823954 C493.93875,95.5487502 493.93875,95.5217226 494.27825,94.8880774 C492.75475,95.0937869 491.27825,96.4641824 491.283735,96.8325575 C492.47075,96.5722925 492.69325,95.6298327 494.27825,96.1823954" id="Fill-4148" stroke="none" fill="#FDFDFC" fill-rule="evenodd" mask="url(#mask-4)"></path>
                    <path d="M494.6491,89.7105049 C495.2426,89.3746629 494.7551,88.5568301 494.2781,88.2049718 C494.3736,88.8441226 493.2286,89.5153061 494.6491,89.7105049" id="Fill-4149" stroke="none" fill="#FDFDFC" fill-rule="evenodd" mask="url(#mask-4)"></path>
                    <path d="M493.5258,92.7326324 C495.0093,91.8282114 494.2863,94.0109341 495.0258,94.2436712 C495.4493,93.3662777 496.4538,91.9583439 495.3963,90.7936579 C493.3613,90.4848434 493.1013,92.3317242 493.5258,92.7326324" id="Fill-4150" stroke="none" fill="#FDFDFC" fill-rule="evenodd" mask="url(#mask-4)"></path>
                    <path d="M499.51455,92.0825204 C499.44555,91.259182 499.81655,92.0069434 500.63305,91.8713053 C500.90305,91.2106325 499.99155,91.23766 500.25905,90.5714817 C499.59905,90.8858017 498.04655,90.3983053 498.76205,90.793708 C499.65755,90.9778955 497.08205,92.0935316 499.51455,92.0825204" id="Fill-4151" stroke="none" fill="#FDFDFC" fill-rule="evenodd" mask="url(#mask-4)"></path>
                    <path d="M503.62735,77.415985 C500.29085,77.1131767 498.19485,77.2913581 496.14385,76.1271726 C495.45735,76.6201746 494.46885,77.751827 493.15185,77.2052704 C493.07485,78.320406 494.82635,77.7408158 495.39635,78.0661471 C494.65935,78.5641542 494.65935,78.6457373 495.39635,79.1437444 C496.35285,79.3119157 497.11635,78.2988841 497.64085,78.9275243 C497.47935,79.2683714 496.46685,79.1112113 496.89385,79.7884009 C497.72285,79.4365426 498.92085,79.842456 499.13835,79.5716802 C498.34585,79.0791787 499.30485,78.8079024 498.76185,78.0661471 C500.40485,78.2233071 498.45985,77.6327057 499.51435,77.6327057 C500.25935,78.0661471 501.84685,78.012092 502.50335,78.4995885 C502.22285,77.7573326 504.02485,78.2233071 503.62735,77.415985" id="Fill-4600" stroke="none" fill="#FDFDFC" fill-rule="evenodd" mask="url(#mask-4)"></path>
                    <path d="M506.8014,89.6853293 C506.6994,90.1858389 506.5994,90.6858481 506.4974,91.1868583 C507.3289,90.8289939 507.4819,90.3379939 506.8014,89.6853293" id="Fill-8017" stroke="none" fill="#FDFDFC" fill-rule="evenodd" mask="url(#mask-4)"></path>
                    <path d="M492.51995,78.9830308 C492.50195,79.0631123 492.76345,79.2052571 492.89695,79.3193733 C493.03595,79.1211715 493.22795,78.9379849 493.28945,78.7177607 C493.31745,78.6171582 493.08495,78.4429808 492.89895,78.2122459 C492.73245,78.528568 492.57195,78.7432866 492.51995,78.9830308" id="Fill-12579" stroke="none" fill="#FDFDFC" fill-rule="evenodd" mask="url(#mask-4)"></path>
                    <path d="M487.3781,102.910447 C487.3026,102.873409 487.2276,102.836371 487.1521,102.798833 C487.0431,102.987525 486.8961,103.165206 486.8336,103.369414 C486.7801,103.544593 486.8221,103.750803 486.8221,103.942998 C486.8876,103.942998 486.9516,103.941997 487.0166,103.941997 C487.1371,103.598147 487.2586,103.254297 487.3781,102.910447" id="Fill-14743" stroke="none" fill="#FDFDFC" fill-rule="evenodd" mask="url(#mask-4)"></path>
                    <path d="M510.77115,83.0973205 C510.63565,83.4546844 510.49965,83.8130493 510.36515,84.1699127 C510.46265,84.2054489 510.56115,84.2399841 510.65865,84.2755203 C510.79665,83.9371757 510.93465,83.5993317 511.07365,83.2609872 C510.97265,83.2064316 510.87165,83.1513755 510.77115,83.0973205" id="Fill-15306" stroke="none" fill="#FDFDFC" fill-rule="evenodd" mask="url(#mask-4)"></path>
                    <path d="M518.30315,84.5707209 C518.18665,84.2078514 518.17615,83.8394762 518.25065,83.4550848 C518.98165,83.6502836 518.55515,84.1267688 518.30315,84.5707209 M510.39215,76.6786842 C510.28965,76.9554661 510.18465,77.2322479 510.08215,77.5095303 C510.11465,77.5225435 510.14815,77.5360573 510.18165,77.5490705 C509.86465,77.5936159 509.53815,77.6356587 509.23465,77.6326557 C509.19515,77.0855986 508.55115,76.8743835 508.11665,76.5550583 C508.10565,78.3583947 504.56565,76.8038116 504.00115,78.2828177 C507.04615,78.1742071 507.38765,78.6727148 509.23465,78.9274742 C510.05615,77.984514 515.77515,78.3749115 517.08915,79.1436944 C517.79965,78.4720104 519.35265,78.5966373 520.98515,78.7212642 C520.86065,79.5826414 520.78915,80.5085843 520.73065,81.5161103 C520.53965,81.5161103 520.38615,81.4945884 520.27515,81.472566 C520.22715,81.2883784 520.07365,81.1477352 519.73965,81.0776638 C519.73165,81.1802683 519.71865,81.2773672 519.70215,81.3754671 C519.60965,81.396989 519.50115,81.4350277 519.33415,81.5161103 C519.29415,81.7163142 519.38415,81.8409411 519.54115,81.9275293 C519.32365,82.45857 518.92615,82.8865058 518.31915,83.1948198 C518.44115,82.7563733 518.65315,82.2793876 518.96015,81.732831 C516.68165,81.9600624 514.33065,81.4565496 513.72415,80.4385129 C512.18165,80.98557 512.31965,80.1837535 511.10565,80.004571 C510.41915,81.1207076 509.63265,82.1767831 507.36615,82.376987 C507.06165,81.6567535 504.44065,82.3879982 504.00115,81.3048952 C504.14665,82.3339431 502.36065,81.8464467 501.38315,81.732831 C501.08315,82.1392449 500.75465,82.5231358 500.63315,83.027149 C502.59915,82.9620828 502.85115,83.2548809 504.37465,83.027149 C504.91765,83.7528881 507.54165,84.6467984 509.98465,84.1047464 C509.94265,83.3414691 508.60165,83.3194467 508.86415,82.376987 C509.23465,82.3824926 509.30915,82.2038106 509.61115,82.1607668 C511.34415,83.6117443 515.20815,82.5071195 517.08915,82.5937076 C515.11765,83.6878218 516.08265,85.4696363 517.46565,86.693883 C516.98365,85.3560206 518.92865,86.7589492 519.33415,86.0437209 C518.95515,85.686357 518.67965,85.350515 518.49415,85.014673 C518.60015,84.6738259 519.61765,84.8575129 519.73965,84.5276771 C518.54715,84.2729176 519.76615,83.027149 520.17415,82.0901949 C520.34415,82.1117168 520.52415,82.1332387 520.69915,82.1497556 C520.64315,83.1627872 520.59015,84.2458901 520.48665,85.3940593 C521.02765,85.2694324 521.40115,85.0527117 521.61065,84.7438972 C520.39115,83.8339706 521.36415,83.0431653 521.98415,82.3719819 C521.82515,81.9545568 520.91615,81.9765792 521.23415,81.2883784 C522.13515,81.2022907 522.05065,81.683781 523.10515,81.5050991 C522.46365,81.2288177 522.09265,80.7958769 521.98415,80.2162866 C523.51315,80.2808524 522.18265,79.7613233 522.35765,79.3494039 C522.37365,79.1657168 522.38965,78.9865344 522.40565,78.8023468 C523.34865,78.8353804 524.24465,78.7863305 524.94415,78.4995384 C524.06465,78.4289666 523.24015,78.4344722 522.43715,78.423461 C522.50115,77.730255 522.58065,77.0425547 522.73115,76.1161113 C521.45665,77.2807973 522.16965,74.7296995 521.98415,73.955411 C522.58815,73.901356 522.62815,74.1611205 523.10515,74.1776373 C522.82665,73.5980471 522.87715,72.2656903 524.22865,72.0164365 C524.68965,71.317725 523.01765,71.8537708 523.48115,71.1550593 C521.80915,71.139043 524.24465,72.2601847 522.35765,72.2331572 C522.24415,71.4478575 522.41615,70.8252234 522.73115,70.2886771 C523.39115,70.6895853 523.82315,70.1965833 524.60265,70.077462 C523.78865,69.89878 523.77065,69.2596292 522.73115,69.2110797 C522.99915,68.1439931 523.24815,67.0658952 523.10515,65.760566 C522.46915,66.6164375 522.69165,67.9653111 522.35765,68.9998646 C522.02365,70.2451327 522.24915,71.810727 521.61065,72.8773131 C521.85415,74.3883519 521.27665,75.4173998 521.23415,76.7607678 L521.23415,77.4109299 C521.15465,77.7142387 521.09615,78.0335639 521.03815,78.3639003 C519.97265,78.2718065 518.92615,78.0390695 517.83665,77.415935 C516.79815,78.1742071 513.59665,77.3238412 511.85565,78.066097 C511.87515,77.3458636 511.19265,77.4084273 510.39165,77.520041 C510.49265,77.2898065 510.59365,77.0590716 510.69665,76.8283366 C510.59515,76.7782856 510.49415,76.7282347 510.39215,76.6786842" id="Fill-15307" stroke="none" fill="#FDFDFC" fill-rule="evenodd" mask="url(#mask-4)"></path>
                    <path d="M506.8727,94.1828092 C506.9087,94.1933199 507.0712,93.9816043 507.0537,93.9040253 C507.0152,93.7478663 506.8902,93.6142302 506.8012,93.4725859 C506.6862,93.5962118 506.5692,93.7203382 506.3892,93.9120334 C506.5937,94.0356593 506.7252,94.1397653 506.8727,94.1828092" id="Fill-16699" stroke="none" fill="#FDFDFC" fill-rule="evenodd" mask="url(#mask-4)"></path>
                    <path d="M508.95035,88.6762517 C508.97835,88.5075799 508.93085,88.3263954 508.91235,88.1211864 C508.74835,88.2157828 508.55885,88.2743424 508.55735,88.3374066 C508.55285,88.5070794 508.63035,88.6787542 508.67435,88.8499285 C508.77185,88.7928704 508.93885,88.7478246 508.95035,88.6762517" id="Fill-16727" stroke="none" fill="#FDFDFC" fill-rule="evenodd" mask="url(#mask-4)"></path>
                </g>
            </g>
        </g>
    </g>
</svg>