<?xml version="1.0" encoding="UTF-8"?>
<svg width="31px" height="30px" viewBox="0 0 31 30" version="1.1" xmlns="http://www.w3.org/2000/svg" xmlns:xlink="http://www.w3.org/1999/xlink">
    <!-- Generator: Sketch 60.1 (88133) - https://sketch.com -->
    <title>arrow-bullet</title>
    <desc>Created with Sketch.</desc>
    <g id="Page-1" stroke="none" stroke-width="1" fill="none" fill-rule="evenodd">
        <g id="Group-14" fill="#D31906">
            <path d="M10.1895273,16.4237091 C10.1357091,16.6302545 10.0877091,16.8368 10.0440727,17.0462545 C10.0324364,17.1073455 10.0338909,17.1698909 10.0469818,17.2280727 C10.0309818,17.2135273 10.0120727,17.2004364 9.99316364,17.1888 C9.93789091,17.1553455 9.88116364,17.1408 9.82734545,17.1378909 C9.94807273,16.9008 10.0688,16.6622545 10.1895273,16.4237091 L10.1895273,16.4237091 Z M12.9444364,15.5669818 L12.8993455,15.6600727 C12.8717091,15.7022545 12.8455273,15.7444364 12.8178909,15.7866182 C12.8600727,15.7124364 12.9022545,15.6397091 12.9444364,15.5669818 L12.9444364,15.5669818 Z M14.3611636,15.4098909 C14.3684364,15.4113455 14.3757091,15.4128 14.3815273,15.4142545 C13.9393455,16.2026182 13.4695273,16.9749818 13.0026182,17.7502545 C13.0288,17.6978909 13.0564364,17.6484364 13.0840727,17.5975273 C13.2673455,17.2542545 13.4448,16.9051636 13.6149818,16.5546182 C13.8578909,16.1691636 14.1051636,15.7866182 14.3611636,15.4098909 L14.3611636,15.4098909 Z M12.1328,13.5960727 C12.0673455,13.7095273 12.0018909,13.8229818 11.9364364,13.9378909 C11.8404364,14.1080727 11.8273455,14.3015273 11.8840727,14.4746182 C11.6906182,14.7640727 11.4942545,15.0491636 11.2935273,15.3328 C11.3822545,15.0869818 11.4782545,14.8426182 11.5786182,14.5982545 L11.5437091,14.6826182 C11.6993455,14.3218909 11.8622545,13.9655273 12.0338909,13.6120727 C12.0673455,13.6106182 12.1008,13.6048 12.1328,13.5960727 L12.1328,13.5960727 Z M21.1117091,13.2353455 C21.0520727,13.4084364 20.9880727,13.5800727 20.9211636,13.7531636 C20.4208,14.3277091 19.9349818,14.9211636 19.4797091,15.5364364 C19.8651636,14.9124364 20.2753455,14.3029818 20.7204364,13.7168 L20.6520727,13.8026182 C20.8004364,13.6091636 20.9546182,13.4200727 21.1117091,13.2353455 L21.1117091,13.2353455 Z M3.14661818,2.91534545 C2.97061818,3.01861818 2.91970909,3.23970909 3.01570909,3.41570909 C3.01570909,3.41716364 3.01716364,3.41861818 3.01861818,3.42007273 L3.02443636,3.44189091 C3.02734545,3.54661818 3.01861818,3.64698182 3.00552727,3.75316364 C2.98516364,3.85789091 2.96189091,3.96116364 2.95316364,4.0688 C2.94152727,4.19389091 3.03316364,4.3248 3.13498182,4.38734545 C3.17570909,4.41207273 3.22661818,4.42661818 3.28189091,4.43243636 C3.29352727,4.44116364 3.30516364,4.44843636 3.3168,4.45570909 C3.3488,4.47607273 3.38516364,4.48770909 3.42152727,4.49643636 C3.42007273,4.49934545 3.42007273,4.50370909 3.41861818,4.50661818 C3.36770909,4.71170909 3.35607273,4.89934545 3.34589091,5.1088 C3.33425455,5.24552727 3.42443636,5.38225455 3.53789091,5.45061818 C3.67898182,5.52916364 3.84043636,5.51170909 3.96698182,5.42589091 C3.95825455,5.64698182 3.96698182,5.86807273 3.98734545,6.09207273 C3.99316364,6.16625455 4.01061818,6.23898182 4.04407273,6.30007273 L4.04407273,6.30152727 C3.99316364,6.48916364 4.07752727,6.68843636 4.24334545,6.78443636 C4.28698182,6.81207273 4.33643636,6.82952727 4.3888,6.83825455 C4.40625455,6.96770909 4.49352727,7.09134545 4.60698182,7.15970909 C4.70152727,7.21498182 4.82661818,7.23534545 4.93861818,7.21207273 C4.96770909,7.28043636 5.01425455,7.34007273 5.07534545,7.38807273 C5.05934545,7.4448 5.04334545,7.50152727 5.02734545,7.55825455 C4.9648,7.75607273 5.0608,7.9728 5.2368,8.07461818 C5.3328,8.1328 5.45207273,8.15170909 5.56407273,8.12552727 C5.50443636,8.31170909 5.44043636,8.49789091 5.37352727,8.68261818 C5.29352727,8.88770909 5.41861818,9.13207273 5.60043636,9.23970909 C5.71534545,9.30661818 5.84625455,9.32116364 5.96552727,9.28916364 C5.96843636,9.47243636 6.07752727,9.66007273 6.23170909,9.75170909 C6.3248,9.80552727 6.43534545,9.82734545 6.54152727,9.81861818 C6.59098182,9.92189091 6.66952727,10.0106182 6.75970909,10.0629818 C6.87898182,10.1342545 7.03025455,10.1531636 7.16261818,10.1240727 C7.13498182,10.3248 7.24843636,10.5371636 7.42443636,10.6375273 C7.60625455,10.7480727 7.86225455,10.7262545 8.02952727,10.5938909 C8.01061818,10.6840727 8.01207273,10.7800727 8.03243636,10.8760727 C8.06007273,10.9720727 8.11389091,11.0608 8.18516364,11.1320727 C8.16770909,11.1728 8.15025455,11.2149818 8.1328,11.2586182 C8.12261818,11.2789818 8.11098182,11.3022545 8.1008,11.3255273 C8.10225455,11.3255273 8.10225455,11.3269818 8.10370909,11.3269818 C8.0848,11.3749818 8.06443636,11.4244364 8.04407273,11.4724364 C8.01498182,11.5800727 8.01498182,11.6891636 8.04407273,11.7968 C8.06734545,11.8840727 8.11389091,11.9684364 8.17643636,12.0382545 C8.1328,12.1328 8.09207273,12.2288 8.04989091,12.3248 C7.98152727,12.4789818 7.94225455,12.6142545 7.99316364,12.7844364 C8.03243636,12.9386182 8.12989091,13.0637091 8.26516364,13.1437091 C8.35970909,13.1989818 8.46589091,13.2251636 8.57207273,13.2237091 C8.47316364,13.4768 8.37716364,13.7298909 8.28261818,13.9844364 C8.20261818,14.1997091 8.33352727,14.4557091 8.52116364,14.5633455 C8.64043636,14.6375273 8.7888,14.6549818 8.91970909,14.6200727 C9.0608,14.5808 9.15243636,14.4949818 9.23098182,14.3815273 C9.36334545,14.1924364 9.49134545,14.0018909 9.61789091,13.8113455 C9.63243636,13.8229818 9.64989091,13.8360727 9.6688,13.8477091 C9.8288,13.9378909 10.0775273,13.8928 10.1633455,13.7168 C10.4949818,13.0360727 10.8237091,12.3568 11.1509818,11.6760727 C11.2208,11.6586182 11.2862545,11.6237091 11.3357091,11.5698909 C11.2935273,11.6877091 11.2542545,11.8055273 11.2149818,11.9233455 C11.0026182,12.5022545 10.7757091,13.0768 10.5386182,13.6484364 C10.5502545,13.6208 10.5604364,13.5858909 10.5720727,13.5582545 C10.2957091,14.2084364 10.0062545,14.8528 9.70952727,15.4957091 C9.41570909,15.9553455 9.11898182,16.4135273 8.81934545,16.8702545 C8.80189091,16.8877091 8.78589091,16.9066182 8.77134545,16.9269818 C7.9568,18.0542545 7.21352727,19.2251636 6.4848,20.4077091 C5.91025455,21.2993455 5.34734545,22.1997091 4.81643636,23.1204364 C4.74225455,23.2542545 4.75825455,23.4142545 4.84552727,23.5291636 C4.71898182,23.7502545 4.59389091,23.9713455 4.47025455,24.1938909 C4.37425455,24.3640727 4.42516364,24.5866182 4.60116364,24.6884364 C4.78298182,24.7960727 4.9808,24.7233455 5.09570909,24.5575273 C5.19898182,24.4120727 5.30370909,24.2666182 5.40698182,24.1197091 C5.42152727,24.2288 5.48407273,24.3306182 5.58443636,24.3873455 C5.76043636,24.4949818 5.96989091,24.4266182 6.07752727,24.2564364 C6.33934545,23.8506182 6.59534545,23.4418909 6.84552727,23.0288 C6.79461818,23.1233455 6.74225455,23.2178909 6.69134545,23.3138909 C6.59534545,23.4898909 6.64625455,23.7051636 6.82225455,23.8084364 C6.99825455,23.9160727 7.21498182,23.8477091 7.32261818,23.6833455 C7.34152727,23.6528 7.36043636,23.6222545 7.37789091,23.5917091 C7.37498182,23.6018909 7.37207273,23.6106182 7.36770909,23.6208 C7.31098182,23.7677091 7.40261818,23.9553455 7.53207273,24.0295273 C7.71389091,24.1313455 7.9248,24.0629818 8.03243636,23.8986182 C8.84552727,22.6811636 9.61061818,21.4360727 10.3393455,20.1691636 C10.1575273,20.5255273 9.97716364,20.8818909 9.79970909,21.2397091 C9.6688,21.4957091 9.72552727,21.8142545 9.99316364,21.9669818 C10.2375273,22.1095273 10.5778909,22.0295273 10.7204364,21.7735273 C10.8906182,21.4724364 11.0622545,21.1713455 11.2338909,20.8717091 C11.1858909,21.0855273 11.2629818,21.3109818 11.4651636,21.4331636 C11.7197091,21.5800727 11.9989818,21.4782545 12.1575273,21.2513455 C12.3175273,21.0186182 12.4789818,20.7844364 12.6375273,20.5488 C12.5866182,20.7538909 12.6811636,20.9837091 12.8673455,21.0913455 C13.1058909,21.2338909 13.3968,21.1437091 13.5378909,20.9153455 C13.5960727,20.8251636 13.6542545,20.7335273 13.7138909,20.6418909 C13.7313455,20.6695273 13.7531636,20.6957091 13.7764364,20.7175273 C13.7880727,20.7233455 13.7938909,20.7335273 13.7997091,20.7393455 C13.9015273,20.8251636 14.0106182,20.8818909 14.1458909,20.8818909 C14.3117091,20.8818909 14.4818909,20.7902545 14.5604364,20.6433455 C14.6098909,20.5546182 14.6578909,20.4688 14.7058909,20.3815273 L14.9080727,20.0411636 C15.1349818,19.6600727 15.3618909,19.2789818 15.5946182,18.8935273 C15.6397091,18.8193455 15.6848,18.7437091 15.7298909,18.6695273 C15.7386182,18.6957091 15.7473455,18.7218909 15.7604364,18.7451636 C15.2906182,19.6688 14.8528,20.6098909 14.4411636,21.5640727 C14.4018909,21.6324364 14.3786182,21.7051636 14.3786182,21.7909818 C14.3786182,21.9044364 14.4309818,22.0237091 14.5095273,22.1037091 C14.5953455,22.1880727 14.7088,22.2346182 14.8280727,22.2346182 C14.9357091,22.2346182 15.0782545,22.1938909 15.1466182,22.1037091 C16.0746182,20.9037091 16.9458909,19.6557091 17.7531636,18.3684364 C17.4898909,18.9226182 17.2629818,19.4942545 17.0840727,20.0862545 C17.0331636,20.2680727 17.1175273,20.4673455 17.2833455,20.5633455 C17.4928,20.6884364 17.7255273,20.5982545 17.8564364,20.4106182 C18.6797091,19.2600727 19.4986182,18.1037091 20.2375273,16.8964364 C20.2782545,16.9997091 20.3509818,17.0913455 20.4469818,17.1480727 C20.5560727,17.2164364 20.6913455,17.2338909 20.8222545,17.2004364 C20.9531636,17.1597091 21.0331636,17.0811636 21.1117091,16.9720727 C21.3022545,16.7175273 21.4826182,16.4498909 21.6513455,16.1778909 L21.6528,16.1778909 C21.8986182,16.3015273 22.2128,16.2142545 22.3568,15.9728 C22.4338909,15.8375273 22.5138909,15.7080727 22.5982545,15.5800727 C22.6069818,15.8040727 22.7277091,16.0222545 22.9240727,16.1371636 C23.1408,16.2651636 23.3880727,16.2462545 23.5858909,16.1284364 C23.6280727,16.1633455 23.6746182,16.1909818 23.7226182,16.2142545 C23.7502545,16.3466182 23.8157091,16.4717091 23.9131636,16.5691636 C24.0440727,16.7000727 24.2258909,16.7742545 24.4077091,16.7742545 C24.5837091,16.7742545 24.7888,16.7058909 24.9080727,16.5691636 C24.9488,16.5211636 24.9866182,16.4731636 25.0244364,16.4237091 C25.1538909,16.5560727 25.3313455,16.6375273 25.5218909,16.6375273 C25.6513455,16.6375273 25.7386182,16.6098909 25.8462545,16.5604364 C26.0484364,16.4935273 26.2520727,16.4266182 26.4586182,16.3698909 C26.8164364,16.2738909 27.0331636,15.8869818 26.9357091,15.5349818 C26.8673455,15.2877091 26.6782545,15.1204364 26.4513455,15.0622545 C26.4469818,15.0258909 26.4397091,14.9895273 26.4309818,14.9560727 C26.4018909,14.8368 26.3393455,14.7335273 26.2549818,14.6491636 C26.1938909,14.5866182 26.1182545,14.5371636 26.0353455,14.5008 C26.1648,14.2608 26.3029818,14.0251636 26.4528,13.7968 C26.6288,13.5349818 26.5604364,13.1597091 26.3451636,12.9444364 C26.2142545,12.8135273 26.0324364,12.7393455 25.8506182,12.7393455 C25.8055273,12.7393455 25.7589818,12.7437091 25.7095273,12.7538909 C25.6513455,12.6346182 25.5582545,12.5371636 25.4418909,12.4673455 C25.4098909,12.4484364 25.3764364,12.4324364 25.3415273,12.4193455 C25.3662545,12.3582545 25.3895273,12.2957091 25.4128,12.2346182 C25.4418909,12.1255273 25.4418909,12.0120727 25.4128,11.9044364 C25.3677091,11.7517091 25.2658909,11.6149818 25.1233455,11.5349818 C24.8906182,11.3982545 24.5604364,11.4273455 24.3742545,11.6324364 C24.1008,11.9277091 23.8229818,12.2229818 23.5495273,12.5240727 C23.4317091,12.6520727 23.3153455,12.7844364 23.2033455,12.9182545 C23.2818909,12.7364364 23.1509818,12.5008 22.9924364,12.4106182 C22.8164364,12.3073455 22.5837091,12.3364364 22.4411636,12.4789818 C22.3393455,12.5822545 22.2375273,12.6855273 22.1386182,12.7917091 C22.2258909,12.4818909 22.3015273,12.1706182 22.3626182,11.8535273 C22.3960727,11.6658909 22.3393455,11.4782545 22.1691636,11.3764364 C21.9989818,11.2789818 21.7938909,11.3138909 21.6513455,11.4448 C21.4448,11.6353455 21.2455273,11.8346182 21.0520727,12.0382545 C21.0826182,11.9626182 21.1146182,11.8884364 21.1466182,11.8142545 C21.2251636,11.6266182 21.0957091,11.3880727 20.9357091,11.2906182 C20.7480727,11.1829818 20.5328,11.2222545 20.3742545,11.3648 C19.8113455,11.8724364 19.3095273,12.4353455 18.8498909,13.0317091 C19.0113455,12.6811636 19.1669818,12.3291636 19.3168,11.9728 C19.3968,11.7793455 19.2658909,11.5291636 19.0957091,11.4331636 C18.9240727,11.3298909 18.6520727,11.3415273 18.5153455,11.5073455 C18.2782545,11.7938909 18.0455273,12.0862545 17.8186182,12.3815273 C17.7720727,12.2986182 17.7037091,12.2244364 17.6237091,12.1778909 C17.5393455,12.1269818 17.4360727,12.1037091 17.3328,12.1066182 C17.3560727,12.0426182 17.3793455,11.9800727 17.4026182,11.9160727 C17.4928,11.6542545 17.3444364,11.3473455 17.1175273,11.2164364 C16.9866182,11.1393455 16.8266182,11.1131636 16.6782545,11.1451636 C16.7204364,11.0171636 16.7626182,10.8906182 16.8048,10.7626182 C16.9022545,10.4789818 16.7480727,10.1546182 16.5037091,10.0120727 C16.3451636,9.92189091 16.1633455,9.89861818 15.9873455,9.94370909 C15.9684364,9.94807273 15.9509818,9.95389091 15.9320727,9.96116364 C15.8898909,9.86225455 15.8229818,9.77207273 15.7371636,9.70516364 C15.8128,9.53643636 15.8869818,9.36625455 15.9582545,9.19461818 C15.9873455,9.08698182 15.9873455,8.97789091 15.9582545,8.87025455 C15.9131636,8.71752727 15.8113455,8.5808 15.6746182,8.5008 C15.4418909,8.36407273 15.1117091,8.39316364 14.9298909,8.59825455 C14.6317091,8.92552727 14.3393455,9.26007273 14.0513455,9.59752727 C14.0382545,9.49134545 13.9800727,9.39389091 13.8797091,9.33570909 C13.7808,9.27898182 13.6702545,9.27461818 13.5742545,9.31243636 C13.5786182,9.29352727 13.5844364,9.27461818 13.5888,9.25716364 C13.6309818,9.09570909 13.5800727,8.92407273 13.4651636,8.81207273 C13.5364364,8.69716364 13.6077091,8.58225455 13.6804364,8.46734545 C13.7880727,8.29716364 13.7197091,8.0688 13.5495273,7.96698182 C13.3735273,7.86516364 13.1582545,7.93352727 13.0549818,8.09789091 C12.9298909,8.29716364 12.7989818,8.48916364 12.6680727,8.68116364 C12.6448,8.66807273 12.6186182,8.65934545 12.5938909,8.65207273 C12.6171636,8.60261818 12.6404364,8.55461818 12.6637091,8.50661818 C12.7480727,8.3248 12.7146182,8.11534545 12.5328,8.00625455 C12.3684364,7.91607273 12.1240727,7.96116364 12.0324364,8.13716364 C11.8302545,8.54443636 11.6266182,8.95461818 11.4215273,9.36043636 C11.3589818,9.36770909 11.2978909,9.38661818 11.2440727,9.41716364 C11.3851636,9.03607273 11.5233455,8.65352727 11.6513455,8.26807273 C11.7371636,8.02952727 11.6004364,7.75170909 11.3909818,7.62661818 L11.3517091,7.6048 C11.3778909,7.53643636 11.4055273,7.46661818 11.4302545,7.39825455 C11.5218909,7.14370909 11.3677091,6.8368 11.1466182,6.70589091 C10.9066182,6.56770909 10.5778909,6.6128 10.3902545,6.81643636 C10.3800727,6.81498182 10.3713455,6.81352727 10.3611636,6.81207273 C10.3728,6.7728 10.3844364,6.73207273 10.3960727,6.69425455 C10.4702545,6.46152727 10.3568,6.19389091 10.1458909,6.07461818 C9.89134545,5.92770909 9.54370909,6.01207273 9.3968,6.27389091 C9.29352727,6.45425455 9.1888,6.63170909 9.08261818,6.80916364 C9.0448,6.68843636 8.96189091,6.5808 8.85134545,6.51825455 C8.84843636,6.5168 8.84698182,6.51534545 8.84552727,6.51534545 C8.89352727,6.28116364 8.73643636,6.03243636 8.52552727,5.93352727 C8.53861818,5.87534545 8.55170909,5.81861818 8.5648,5.76043636 C8.60116364,5.64552727 8.64043636,5.53061818 8.67970909,5.41570909 C8.74807273,5.21643636 8.63461818,4.97789091 8.45861818,4.87025455 C8.22443636,4.73643636 7.95389091,4.8208 7.80407273,5.03170909 C7.76625455,5.06516364 7.73134545,5.10443636 7.70370909,5.14807273 C7.52625455,5.41861818 7.36189091,5.69498182 7.2048,5.97570909 C7.19607273,5.82007273 7.10007273,5.66443636 6.97061818,5.58589091 C6.9648,5.58298182 6.96043636,5.58007273 6.95607273,5.57861818 C6.96770909,5.52043636 6.97061818,5.46225455 6.96189091,5.40552727 C7.00698182,5.28625455 7.04916364,5.16698182 7.08989091,5.04625455 C7.15243636,4.84261818 7.04334545,4.60843636 6.86734545,4.5008 C6.75389091,4.43825455 6.61716364,4.4208 6.49789091,4.45570909 C6.42516364,4.47461818 6.36552727,4.50807273 6.31461818,4.55170909 C6.3088,4.45134545 6.26807273,4.3568 6.19243636,4.27970909 C6.03825455,4.12552727 5.8448,4.12552727 5.66298182,4.21134545 C5.64552727,4.21861818 5.62807273,4.22734545 5.61061818,4.23461818 C5.59752727,4.05570909 5.4768,3.90734545 5.29934545,3.85934545 C5.15243636,3.81716364 4.9488,3.86807273 4.8528,3.99898182 C4.76843636,3.8288 4.55461818,3.70516364 4.37425455,3.77934545 C4.36261818,3.78225455 4.35098182,3.78661818 4.3408,3.79098182 C4.34225455,3.73425455 4.34370909,3.67461818 4.34516364,3.61498182 C4.34516364,3.48407273 4.27098182,3.35898182 4.15170909,3.29061818 C4.08334545,3.24843636 3.99607273,3.23098182 3.91170909,3.24116364 C3.86225455,3.14661818 3.77061818,3.07243636 3.67461818,3.04625455 C3.66152727,3.04189091 3.64843636,3.03898182 3.63534545,3.03752727 C3.56843636,2.92843636 3.44625455,2.8688 3.32407273,2.8688 C3.26152727,2.8688 3.20043636,2.88334545 3.14661818,2.91534545 L3.14661818,2.91534545 Z" id="Fill-1"></path>
            <g id="Group-13" transform="translate(0.000000, 0.148073)">
                <path d="M0.957963636,0.604363636 C0.731054545,0.666909091 0.531781818,0.819636364 0.412509091,1.02472727 C0.304872727,1.21236364 0.236509091,1.51345455 0.322327273,1.72290909 C1.33323636,4.16654545 2.53178182,6.53018182 3.8336,8.83127273 C4.50850909,10.0254545 5.21396364,11.1949091 5.93541818,12.3541818 C6.29323636,12.9389091 6.66269091,13.5134545 7.02632727,14.0923636 C7.38996364,14.6669091 7.73614545,15.2574545 8.14050909,15.8087273 C8.23650909,15.9847273 8.37905455,16.1214545 8.54923636,16.2232727 C8.81541818,16.3774545 9.13396364,16.4225455 9.43505455,16.3367273 C9.71869091,16.2581818 9.96887273,16.0705455 10.1172364,15.8087273 C10.2597818,15.5701818 10.3383273,15.2007273 10.2365091,14.9287273 C9.76523636,13.7229091 9.10050909,12.5927273 8.42414545,11.4901818 C7.70850909,10.3265455 6.92450909,9.20072727 6.14487273,8.07636364 C5.41323636,7.01890909 4.67432727,5.96727273 3.99214545,4.87636364 C3.28669091,3.73890909 2.64669091,2.54618182 2.11287273,1.30981818 C2.10269091,1.28654545 2.09250909,1.26327273 2.08232727,1.24 C1.98632727,1.00727273 1.89032727,0.825454545 1.66196364,0.694545455 C1.52378182,0.611636364 1.36523636,0.569454545 1.20523636,0.569454545 C1.12232727,0.569454545 1.03941818,0.579636364 0.957963636,0.604363636" id="Fill-3"></path>
                <path d="M8.69454545,15.0389818 C5.848,19.3342545 3.35927273,23.8520727 0.552,28.1691636 C0.28,28.5895273 0.467636364,29.1815273 0.876363636,29.4200727 C1.32,29.6804364 1.86545455,29.5160727 2.13163636,29.0957091 C4.85890909,24.7262545 7.16,20.1008 10.0065455,15.8055273 C10.2349091,15.4593455 10.0749091,14.9648 9.73454545,14.7669818 C9.61236364,14.6957091 9.48436364,14.6608 9.35927273,14.6608 C9.09745455,14.6608 8.84727273,14.8048 8.69454545,15.0389818" id="Fill-5"></path>
                <g id="Group-9">
                    <path d="M0.736436364,0.7024 C0.521163636,1.06603636 0.6288,1.62894545 1.02589091,1.8224 C5.64552727,4.04930909 10.1968,6.40130909 14.7480727,8.75912727 C19.3735273,11.1518545 23.9917091,13.5431273 28.6738909,15.8224 C29.0200727,15.9867636 29.3618909,16.0667636 29.7415273,15.9576727 C30.0891636,15.8674909 30.3960727,15.6347636 30.5778909,15.3220364 C30.7657186,14.9976727 30.8164364,14.6064 30.7131636,14.2485818 C30.5778909,13.7540364 30.2084364,13.4529455 29.7415273,13.2769455 C27.8637091,12.5831273 26.0135273,11.8238545 24.1691636,11.0471273 C24.2288,11.0718545 24.2898909,11.0965818 24.3495273,11.1227636 C16.7029818,7.87330909 9.33861818,4.0144 1.85643636,0.407127273 C1.71825455,0.340218182 1.57134545,0.306763636 1.4288,0.306763636 C1.15389091,0.306763636 0.893527273,0.431854545 0.736436364,0.7024" id="Fill-7"></path>
                    <path d="M29.4488727,14.9864727 C24.5456,16.6402909 19.5914182,18.1515636 14.7332364,19.9290182 C12.2663273,20.8337455 9.82996364,21.8039273 7.44887273,22.9122909 C5.05178182,24.0206545 2.68814545,25.2701091 0.506327273,26.7595636 C0.277963636,26.9122909 0.107781818,27.0999273 0.0336,27.3675636 C-0.0347636364,27.6337455 0.000145454546,27.9188364 0.136872727,28.1573818 C0.272145455,28.3842909 0.494690909,28.5544727 0.750690909,28.6228364 C1.02850909,28.7028364 1.28450909,28.6461091 1.53469091,28.5210182 C2.9776,27.7995636 4.40887273,27.0490182 5.8576,26.3275636 C7.32378182,25.5886545 8.8016,24.8672 10.2779636,24.1515636 C13.3354182,22.6737455 16.4263273,21.2584727 19.5565091,19.9348364 C19.5274182,19.9479273 19.4983273,19.9595636 19.4706909,19.9697455 C22.8496,18.5501091 26.2692364,17.2410182 29.7441455,16.0599273 C30.0336,15.9639273 30.2154182,15.6802909 30.1310545,15.3733818 C30.0699636,15.1421091 29.8386909,14.9588364 29.6001455,14.9588364 C29.5492364,14.9588364 29.4983273,14.9675636 29.4488727,14.9864727" id="Fill-10"></path>
                </g>
            </g>
        </g>
    </g>
</svg>