<?xml version="1.0" encoding="UTF-8"?>
<svg width="2575px" height="1442px" viewBox="0 0 2575 1442" version="1.1" xmlns="http://www.w3.org/2000/svg" xmlns:xlink="http://www.w3.org/1999/xlink">
    <!-- Generator: Sketch 60.1 (88133) - https://sketch.com -->
    <title>background-dark</title>
    <desc>Created with Sketch.</desc>
    <defs>
        <rect id="path-1" x="0" y="0" width="2575" height="1442"></rect>
    </defs>
    <g id="Arrow-Website" stroke="none" stroke-width="1" fill="none" fill-rule="evenodd">
        <g id="background-dark">
            <mask id="mask-2" fill="white">
                <use xlink:href="#path-1"></use>
            </mask>
            <use id="background" fill="#2E3B44" xlink:href="#path-1"></use>
            <g id="Group-249" opacity="0.2" mask="url(#mask-2)" stroke="#FFFFFF" stroke-linecap="round" stroke-linejoin="round" stroke-width="1.5">
                <g transform="translate(-379.000000, -13.000000)">
                    <line x1="1455.98865" y1="884.5866" x2="1455.98865" y2="1017.49545" id="Stroke-1" stroke-dasharray="105,60,60,15,7.5,15"></line>
                    <line x1="2100.4746" y1="777.72165" x2="2100.4746" y2="1051.12665" id="Stroke-3" stroke-dasharray="105,60,60,15,7.5,15"></line>
                    <line x1="2100.4746" y1="229.2447" x2="2100.4746" y2="320.8332" id="Stroke-5" stroke-dasharray="105,60,60,15,7.5,15"></line>
                    <line x1="1393.5804" y1="433.9932" x2="1747.3584" y2="612.1797" id="Stroke-7" stroke-dasharray="150,30,60,15,7.5,15"></line>
                    <line x1="1275.87435" y1="833.7798" x2="1554.69585" y2="978.7458" id="Stroke-9" stroke-dasharray="105,60,60,15,7.5,15"></line>
                    <line x1="2366.127" y1="519.4947" x2="2101.362" y2="656.0052" id="Stroke-11" stroke-dasharray="150,30,60,15,7.5,15"></line>
                    <line x1="2637.315" y1="298.32675" x2="2462.8335" y2="388.95525" id="Stroke-13" stroke-dasharray="150,30,60,15,7.5,15"></line>
                    <line x1="510.01305" y1="320.8326" x2="814.64055" y2="484.5786" id="Stroke-17" stroke-dasharray="150,30,60,15,7.5,15"></line>
                    <line x1="1805.91645" y1="616.2447" x2="1237.13145" y2="922.8297" id="Stroke-19" stroke-dasharray="105,60,60,15,7.5,15"></line>
                    <line x1="1644.5244" y1="470.10315" x2="1527.9249" y2="531.60615" id="Stroke-21" stroke-dasharray="150,30,60,15,7.5,15"></line>
                    <line x1="1275.87435" y1="833.7798" x2="1554.69585" y2="978.7458" id="Stroke-23" stroke-dasharray="105,60,60,15,7.5,15"></line>
                    <line x1="1186.6962" y1="497.42535" x2="1614.0957" y2="719.63985" id="Stroke-25" stroke-dasharray="150,30,60,15,7.5,15"></line>
                    <line x1="1722.88035" y1="786.9897" x2="1357.96785" y2="978.7452" id="Stroke-27" stroke-dasharray="105,60,60,15,7.5,15"></line>
                    <line x1="1791.13035" y1="864.6807" x2="1970.77185" y2="958.3917" id="Stroke-29" stroke-dasharray="105,60,60,15,7.5,15"></line>
                    <line x1="2483.45355" y1="828.05085" x2="2265.76305" y2="941.12235" id="Stroke-31" stroke-dasharray="105,60,60,15,7.5,15"></line>
                    <line x1="1923.75" y1="870.1416" x2="2200.125" y2="1014.05475" id="Stroke-33" stroke-dasharray="105,60,60,15,7.5,15"></line>
                    <line x1="2610.50835" y1="1049.358" x2="2829.01035" y2="1162.962" id="Stroke-35" stroke-dasharray="105,60,60,15,7.5,15"></line>
                    <line x1="2923.4781" y1="1207.69875" x2="3015.2766" y2="1255.42575" id="Stroke-37" stroke-dasharray="105,60,60,15,7.5,15"></line>
                    <line x1="2437.55565" y1="946.91115" x2="2483.45415" y2="970.77465" id="Stroke-39" stroke-dasharray="105,60,60,15,7.5,15"></line>
                    <line x1="2170.31985" y1="926.3403" x2="2003.39685" y2="1014.0558" id="Stroke-41" stroke-dasharray="105,60,60,15,7.5,15"></line>
                    <line x1="308.2368" y1="80.04885" x2="571.3173" y2="216.83085" id="Stroke-43" stroke-dasharray="150,30,60,15,7.5,15"></line>
                    <line x1="520.58925" y1="4.45125" x2="308.23725" y2="116.03925" id="Stroke-45" stroke-dasharray="150,30,60,15,7.5,15"></line>
                    <line x1="1062.4599" y1="0.75255" x2="1166.6859" y2="54.94155" id="Stroke-47" stroke-dasharray="150,30,60,15,7.5,15"></line>
                    <line x1="1209.4584" y1="1.983" x2="1274.3739" y2="35.886" id="Stroke-49" stroke-dasharray="150,30,60,15,7.5,15"></line>
                    <line x1="1209.4584" y1="1.983" x2="1108.0584" y2="56.601" id="Stroke-51" stroke-dasharray="150,30,60,15,7.5,15"></line>
                    <line x1="659.0727" y1="99.4683" x2="1077.0522" y2="316.7853" id="Stroke-53" stroke-dasharray="150,30,60,15,7.5,15"></line>
                    <line x1="369.2856" y1="0.75255" x2="561.9936" y2="100.94655" id="Stroke-55" stroke-dasharray="150,30,60,15,7.5,15"></line>
                    <line x1="1064.4462" y1="289.26525" x2="838.1562" y2="408.17625" id="Stroke-57" stroke-dasharray="150,30,60,15,7.5,15"></line>
                    <line x1="1172.31585" y1="229.2345" x2="1086.75735" y2="274.9485" id="Stroke-59" stroke-dasharray="150,30,60,15,7.5,15"></line>
                    <line x1="884.60145" y1="19.78665" x2="745.92345" y2="93.88065" id="Stroke-61" stroke-dasharray="150,30,60,15,7.5,15"></line>
                    <line x1="731.05515" y1="101.48835" x2="425.77815" y2="261.90435" id="Stroke-63" stroke-dasharray="150,30,60,15,7.5,15"></line>
                    <line x1="1275.87435" y1="833.7798" x2="518.35035" y2="433.9938" id="Stroke-67" stroke-dasharray="105,60,60,15,7.5,15"></line>
                    <line x1="844.5615" y1="112.33995" x2="629.3565" y2="0.75195" id="Stroke-69" stroke-dasharray="150,30,60,15,7.5,15"></line>
                    <line x1="1665.0279" y1="401.06505" x2="1299.1374" y2="216.83055" id="Stroke-71" stroke-dasharray="150,30,60,15,7.5,15"></line>
                    <line x1="2458.4532" y1="0.75255" x2="2816.1762" y2="186.74055" id="Stroke-73" stroke-dasharray="150,30,60,15,7.5,15"></line>
                    <line x1="3086.1489" y1="0.75105" x2="2688.3819" y2="209.77005" id="Stroke-75" stroke-dasharray="150,30,60,15,7.5,15"></line>
                    <line x1="2775.39105" y1="186.74085" x2="2775.39105" y2="0.75285" id="Stroke-77" stroke-dasharray="150,30,60,15,7.5,15"></line>
                    <line x1="2626.44135" y1="319.1451" x2="2626.44135" y2="0.7521" id="Stroke-79" stroke-dasharray="150,30,60,15,7.5,15"></line>
                    <line x1="1044.36765" y1="324.1974" x2="1044.36765" y2="233.6574" id="Stroke-83" stroke-dasharray="150,30,60,15,7.5,15"></line>
                    <line x1="1209.4584" y1="148.9683" x2="1209.4584" y2="1.9833" id="Stroke-85" stroke-dasharray="150,30,60,15,7.5,15"></line>
                    <line x1="67.3095" y1="664.87605" x2="552.1965" y2="916.97805" id="Stroke-87" stroke-dasharray="105,60,60,15,7.5,15"></line>
                    <line x1="787.21425" y1="1039.32675" x2="844.56075" y2="1069.14375" id="Stroke-89" stroke-dasharray="105,60,60,15,7.5,15"></line>
                    <line x1="671.6586" y1="664.8951" x2="808.7856" y2="736.1886" id="Stroke-91" stroke-dasharray="150,30,60,15,7.5,15"></line>
                    <line x1="537.3222" y1="832.06305" x2="412.3527" y2="897.73155" id="Stroke-95" stroke-dasharray="105,60,60,15,7.5,15"></line>
                    <line x1="780.0453" y1="708.23685" x2="733.9398" y2="732.46335" id="Stroke-97" stroke-dasharray="105,60,60,15,7.5,15"></line>
                    <line x1="1294.8558" y1="433.9932" x2="838.1553" y2="673.9812" id="Stroke-99" stroke-dasharray="105,60,60,15,7.5,15"></line>
                    <line x1="694.25385" y1="212.2701" x2="898.96635" y2="318.7041" id="Stroke-101" stroke-dasharray="150,30,60,15,7.5,15"></line>
                    <line x1="738.03945" y1="443.40345" x2="612.88395" y2="509.17095" id="Stroke-103" stroke-dasharray="150,30,60,15,7.5,15"></line>
                    <line x1="905.90325" y1="280.91415" x2="776.86725" y2="348.72015" id="Stroke-105" stroke-dasharray="150,30,60,15,7.5,15"></line>
                    <line x1="597.50385" y1="992.541" x2="165.06885" y2="1219.779" id="Stroke-107" stroke-dasharray="105,60,60,15,7.5,15"></line>
                    <line x1="1313.60295" y1="616.2447" x2="737.89845" y2="918.7677" id="Stroke-109" stroke-dasharray="105,60,60,15,7.5,15"></line>
                    <line x1="497.7612" y1="489.8844" x2="81.8622" y2="708.4314" id="Stroke-111" stroke-dasharray="150,30,60,15,7.5,15"></line>
                    <line x1="1010.9193" y1="952.4439" x2="310.4748" y2="589.2504" id="Stroke-113" stroke-dasharray="105,60,60,15,7.5,15"></line>
                    <line x1="1286.9706" y1="1003.91265" x2="1067.4141" y2="890.06865" id="Stroke-115" stroke-dasharray="105,60,60,15,7.5,15"></line>
                    <line x1="462.8217" y1="870.1416" x2="462.8217" y2="668.2686" id="Stroke-117" stroke-dasharray="150,30,60,15,7.5,15"></line>
                    <line x1="636.93015" y1="555.354" x2="636.93015" y2="496.6815" id="Stroke-119" stroke-dasharray="150,30,60,15,7.5,15"></line>
                    <line x1="1775.15475" y1="257.36235" x2="2012.81775" y2="380.92785" id="Stroke-121" stroke-dasharray="150,30,60,15,7.5,15"></line>
                    <line x1="2334.43215" y1="194.05335" x2="2460.50565" y2="259.60185" id="Stroke-123" stroke-dasharray="150,30,60,15,7.5,15"></line>
                    <line x1="2422.24515" y1="209.16315" x2="2196.48915" y2="327.79515" id="Stroke-125" stroke-dasharray="150,30,60,15,7.5,15"></line>
                    <line x1="2626.44135" y1="0.75255" x2="2497.63035" y2="68.45055" id="Stroke-127" stroke-dasharray="150,30,60,15,7.5,15"></line>
                    <line x1="3143.0244" y1="42.9825" x2="2933.8554" y2="152.913" id="Stroke-129" stroke-dasharray="150,30,60,15,7.5,15"></line>
                    <line x1="1970.77155" y1="92.5821" x2="1764.24255" y2="200.8551" id="Stroke-131" stroke-dasharray="150,30,60,15,7.5,15"></line>
                    <line x1="2501.0904" y1="177.3921" x2="2696.3394" y2="278.9076" id="Stroke-133" stroke-dasharray="150,30,60,15,7.5,15"></line>
                    <line x1="2161.3476" y1="0.75255" x2="2354.6451" y2="101.25255" id="Stroke-135" stroke-dasharray="150,30,60,15,7.5,15"></line>
                    <line x1="2298.05415" y1="0.75255" x2="2583.12765" y2="148.96905" id="Stroke-137" stroke-dasharray="150,30,60,15,7.5,15"></line>
                    <line x1="2379.5229" y1="433.9932" x2="2211.3789" y2="522.3492" id="Stroke-139" stroke-dasharray="150,30,60,15,7.5,15"></line>
                    <line x1="2160.7017" y1="194.98635" x2="2102.1957" y2="226.24485" id="Stroke-141" stroke-dasharray="150,30,60,15,7.5,15"></line>
                    <line x1="2087.70855" y1="233.6568" x2="1694.55405" y2="440.2518" id="Stroke-143" stroke-dasharray="150,30,60,15,7.5,15"></line>
                    <line x1="2493.7617" y1="855.71445" x2="1715.9982" y2="459.40545" id="Stroke-145" stroke-dasharray="105,60,60,15,7.5,15"></line>
                    <line x1="2693.16645" y1="727.38975" x2="2599.73295" y2="679.77975" id="Stroke-147" stroke-dasharray="150,30,60,15,7.5,15"></line>
                    <line x1="2725.3359" y1="553.3296" x2="1661.5794" y2="0.7506" id="Stroke-149" stroke-dasharray="150,30,60,15,7.5,15"></line>
                    <line x1="1775.15475" y1="395.83695" x2="1775.15475" y2="177.39195" id="Stroke-153" stroke-dasharray="150,30,60,15,7.5,15"></line>
                    <line x1="2392.3389" y1="316.7853" x2="2392.3389" y2="208.1268" id="Stroke-155" stroke-dasharray="150,30,60,15,7.5,15"></line>
                    <line x1="2143.91895" y1="93.8799" x2="2143.91895" y2="0.7524" id="Stroke-157" stroke-dasharray="150,30,60,15,7.5,15"></line>
                    <line x1="2211.37935" y1="74.86035" x2="2211.37935" y2="0.75285" id="Stroke-159" stroke-dasharray="150,30,60,15,7.5,15"></line>
                    <line x1="1411.82805" y1="211.5054" x2="1094.53605" y2="371.8374" id="Stroke-161" stroke-dasharray="150,30,60,15,7.5,15"></line>
                    <line x1="1872.03225" y1="0.75255" x2="1544.96325" y2="166.06155" id="Stroke-163" stroke-dasharray="150,30,60,15,7.5,15"></line>
                    <line x1="1970.77155" y1="161.36235" x2="1639.69905" y2="327.79485" id="Stroke-165" stroke-dasharray="150,30,60,15,7.5,15"></line>
                    <path d="M1657.3491,286.1979 C1657.3491,328.3794 1627.5501,345.3699 1590.7911,324.1464 C1554.0306,302.9229 1524.2316,251.5239 1524.2316,209.3424 C1524.2316,167.1624 1554.0306,150.1704 1590.7911,171.3954 C1627.5501,192.6174 1657.3491,244.0179 1657.3491,286.1979 Z" id="Stroke-167" stroke-dasharray="150,30,60,15,7.5,15"></path>
                    <path d="M2070.12165,49.12605 C2058.01065,56.09355 2041.24815,55.05405 2022.72765,44.36055 C2006.33188,34.8944486 1991.314,19.4536498 1979.68183,1.50018589" id="Stroke-169" stroke-dasharray="150,30,60,15,7.5,15"></path>
                    <path d="M2089.47594,1.39023363 C2089.56027,3.01645976 2089.60305,4.6316096 2089.60305,6.23355 C2089.60305,14.15805 2088.55455,21.19605 2086.61355,27.26355" id="Stroke-171" stroke-dasharray="150,30,60,15,7.5,15"></path>
                    <line x1="397.872" y1="218.96295" x2="21.4815" y2="408.17745" id="Stroke-173" stroke-dasharray="150,30,60,15,7.5,15"></line>
                    <line x1="488.40525" y1="384.05385" x2="116.21775" y2="569.90835" id="Stroke-175" stroke-dasharray="150,30,60,15,7.5,15"></line>
                    <path d="M510.01305,340.1187 C510.01305,382.4997 480.07305,399.5697 443.13855,378.2457 C406.20555,356.9217 376.26405,305.2782 376.26405,262.8987 C376.26405,220.5177 406.20555,203.4462 443.13855,224.7702 C480.07305,246.0927 510.01305,297.7362 510.01305,340.1187 Z" id="Stroke-179" stroke-dasharray="150,30,60,15,7.5,15"></path>
                    <line x1="2464.19235" y1="519.4947" x2="2832.28035" y2="710.8707" id="Stroke-181" stroke-dasharray="150,30,60,15,7.5,15"></line>
                    <line x1="2751.80715" y1="305.6436" x2="3090.19215" y2="481.5771" id="Stroke-183" stroke-dasharray="150,30,60,15,7.5,15"></line>
                    <line x1="2862.64455" y1="23.36385" x2="3180.44205" y2="188.59335" id="Stroke-185" stroke-dasharray="150,30,60,15,7.5,15"></line>
                    <line x1="2809.6347" y1="300.3042" x2="2411.3817" y2="509.5782" id="Stroke-187" stroke-dasharray="150,30,60,15,7.5,15"></line>
                    <line x1="2835.753" y1="248.53965" x2="3245.265" y2="461.45265" id="Stroke-189" stroke-dasharray="150,30,60,15,7.5,15"></line>
                    <line x1="2900.0844" y1="209.043" x2="3318.0639" y2="426.36" id="Stroke-191" stroke-dasharray="150,30,60,15,7.5,15"></line>
                    <line x1="2974.7256" y1="209.7696" x2="2835.7536" y2="284.5281" id="Stroke-195" stroke-dasharray="150,30,60,15,7.5,15"></line>
                    <line x1="2383.16745" y1="685.06305" x2="2799.74745" y2="901.65255" id="Stroke-197" stroke-dasharray="105,60,60,15,7.5,15"></line>
                    <line x1="3061.81785" y1="739.107" x2="2757.19035" y2="901.6515" id="Stroke-199" stroke-dasharray="105,60,60,15,7.5,15"></line>
                    <line x1="2875.3227" y1="631.6695" x2="2579.8362" y2="786.942" id="Stroke-203" stroke-dasharray="150,30,60,15,7.5,15"></line>
                    <line x1="2626.44135" y1="926.3403" x2="2531.12835" y2="876.9633" id="Stroke-205" stroke-dasharray="105,60,60,15,7.5,15"></line>
                    <line x1="3203.5137" y1="1225.28865" x2="2737.6512" y2="983.95065" id="Stroke-207" stroke-dasharray="105,60,60,15,7.5,15"></line>
                    <line x1="2933.85495" y1="561.1929" x2="2622.34695" y2="399.6699" id="Stroke-209" stroke-dasharray="150,30,60,15,7.5,15"></line>
                    <line x1="2776.7871" y1="395.83695" x2="2776.7871" y2="298.28445" id="Stroke-211" stroke-dasharray="105,60,60,15,7.5,15"></line>
                    <line x1="2776.7871" y1="910.92" x2="2776.7871" y2="631.6695" id="Stroke-213" stroke-dasharray="105,60,60,15,7.5,15"></line>
                    <line x1="3022.04295" y1="1213.2402" x2="2899.17495" y2="1277.8062" id="Stroke-219" stroke-dasharray="105,60,60,15,7.5,15"></line>
                    <line x1="1812.60345" y1="736.20225" x2="1782.34545" y2="752.10375" id="Stroke-221" stroke-dasharray="105,60,60,15,7.5,15"></line>
                    <line x1="2525.8404" y1="590.76375" x2="2525.8404" y2="449.63775" id="Stroke-225" stroke-dasharray="150,30,60,15,7.5,15"></line>
                    <line x1="2869.93365" y1="302.8677" x2="2869.93365" y2="244.4097" id="Stroke-233" stroke-dasharray="150,30,60,15,7.5,15"></line>
                    <path d="M2576.95455,359.9541 C2576.95455,377.4726 2564.57805,384.5271 2549.31105,375.7131 C2534.04705,366.9006 2521.67055,345.5526 2521.67055,328.0371 C2521.67055,310.5186 2534.04705,303.4626 2549.31105,312.2766 C2564.57805,321.0906 2576.95455,342.4356 2576.95455,359.9541 Z" id="Stroke-235" stroke-dasharray="150,30,60,15,7.5,15"></path>
                    <path d="M2721.2769,138.9795 C2721.2769,156.498 2708.9019,163.554 2693.6349,154.74 C2678.3709,145.926 2665.9944,124.5795 2665.9944,107.0625 C2665.9944,89.544 2678.3709,82.488 2693.6349,91.302 C2708.9019,100.116 2721.2769,121.461 2721.2769,138.9795 Z" id="Stroke-237" stroke-dasharray="150,30,60,15,7.5,15"></path>
                    <line x1="1299.681" y1="48.8931" x2="1403.8365" y2="103.0461" id="Stroke-243" stroke-dasharray="150,30,60,15,7.5,15"></line>
                    <line x1="1568.7642" y1="0.75255" x2="1775.1552" y2="108.05955" id="Stroke-245" stroke-dasharray="150,30,60,15,7.5,15"></line>
                    <line x1="617.1489" y1="1175.0298" x2="549.6579" y2="1210.4958" id="Stroke-247" stroke-dasharray="105,60,60,15,7.5,15"></line>
                </g>
            </g>
        </g>
    </g>
</svg>