<?xml version="1.0" encoding="UTF-8"?>
<svg width="2560px" height="1442px" viewBox="0 0 2560 1442" version="1.1" xmlns="http://www.w3.org/2000/svg" xmlns:xlink="http://www.w3.org/1999/xlink">
    <!-- Generator: Sketch 60.1 (88133) - https://sketch.com -->
    <title>background-main</title>
    <desc>Created with Sketch.</desc>
    <defs>
        <rect id="path-1" x="0" y="0" width="2560" height="1442"></rect>
        <linearGradient x1="50%" y1="9.97548296%" x2="50%" y2="99.7788683%" id="linearGradient-3">
            <stop stop-color="#CE1010" offset="0%"></stop>
            <stop stop-color="#9D1212" offset="99.9181799%"></stop>
        </linearGradient>
        <linearGradient x1="50%" y1="9.6303304%" x2="50%" y2="99.7141409%" id="linearGradient-4">
            <stop stop-color="#F63F18" offset="0%"></stop>
            <stop stop-color="#950F0F" offset="99.9366554%"></stop>
        </linearGradient>
        <linearGradient x1="50%" y1="-7.62502133%" x2="50%" y2="76.062468%" id="linearGradient-5">
            <stop stop-color="#132532" offset="0%"></stop>
            <stop stop-color="#132532" stop-opacity="0" offset="100%"></stop>
        </linearGradient>
        <linearGradient x1="50%" y1="0%" x2="50%" y2="91.6085379%" id="linearGradient-6">
            <stop stop-color="#E5E5E5" offset="0%"></stop>
            <stop stop-color="#FFFFFF" offset="100%"></stop>
        </linearGradient>
    </defs>
    <g id="background-main" stroke="none" stroke-width="1" fill="none" fill-rule="evenodd">
        <g id="background">
            <mask id="mask-2" fill="white">
                <use xlink:href="#path-1"></use>
            </mask>
            <use fill="#FFFFFF" xlink:href="#path-1"></use>
            <g id="background-main" mask="url(#mask-2)">
                <g transform="translate(-374.000000, 0.000000)">
                    <rect id="Rectangle" fill="#FFFFFF" fill-rule="nonzero" x="431" y="0" width="2560" height="1442"></rect>
                    <g id="lines-header-bg" opacity="0.2" stroke-linecap="round" stroke-linejoin="round" stroke-width="1" fill="none" fill-rule="evenodd">
                        <g id="Group-249" stroke="#000000">
                            <line x1="1290.98865" y1="884.5866" x2="1290.98865" y2="1017.49545" id="Stroke-1" stroke-dasharray="105,60,60,15,7.5,15"></line>
                            <line x1="1935.4746" y1="777.72165" x2="1935.4746" y2="1051.12665" id="Stroke-3" stroke-dasharray="105,60,60,15,7.5,15"></line>
                            <line x1="1935.4746" y1="229.2447" x2="1935.4746" y2="320.8332" id="Stroke-5" stroke-dasharray="105,60,60,15,7.5,15"></line>
                            <line x1="1228.5804" y1="433.9932" x2="1582.3584" y2="612.1797" id="Stroke-7" stroke-dasharray="150,30,60,15,7.5,15"></line>
                            <line x1="1110.87435" y1="833.7798" x2="1389.69585" y2="978.7458" id="Stroke-9" stroke-dasharray="105,60,60,15,7.5,15"></line>
                            <line x1="2201.127" y1="519.4947" x2="1936.362" y2="656.0052" id="Stroke-11" stroke-dasharray="150,30,60,15,7.5,15"></line>
                            <line x1="2472.315" y1="298.32675" x2="2297.8335" y2="388.95525" id="Stroke-13" stroke-dasharray="150,30,60,15,7.5,15"></line>
                            <line x1="757.056" y1="0.75255" x2="740.9025" y2="9.13605" id="Stroke-15" stroke-dasharray="150,30,60,15,7.5,15"></line>
                            <line x1="345.01305" y1="320.8326" x2="649.64055" y2="484.5786" id="Stroke-17" stroke-dasharray="150,30,60,15,7.5,15"></line>
                            <line x1="1640.91645" y1="616.2447" x2="1072.13145" y2="922.8297" id="Stroke-19" stroke-dasharray="105,60,60,15,7.5,15"></line>
                            <line x1="1479.5244" y1="470.10315" x2="1362.9249" y2="531.60615" id="Stroke-21" stroke-dasharray="150,30,60,15,7.5,15"></line>
                            <line x1="1110.87435" y1="833.7798" x2="1389.69585" y2="978.7458" id="Stroke-23" stroke-dasharray="105,60,60,15,7.5,15"></line>
                            <line x1="1021.6962" y1="497.42535" x2="1449.0957" y2="719.63985" id="Stroke-25" stroke-dasharray="150,30,60,15,7.5,15"></line>
                            <line x1="1557.88035" y1="786.9897" x2="1192.96785" y2="978.7452" id="Stroke-27" stroke-dasharray="105,60,60,15,7.5,15"></line>
                            <line x1="1626.13035" y1="864.6807" x2="1805.77185" y2="958.3917" id="Stroke-29" stroke-dasharray="105,60,60,15,7.5,15"></line>
                            <line x1="2318.45355" y1="828.05085" x2="2100.76305" y2="941.12235" id="Stroke-31" stroke-dasharray="105,60,60,15,7.5,15"></line>
                            <line x1="1758.75" y1="870.1416" x2="2035.125" y2="1014.05475" id="Stroke-33" stroke-dasharray="105,60,60,15,7.5,15"></line>
                            <line x1="2445.50835" y1="1049.358" x2="2664.01035" y2="1162.962" id="Stroke-35" stroke-dasharray="105,60,60,15,7.5,15"></line>
                            <line x1="2758.4781" y1="1207.69875" x2="2850.2766" y2="1255.42575" id="Stroke-37" stroke-dasharray="105,60,60,15,7.5,15"></line>
                            <line x1="2272.55565" y1="946.91115" x2="2318.45415" y2="970.77465" id="Stroke-39" stroke-dasharray="105,60,60,15,7.5,15"></line>
                            <line x1="2005.31985" y1="926.3403" x2="1838.39685" y2="1014.0558" id="Stroke-41" stroke-dasharray="105,60,60,15,7.5,15"></line>
                            <line x1="897.4599" y1="0.75255" x2="1001.6859" y2="54.94155" id="Stroke-47" stroke-dasharray="150,30,60,15,7.5,15"></line>
                            <line x1="1044.4584" y1="1.983" x2="1109.3739" y2="35.886" id="Stroke-49" stroke-dasharray="150,30,60,15,7.5,15"></line>
                            <line x1="1044.4584" y1="1.983" x2="943.0584" y2="56.601" id="Stroke-51" stroke-dasharray="150,30,60,15,7.5,15"></line>
                            <line x1="494.0727" y1="99.4683" x2="912.0522" y2="316.7853" id="Stroke-53" stroke-dasharray="150,30,60,15,7.5,15"></line>
                            <line x1="899.4462" y1="289.26525" x2="673.1562" y2="408.17625" id="Stroke-57" stroke-dasharray="150,30,60,15,7.5,15"></line>
                            <line x1="1007.31585" y1="229.2345" x2="921.75735" y2="274.9485" id="Stroke-59" stroke-dasharray="150,30,60,15,7.5,15"></line>
                            <line x1="719.60145" y1="19.78665" x2="580.92345" y2="93.88065" id="Stroke-61" stroke-dasharray="150,30,60,15,7.5,15"></line>
                            <line x1="566.05515" y1="101.48835" x2="260.77815" y2="261.90435" id="Stroke-63" stroke-dasharray="150,30,60,15,7.5,15"></line>
                            <line x1="1110.87435" y1="833.7798" x2="353.35035" y2="433.9938" id="Stroke-67" stroke-dasharray="105,60,60,15,7.5,15"></line>
                            <line x1="679.5615" y1="112.33995" x2="464.3565" y2="0.75195" id="Stroke-69" stroke-dasharray="150,30,60,15,7.5,15"></line>
                            <line x1="1500.0279" y1="401.06505" x2="1134.1374" y2="216.83055" id="Stroke-71" stroke-dasharray="150,30,60,15,7.5,15"></line>
                            <line x1="2293.4532" y1="0.75255" x2="2651.1762" y2="186.74055" id="Stroke-73" stroke-dasharray="150,30,60,15,7.5,15"></line>
                            <line x1="2921.1489" y1="0.75105" x2="2523.3819" y2="209.77005" id="Stroke-75" stroke-dasharray="150,30,60,15,7.5,15"></line>
                            <line x1="2610.39105" y1="186.74085" x2="2610.39105" y2="0.75285" id="Stroke-77" stroke-dasharray="150,30,60,15,7.5,15"></line>
                            <line x1="2461.44135" y1="319.1451" x2="2461.44135" y2="0.7521" id="Stroke-79" stroke-dasharray="150,30,60,15,7.5,15"></line>
                            <line x1="879.36765" y1="324.1974" x2="879.36765" y2="233.6574" id="Stroke-83" stroke-dasharray="150,30,60,15,7.5,15"></line>
                            <line x1="1044.4584" y1="148.9683" x2="1044.4584" y2="1.9833" id="Stroke-85" stroke-dasharray="150,30,60,15,7.5,15"></line>
                            <line x1="622.21425" y1="1039.32675" x2="679.56075" y2="1069.14375" id="Stroke-89" stroke-dasharray="105,60,60,15,7.5,15"></line>
                            <line x1="506.6586" y1="664.8951" x2="643.7856" y2="736.1886" id="Stroke-91" stroke-dasharray="150,30,60,15,7.5,15"></line>
                            <line x1="615.0453" y1="708.23685" x2="568.9398" y2="732.46335" id="Stroke-97" stroke-dasharray="105,60,60,15,7.5,15"></line>
                            <line x1="1129.8558" y1="433.9932" x2="673.1553" y2="673.9812" id="Stroke-99" stroke-dasharray="105,60,60,15,7.5,15"></line>
                            <line x1="529.25385" y1="212.2701" x2="733.96635" y2="318.7041" id="Stroke-101" stroke-dasharray="150,30,60,15,7.5,15"></line>
                            <line x1="573.03945" y1="443.40345" x2="447.88395" y2="509.17095" id="Stroke-103" stroke-dasharray="150,30,60,15,7.5,15"></line>
                            <line x1="740.90325" y1="280.91415" x2="611.86725" y2="348.72015" id="Stroke-105" stroke-dasharray="150,30,60,15,7.5,15"></line>
                            <line x1="432.50385" y1="992.541" x2="0.06885" y2="1219.779" id="Stroke-107" stroke-dasharray="105,60,60,15,7.5,15"></line>
                            <line x1="1148.60295" y1="616.2447" x2="572.89845" y2="918.7677" id="Stroke-109" stroke-dasharray="105,60,60,15,7.5,15"></line>
                            <line x1="845.9193" y1="952.4439" x2="145.4748" y2="589.2504" id="Stroke-113" stroke-dasharray="105,60,60,15,7.5,15"></line>
                            <line x1="1121.9706" y1="1003.91265" x2="902.4141" y2="890.06865" id="Stroke-115" stroke-dasharray="105,60,60,15,7.5,15"></line>
                            <line x1="471.93015" y1="555.354" x2="471.93015" y2="496.6815" id="Stroke-119" stroke-dasharray="150,30,60,15,7.5,15"></line>
                            <line x1="1610.15475" y1="257.36235" x2="1847.81775" y2="380.92785" id="Stroke-121" stroke-dasharray="150,30,60,15,7.5,15"></line>
                            <line x1="2169.43215" y1="194.05335" x2="2295.50565" y2="259.60185" id="Stroke-123" stroke-dasharray="150,30,60,15,7.5,15"></line>
                            <line x1="2257.24515" y1="209.16315" x2="2031.48915" y2="327.79515" id="Stroke-125" stroke-dasharray="150,30,60,15,7.5,15"></line>
                            <line x1="2461.44135" y1="0.75255" x2="2332.63035" y2="68.45055" id="Stroke-127" stroke-dasharray="150,30,60,15,7.5,15"></line>
                            <line x1="2978.0244" y1="42.9825" x2="2768.8554" y2="152.913" id="Stroke-129" stroke-dasharray="150,30,60,15,7.5,15"></line>
                            <line x1="1805.77155" y1="92.5821" x2="1599.24255" y2="200.8551" id="Stroke-131" stroke-dasharray="150,30,60,15,7.5,15"></line>
                            <line x1="2336.0904" y1="177.3921" x2="2531.3394" y2="278.9076" id="Stroke-133" stroke-dasharray="150,30,60,15,7.5,15"></line>
                            <line x1="1996.3476" y1="0.75255" x2="2189.6451" y2="101.25255" id="Stroke-135" stroke-dasharray="150,30,60,15,7.5,15"></line>
                            <line x1="2133.05415" y1="0.75255" x2="2418.12765" y2="148.96905" id="Stroke-137" stroke-dasharray="150,30,60,15,7.5,15"></line>
                            <line x1="2214.5229" y1="433.9932" x2="2046.3789" y2="522.3492" id="Stroke-139" stroke-dasharray="150,30,60,15,7.5,15"></line>
                            <line x1="1995.7017" y1="194.98635" x2="1937.1957" y2="226.24485" id="Stroke-141" stroke-dasharray="150,30,60,15,7.5,15"></line>
                            <line x1="1922.70855" y1="233.6568" x2="1529.55405" y2="440.2518" id="Stroke-143" stroke-dasharray="150,30,60,15,7.5,15"></line>
                            <line x1="2328.7617" y1="855.71445" x2="1550.9982" y2="459.40545" id="Stroke-145" stroke-dasharray="105,60,60,15,7.5,15"></line>
                            <line x1="2528.16645" y1="727.38975" x2="2434.73295" y2="679.77975" id="Stroke-147" stroke-dasharray="150,30,60,15,7.5,15"></line>
                            <line x1="2560.3359" y1="553.3296" x2="1496.5794" y2="0.7506" id="Stroke-149" stroke-dasharray="150,30,60,15,7.5,15"></line>
                            <line x1="1610.15475" y1="395.83695" x2="1610.15475" y2="177.39195" id="Stroke-153" stroke-dasharray="150,30,60,15,7.5,15"></line>
                            <line x1="2227.3389" y1="316.7853" x2="2227.3389" y2="208.1268" id="Stroke-155" stroke-dasharray="150,30,60,15,7.5,15"></line>
                            <line x1="1978.91895" y1="93.8799" x2="1978.91895" y2="0.7524" id="Stroke-157" stroke-dasharray="150,30,60,15,7.5,15"></line>
                            <line x1="2046.37935" y1="74.86035" x2="2046.37935" y2="0.75285" id="Stroke-159" stroke-dasharray="150,30,60,15,7.5,15"></line>
                            <line x1="1246.82805" y1="211.5054" x2="929.53605" y2="371.8374" id="Stroke-161" stroke-dasharray="150,30,60,15,7.5,15"></line>
                            <line x1="1707.03225" y1="0.75255" x2="1379.96325" y2="166.06155" id="Stroke-163" stroke-dasharray="150,30,60,15,7.5,15"></line>
                            <line x1="1805.77155" y1="161.36235" x2="1474.69905" y2="327.79485" id="Stroke-165" stroke-dasharray="150,30,60,15,7.5,15"></line>
                            <path d="M1492.3491,286.1979 C1492.3491,328.3794 1462.5501,345.3699 1425.7911,324.1464 C1389.0306,302.9229 1359.2316,251.5239 1359.2316,209.3424 C1359.2316,167.1624 1389.0306,150.1704 1425.7911,171.3954 C1462.5501,192.6174 1492.3491,244.0179 1492.3491,286.1979 Z" id="Stroke-167" stroke-dasharray="150,30,60,15,7.5,15"></path>
                            <path d="M1905.12165,49.12605 C1893.01065,56.09355 1876.24815,55.05405 1857.72765,44.36055 C1841.33188,34.8944486 1826.314,19.4536498 1814.68183,1.50018589" id="Stroke-169" stroke-dasharray="150,30,60,15,7.5,15"></path>
                            <path d="M1924.47594,1.39023363 C1924.56027,3.01645976 1924.60305,4.6316096 1924.60305,6.23355 C1924.60305,14.15805 1923.55455,21.19605 1921.61355,27.26355" id="Stroke-171" stroke-dasharray="150,30,60,15,7.5,15"></path>
                            <line x1="2299.19235" y1="519.4947" x2="2667.28035" y2="710.8707" id="Stroke-181" stroke-dasharray="150,30,60,15,7.5,15"></line>
                            <line x1="2586.80715" y1="305.6436" x2="2925.19215" y2="481.5771" id="Stroke-183" stroke-dasharray="150,30,60,15,7.5,15"></line>
                            <line x1="2697.64455" y1="23.36385" x2="3015.44205" y2="188.59335" id="Stroke-185" stroke-dasharray="150,30,60,15,7.5,15"></line>
                            <line x1="2644.6347" y1="300.3042" x2="2246.3817" y2="509.5782" id="Stroke-187" stroke-dasharray="150,30,60,15,7.5,15"></line>
                            <line x1="2670.753" y1="248.53965" x2="3080.265" y2="461.45265" id="Stroke-189" stroke-dasharray="150,30,60,15,7.5,15"></line>
                            <line x1="2735.0844" y1="209.043" x2="3153.0639" y2="426.36" id="Stroke-191" stroke-dasharray="150,30,60,15,7.5,15"></line>
                            <line x1="2809.7256" y1="209.7696" x2="2670.7536" y2="284.5281" id="Stroke-195" stroke-dasharray="150,30,60,15,7.5,15"></line>
                            <line x1="2218.16745" y1="685.06305" x2="2634.74745" y2="901.65255" id="Stroke-197" stroke-dasharray="105,60,60,15,7.5,15"></line>
                            <line x1="2896.81785" y1="739.107" x2="2592.19035" y2="901.6515" id="Stroke-199" stroke-dasharray="105,60,60,15,7.5,15"></line>
                            <line x1="2710.3227" y1="631.6695" x2="2414.8362" y2="786.942" id="Stroke-203" stroke-dasharray="150,30,60,15,7.5,15"></line>
                            <line x1="2461.44135" y1="926.3403" x2="2366.12835" y2="876.9633" id="Stroke-205" stroke-dasharray="105,60,60,15,7.5,15"></line>
                            <line x1="3038.5137" y1="1225.28865" x2="2572.6512" y2="983.95065" id="Stroke-207" stroke-dasharray="105,60,60,15,7.5,15"></line>
                            <line x1="2768.85495" y1="561.1929" x2="2457.34695" y2="399.6699" id="Stroke-209" stroke-dasharray="150,30,60,15,7.5,15"></line>
                            <line x1="2611.7871" y1="395.83695" x2="2611.7871" y2="298.28445" id="Stroke-211" stroke-dasharray="105,60,60,15,7.5,15"></line>
                            <line x1="2611.7871" y1="910.92" x2="2611.7871" y2="631.6695" id="Stroke-213" stroke-dasharray="105,60,60,15,7.5,15"></line>
                            <line x1="2796.8847" y1="892.51125" x2="2887.3017" y2="939.52125" id="Stroke-215" stroke-dasharray="105,60,60,15,7.5,15"></line>
                            <line x1="3139.0137" y1="776.8545" x2="2826.4107" y2="941.1225" id="Stroke-217" stroke-dasharray="105,60,60,15,7.5,15"></line>
                            <line x1="2857.04295" y1="1213.2402" x2="2734.17495" y2="1277.8062" id="Stroke-219" stroke-dasharray="105,60,60,15,7.5,15"></line>
                            <line x1="1647.60345" y1="736.20225" x2="1617.34545" y2="752.10375" id="Stroke-221" stroke-dasharray="105,60,60,15,7.5,15"></line>
                            <line x1="2858.5767" y1="946.91115" x2="2858.5767" y2="608.53215" id="Stroke-223" stroke-dasharray="105,60,60,15,7.5,15"></line>
                            <line x1="2360.8404" y1="590.76375" x2="2360.8404" y2="449.63775" id="Stroke-225" stroke-dasharray="150,30,60,15,7.5,15"></line>
                            <line x1="2704.93365" y1="302.8677" x2="2704.93365" y2="244.4097" id="Stroke-233" stroke-dasharray="150,30,60,15,7.5,15"></line>
                            <path d="M2411.95455,359.9541 C2411.95455,377.4726 2399.57805,384.5271 2384.31105,375.7131 C2369.04705,366.9006 2356.67055,345.5526 2356.67055,328.0371 C2356.67055,310.5186 2369.04705,303.4626 2384.31105,312.2766 C2399.57805,321.0906 2411.95455,342.4356 2411.95455,359.9541 Z" id="Stroke-235" stroke-dasharray="150,30,60,15,7.5,15"></path>
                            <path d="M2556.2769,138.9795 C2556.2769,156.498 2543.9019,163.554 2528.6349,154.74 C2513.3709,145.926 2500.9944,124.5795 2500.9944,107.0625 C2500.9944,89.544 2513.3709,82.488 2528.6349,91.302 C2543.9019,100.116 2556.2769,121.461 2556.2769,138.9795 Z" id="Stroke-237" stroke-dasharray="150,30,60,15,7.5,15"></path>
                            <line x1="3202.92045" y1="265.42335" x2="2819.48295" y2="467.79285" id="Stroke-239" stroke-dasharray="150,30,60,15,7.5,15"></line>
                            <line x1="1134.681" y1="48.8931" x2="1238.8365" y2="103.0461" id="Stroke-243" stroke-dasharray="150,30,60,15,7.5,15"></line>
                            <line x1="1403.7642" y1="0.75255" x2="1610.1552" y2="108.05955" id="Stroke-245" stroke-dasharray="150,30,60,15,7.5,15"></line>
                            <line x1="452.1489" y1="1175.0298" x2="384.6579" y2="1210.4958" id="Stroke-247" stroke-dasharray="105,60,60,15,7.5,15"></line>
                        </g>
                    </g>
                    <g id="Group" stroke-width="1" fill="none" fill-rule="evenodd" transform="translate(1213.000000, 251.000000)">
                        <g id="arrow-optics-header-copy">
                            <g id="around-logo" opacity="0.2" stroke-linecap="round" stroke-linejoin="round" stroke-dasharray="280,56,112,28,14,28" stroke="#000000" stroke-width="1.4">
                                <g id="image">
                                    <path d="M657.311005,712.801477 C761.565557,642.974308 830.2,524.10237 830.2,389.2 C830.2,174.250776 655.949224,0 441,0 C226.050776,0 51.8,174.250776 51.8,389.2 C51.8,524.529061 120.869306,643.726121 225.679321,713.462585" id="Shape"></path>
                                    <path d="M119,711.2 L119,67.2 L119,67.2 L763,67.2 L763,711.2" id="Path"></path>
                                    <line x1="440.108935" y1="50.4" x2="0" y2="939.611918" id="Line-2"></line>
                                    <line x1="883.400001" y1="56.80948" x2="440.108936" y2="939.611918" id="Line-2-Copy" transform="translate(661.754469, 498.210699) scale(-1, 1) translate(-661.754469, -498.210699) "></line>
                                    <line x1="440.108935" y1="585.2" x2="799.4" y2="778.4" id="Path-6"></line>
                                    <line x1="79.8" y1="585.2" x2="440.108936" y2="778.4" id="Path-6-Copy" transform="translate(259.954468, 681.800000) scale(-1, 1) translate(-259.954468, -681.800000) "></line>
                                </g>
                            </g>
                            <g id="logos/arrow-optics/color" transform="translate(172.200000, 50.400000)">
                                <polygon id="Path-Copy" fill="url(#linearGradient-3)" fill-rule="nonzero" points="268.8 0 0 537.6 279.075782 398.3"></polygon>
                                <polygon id="Path-Copy-2" fill="url(#linearGradient-4)" fill-rule="nonzero" transform="translate(403.200000, 268.800000) scale(-1, 1) translate(-403.200000, -268.800000) " points="537.6 0 268.8 537.6 537.6 403.2"></polygon>
                                <rect id="bound-copy" opacity="0.261579241" x="190.4" y="313.6" width="156.8" height="156.8"></rect>
                                <polygon id="Path-5-Copy-5" fill-opacity="0.7" fill="url(#linearGradient-5)" fill-rule="nonzero" points="0 537.6 268.816748 403.2 537.6 537.6 268.8 659.53125"></polygon>
                                <polygon id="Path-Copy" fill="#FFFFFF" fill-rule="nonzero" points="269.245094 268.8 134.4 537.6 274.4 467.95"></polygon>
                                <polygon id="Path-Copy-2" fill="url(#linearGradient-6)" fill-rule="nonzero" transform="translate(336.000000, 403.200000) scale(-1, 1) translate(-336.000000, -403.200000) " points="403.2 268.8 268.8 537.6 403.2 470.4"></polygon>
                            </g>
                        </g>
                        <path d="M269.612,775.6 L256.004,775.6 L256.004,766.276 C256.004,749.559916 261.631944,721.798195 272.888,682.99 L288.512,682.99 L289.595183,686.751216 C300.129112,723.596996 305.396,750.105006 305.396,766.276 L305.396,775.6 L291.788,775.6 L291.788,766.276 C291.788,762.831983 291.578003,758.884022 291.158,754.432 L270.242,754.432 C269.821997,758.884022 269.612,762.831983 269.612,766.276 L269.612,775.6 Z M271.754,742.21 L289.646,742.21 L289.331668,740.05246 C287.537218,728.041177 284.66002,713.640484 280.7,696.85 C276.499979,714.65809 273.518008,729.777938 271.754,742.21 Z M333.004,775.6 L333.004,682.99 L357.196,682.99 C360.808018,682.99 364.335983,683.619994 367.78,684.88 C371.224017,686.140007 374.184987,688.155986 376.663,690.928 C379.141013,693.700014 380.883994,696.849982 381.892,700.378 C382.900006,703.906018 383.404,707.475982 383.404,711.088 C383.404,714.700018 382.900006,718.248983 381.892,721.735 C380.946996,725.003142 379.337557,727.957471 377.063642,730.598064 L376.6,731.122 C374.66799,733.39 372.400013,735.153993 369.796,736.414 C383.404069,751.702077 390.208,764.763945 390.208,775.6 L376.6,775.6 C376.6,765.687951 369.292073,753.508073 354.676,739.06 L346.612,739.06 L346.612,775.6 L333.004,775.6 Z M357.196,726.838 C359.04401,726.838 360.849992,726.418004 362.614,725.578 C364.378008,724.737996 365.805994,723.520008 366.898,721.924 C367.990006,720.327992 368.745997,718.58501 369.166,716.695 C369.586003,714.80499 369.796,712.91501 369.796,711.025 C369.796,709.13499 369.586003,707.24501 369.166,705.355 C368.745997,703.46499 367.990006,701.722008 366.898,700.126 C365.805994,698.529992 364.378008,697.312 362.614,696.472 C360.849992,695.631996 359.04401,695.212 357.196,695.212 L346.612,695.212 L346.612,726.838 L357.196,726.838 Z M410.004,775.6 L410.004,682.99 L434.196,682.99 C437.808018,682.99 441.335983,683.619994 444.78,684.88 C448.224017,686.140007 451.184987,688.155986 453.663,690.928 C456.141013,693.700014 457.883994,696.849982 458.892,700.378 C459.900006,703.906018 460.404,707.475982 460.404,711.088 C460.404,714.700018 459.900006,718.248983 458.892,721.735 C457.946996,725.003142 456.337557,727.957471 454.063642,730.598064 L453.6,731.122 C451.66799,733.39 449.400013,735.153993 446.796,736.414 C460.404069,751.702077 467.208,764.763945 467.208,775.6 L453.6,775.6 C453.6,765.687951 446.292073,753.508073 431.676,739.06 L423.612,739.06 L423.612,775.6 L410.004,775.6 Z M434.196,726.838 C436.04401,726.838 437.849992,726.418004 439.614,725.578 C441.378008,724.737996 442.805994,723.520008 443.898,721.924 C444.990006,720.327992 445.745997,718.58501 446.166,716.695 C446.586003,714.80499 446.796,712.91501 446.796,711.025 C446.796,709.13499 446.586003,707.24501 446.166,705.355 C445.745997,703.46499 444.990006,701.722008 443.898,700.126 C442.805994,698.529992 441.378008,697.312 439.614,696.472 C437.849992,695.631996 436.04401,695.212 434.196,695.212 L423.612,695.212 L423.612,726.838 L434.196,726.838 Z M511.7,776.608 C508.255983,776.608 504.854017,776.020006 501.494,774.844 C498.133983,773.667994 495.236013,771.799013 492.8,769.237 C490.363987,766.674987 488.621006,763.714017 487.571,760.354 C486.520994,756.993983 485.996,753.550018 485.996,750.022 L485.996,708.568 C485.996,705.039982 486.520994,701.596017 487.571,698.236 C488.621006,694.875983 490.363987,691.915013 492.8,689.353 C495.236013,686.790987 498.133983,684.922006 501.494,683.746 C504.854017,682.569994 508.255983,681.982 511.7,681.982 C515.144017,681.982 518.545983,682.569994 521.906,683.746 C525.266017,684.922006 528.163987,686.790987 530.6,689.353 C533.036013,691.915013 534.778994,694.875983 535.829,698.236 C536.879006,701.596017 537.404,705.039982 537.404,708.568 L537.404,750.022 C537.404,753.550018 536.879006,756.993983 535.829,760.354 C534.778994,763.714017 533.036013,766.674987 530.6,769.237 C528.163987,771.799013 525.266017,773.667994 521.906,774.844 C518.545983,776.020006 515.144017,776.608 511.7,776.608 Z M511.7,764.386 C514.052011,764.386 516.25699,763.714007 518.315,762.37 C520.37301,761.025993 521.800996,759.220011 522.599,756.952 C523.397004,754.683989 523.796,752.374011 523.796,750.022 L523.796,708.568 C523.796,706.215989 523.397004,703.906011 522.599,701.638 C521.800996,699.369989 520.37301,697.564007 518.315,696.22 C516.25699,694.875993 514.052011,694.204 511.7,694.204 C509.347989,694.204 507.14301,694.875993 505.085,696.22 C503.02699,697.564007 501.599004,699.369989 500.801,701.638 C500.002996,703.906011 499.604,706.215989 499.604,708.568 L499.604,750.022 C499.604,752.374011 500.002996,754.683989 500.801,756.952 C501.599004,759.220011 503.02699,761.025993 505.085,762.37 C507.14301,763.714007 509.347989,764.386 511.7,764.386 Z M581.392,775.6 L573.076,775.6 L572.221695,771.964679 C565.240283,741.998922 561.703696,720.247924 561.611837,706.711092 L561.61,682.99 L575.218,682.99 L575.218,706.174 C575.218,716.506052 576.351989,731.877898 578.62,752.29 L584.542,720.034 L592.858,720.034 L598.78,752.29 L599.283257,747.668986 C601.215761,729.54282 602.182,715.711279 602.182,706.174 L602.182,682.99 L615.79,682.99 L615.79,706.174 L615.782651,707.256946 C615.594034,721.379646 611.774519,744.160451 604.324,775.6 L596.008,775.6 L588.7,735.658 L581.392,775.6 Z" id="ARROW" fill="#12171A" fill-rule="nonzero"></path>
                        <path d="M362.0848,891.8 L362.0848,832.118 L369.9612,832.118 L378,863.4612 L386.0388,832.118 L393.9152,832.118 L393.9152,891.8 L385.1456,891.8 L385.1456,879.8636 C385.1456,871.851827 385.713994,863.894307 386.8508,855.9908 C387.338003,852.580383 387.716932,849.142951 387.9876,845.6784 L380.6796,873.8548 L375.3204,873.8548 L368.0124,845.6784 C368.228934,848.45004 368.514756,851.204325 368.869871,853.941308 L369.1492,855.9908 C370.286006,863.894307 370.8544,871.851827 370.8544,879.8636 L370.8544,891.8 L362.0848,891.8 Z M406.2772,891.8 L406.2772,832.118 L435.9152,832.118 L435.9152,839.9944 L415.0468,839.9944 L415.0468,855.666 L431.1244,855.666 L431.1244,863.5424 L415.0468,863.5424 L415.0468,883.9236 L435.9152,883.9236 L435.9152,891.8 L406.2772,891.8 Z M457.6152,891.8 L457.6152,839.9944 L445.1104,839.9944 L445.1104,832.118 L478.8896,832.118 L478.8896,839.9944 L466.3848,839.9944 L466.3848,891.8 L457.6152,891.8 Z M509.0344,832.118 L510.001087,835.484292 C516.610527,858.739462 519.9152,875.508276 519.9152,885.7912 L519.9152,891.8 L511.1456,891.8 L511.1456,885.7912 C511.1456,883.571723 511.010268,881.027482 510.7396,878.1584 L497.2604,878.1584 C496.989732,881.027482 496.8544,883.571723 496.8544,885.7912 L496.8544,891.8 L488.0848,891.8 L488.0848,885.7912 C488.0848,875.018613 491.711697,857.127725 498.9656,832.118 L509.0344,832.118 Z M504,841.05 C501.486654,851.706587 499.650141,860.869401 498.490415,868.538679 L498.490415,868.538679 L498.2348,870.282 L509.7652,870.282 C508.709594,862.842497 506.977206,853.909473 504.567988,843.482696 L504.567988,843.482696 L504,841.05 Z" id="META" fill="#D31907" fill-rule="nonzero"></path>
                    </g>
                </g>
            </g>
        </g>
    </g>
</svg>