<?xml version="1.0" encoding="UTF-8"?>
<svg width="310px" height="330px" viewBox="0 0 310 330" version="1.1" xmlns="http://www.w3.org/2000/svg" xmlns:xlink="http://www.w3.org/1999/xlink">
    <!-- Generator: Sketch 58 (84663) - https://sketch.com -->
    <title>Group Copy</title>
    <desc>Created with Sketch.</desc>
    <defs>
        <linearGradient x1="50%" y1="9.97548296%" x2="50%" y2="99.7788683%" id="linearGradient-1">
            <stop stop-color="#CE1010" offset="0%"></stop>
            <stop stop-color="#9D1212" offset="99.9181799%"></stop>
        </linearGradient>
        <linearGradient x1="50%" y1="9.6303304%" x2="50%" y2="99.7141409%" id="linearGradient-2">
            <stop stop-color="#F63F18" offset="0%"></stop>
            <stop stop-color="#950F0F" offset="99.9366554%"></stop>
        </linearGradient>
        <linearGradient x1="50%" y1="-7.62502133%" x2="50%" y2="76.062468%" id="linearGradient-3">
            <stop stop-color="#132532" offset="0%"></stop>
            <stop stop-color="#132532" stop-opacity="0" offset="100%"></stop>
        </linearGradient>
        <linearGradient x1="50%" y1="0%" x2="50%" y2="91.6085379%" id="linearGradient-4">
            <stop stop-color="#E5E5E5" offset="0%"></stop>
            <stop stop-color="#FFFFFF" offset="100%"></stop>
        </linearGradient>
    </defs>
    <g id="Page-1" stroke="none" stroke-width="1" fill="none" fill-rule="evenodd">
        <g id="Group-Copy" transform="translate(-3.000000, 1.000000)">
            <g id="arrow-optics-header-copy">
                <g id="around-logo" opacity="0.2" stroke="#000000" stroke-dasharray="100,20,40,10,5,10" stroke-linecap="round" stroke-linejoin="round" stroke-width="0.5">
                    <g id="image">
                        <path d="M234.75393,254.571956 C271.987699,229.633681 296.5,187.179418 296.5,139 C296.5,62.2324198 234.26758,0 157.5,0 C80.7324198,0 18.5,62.2324198 18.5,139 C18.5,187.331807 43.1676092,229.902186 80.5997576,254.808066" id="Shape"></path>
                        <path d="M42.5,254 L42.5,24 L42.5,24 L272.5,24 L272.5,254" id="Path"></path>
                        <path d="M157.181763,18 L0,335.575685" id="Line-2"></path>
                        <path d="M315.5,20.2891 L157.181763,335.575685" id="Line-2-Copy" transform="translate(236.340881, 177.932393) scale(-1, 1) translate(-236.340881, -177.932393) "></path>
                        <path d="M157.181763,209 L285.5,278" id="Path-6"></path>
                        <path d="M27.8421631,209 L156.523926,278" id="Path-6-Copy" transform="translate(92.511963, 243.587775) scale(-1, 1) translate(-92.511963, -243.587775) "></path>
                    </g>
                </g>
                <g id="logos/arrow-optics/color" transform="translate(61.500000, 18.000000)">
                    <polygon id="Path-Copy" fill="url(#linearGradient-1)" points="96 0 0 192 99.6699219 142.25"></polygon>
                    <polygon id="Path-Copy-2" fill="url(#linearGradient-2)" transform="translate(144.000000, 96.000000) scale(-1, 1) translate(-144.000000, -96.000000) " points="192 0 96 192 192 144"></polygon>
                    <rect id="bound-copy" opacity="0.261579241" x="68" y="112" width="56" height="56"></rect>
                    <polygon id="Path-5-Copy-5" fill-opacity="0.7" fill="url(#linearGradient-3)" points="0 192 96.0059814 144 192 192 96 235.546875"></polygon>
                    <polygon id="Path-Copy" fill="#FFFFFF" points="96.1589622 96 48 192 98 167.125"></polygon>
                    <polygon id="Path-Copy-2" fill="url(#linearGradient-4)" transform="translate(120.000000, 144.000000) scale(-1, 1) translate(-120.000000, -144.000000) " points="144 96 96 192 144 168"></polygon>
                </g>
            </g>
            <text id="ARROW" font-family="Iosevka-Semibold, Iosevka" font-size="45" font-weight="500" letter-spacing="5" fill="#12171A">
                <tspan x="89" y="277">ARROW</tspan>
            </text>
            <text id="META" font-family="Iosevka-Semibold, Iosevka" font-size="29" font-weight="500" letter-spacing="0.5" fill="#D31907">
                <tspan x="127.75" y="317.5">META</tspan>
            </text>
        </g>
    </g>
</svg>