<?xml version="1.0" encoding="UTF-8"?>
<svg width="96px" height="96px" viewBox="0 0 96 96" version="1.1" xmlns="http://www.w3.org/2000/svg" xmlns:xlink="http://www.w3.org/1999/xlink">
    <!-- Generator: Sketch 58 (84663) - https://sketch.com -->
    <title>ide-icon</title>
    <desc>Created with Sketch.</desc>
    <g id="Page-1" stroke="none" stroke-width="1" fill="none" fill-rule="evenodd">
        <path d="M96,0 L96,96 L0,96 L0,0 L96,0 Z M45.12,78 L9.12,78 L9.12,84 L45.12,84 L45.12,78 Z M67.68,12 L58.8,12 L58.8,37.68 C58.9874766,39.4827996 58.4716002,41.2883652 57.36,42.72 C56.4388152,43.8834642 54.9996762,44.5130874 53.52,44.4 C52.1744844,44.454276 50.841678,44.1210744 49.68,43.44 C48.445359,42.622446 47.3167632,41.655078 46.32,40.56 L46.32,40.56 L40.8,46.8 C42.2832012,48.5485422 44.0723796,50.012415 46.08,51.12 C48.5338578,52.3453158 51.2600106,52.9235904 54,52.8 C57.3832578,52.6284444 60.6400494,51.4593402 63.36,49.44 C64.9273146,48.0081846 66.0867474,46.1862192 66.72,44.16 C67.444917,42.1627758 67.7710734,40.042761 67.68,37.92 L67.68,37.92 L67.68,12 Z M34.8,12.48 L15.12,12.48 L15.12,19.68 L20.64,19.68 L20.64,44.88 L15.12,44.88 L15.12,52.32 L34.8,52.32 L34.8,44.88 L29.28,44.88 L29.28,19.68 L34.8,19.68 L34.8,12.48 Z" id="Combined-Shape" fill="#000000" fill-rule="nonzero"></path>
    </g>
</svg>