<?xml version="1.0" encoding="UTF-8"?>
<svg width="923px" height="628px" viewBox="0 0 923 628" version="1.1" xmlns="http://www.w3.org/2000/svg" xmlns:xlink="http://www.w3.org/1999/xlink">
    <!-- Generator: Sketch 60.1 (88133) - https://sketch.com -->
    <title>Group 5</title>
    <desc>Created with Sketch.</desc>
    <g id="Page-1" stroke="none" stroke-width="1" fill="none" fill-rule="evenodd">
        <g id="Artboard" transform="translate(-3013.000000, -775.000000)">
            <g id="Group-5" transform="translate(3013.000000, 775.000000)">
                <rect id="Rectangle" fill="#FFFFFF" x="0" y="0" width="923" height="628"></rect>
                <g id="A302D20C-3BB3-46D5-B0E0-62BC63B63F6A-3" transform="translate(75.000000, 42.000000)" fill-rule="nonzero">
                    <g id="Browser" opacity="0.996">
                        <path d="M76.857,528.386 L76.864,523.386 L76.872,518.386 L76.879,513.386 L76.886,508.386 L76.894,503.386 L76.901,498.386 L76.908,493.386 L76.915,488.386 L76.922,483.386 L76.929,478.386 L76.936,473.386 L76.943,468.386 L76.95,463.386 L76.957,458.386 L76.964,453.386 L76.971,448.386 L76.978,443.386 L76.985,438.386 L76.992,433.386 L76.999,428.386 L77.005,423.386 L77.012,418.386 L77.019,413.386 L77.026,408.386 L77.032,403.386 L77.039,398.386 L77.046,393.386 L77.052,388.386 L77.059,383.386 L77.065,378.386 L77.072,373.386 L77.078,368.386 L77.085,363.386 L77.091,358.386 L77.098,353.386 L77.104,348.386 L77.111,343.386 L77.117,338.386 L77.124,333.386 L77.13,328.386 L77.136,323.386 L77.143,318.386 L77.149,313.386 L77.155,308.386 L77.161,303.386 L77.167,298.386 L77.174,293.386 L77.18,288.386 L77.186,283.386 L77.192,278.386 L77.198,273.386 L77.204,268.386 L77.211,263.386 L77.217,258.386 L77.223,253.386 L77.229,248.386 L77.235,243.386 L77.24,238.386 L77.246,233.386 L77.252,228.386 L77.258,223.386 L77.264,218.386 L77.27,213.386 L77.275,208.386 L77.281,203.386 L77.287,198.386 L77.293,193.386 L77.299,188.386 L77.305,183.386 L77.311,178.386 L77.316,173.386 L77.322,168.386 L77.327,163.386 L77.333,158.386 L77.339,153.386 L77.344,148.386 L77.35,143.386 L77.355,138.386 L77.361,133.386 L77.362,132.666 C77.362,132.042 77.077,131.453 76.587,131.065 L72.671,127.956 L68.755,124.848 L67.802,124.09 L67.802,127.313 L71.725,124.213 L75.648,121.113 L76.604,120.358 C77.099,119.966 77.388,119.369 77.388,118.737 L77.393,113.737 L77.399,108.737 L77.401,107.129 L75.322,109.211 L80.322,109.21 L85.322,109.21 L90.322,109.21 L95.322,109.209 L100.322,109.209 L105.322,109.209 L110.322,109.209 L115.322,109.208 L120.322,109.208 L125.322,109.208 L130.322,109.208 L135.322,109.207 L140.322,109.207 L145.322,109.207 L150.322,109.207 L155.322,109.206 L160.322,109.206 L165.322,109.206 L170.322,109.206 L175.322,109.205 L180.322,109.204 L185.322,109.203 L190.322,109.202 L195.322,109.201 L200.322,109.2 L205.322,109.199 L210.322,109.198 L215.322,109.197 L220.322,109.196 L225.322,109.196 L230.322,109.195 L235.322,109.194 L240.322,109.193 L245.322,109.192 L250.322,109.191 L255.322,109.19 L260.322,109.189 L265.322,109.188 L270.322,109.186 L275.322,109.184 L280.322,109.181 L285.322,109.178 L290.322,109.176 L295.322,109.173 L300.322,109.171 L305.322,109.168 L310.322,109.165 L315.322,109.163 L320.322,109.16 L325.322,109.157 L330.322,109.155 L335.322,109.152 L340.322,109.149 L345.322,109.145 L350.322,109.141 L355.322,109.136 L360.322,109.132 L365.322,109.127 L370.322,109.123 L375.322,109.118 L380.322,109.114 L385.322,109.109 L390.322,109.104 L395.322,109.098 L400.322,109.093 L405.322,109.087 L410.322,109.081 L415.322,109.074 L420.322,109.067 L425.322,109.06 L430.322,109.053 L435.322,109.047 L440.322,109.039 L445.322,109.031 L450.322,109.022 L455.322,109.014 L460.322,109.005 L465.322,108.997 L470.322,108.988 L475.322,108.98 L480.322,108.971 L485.322,108.963 L490.322,108.954 L495.322,108.946 L500.322,108.935 L505.322,108.925 L510.322,108.915 L515.322,108.904 L520.322,108.894 L525.322,108.884 L530.322,108.874 L535.322,108.863 L540.322,108.853 L545.322,108.843 L550.322,108.832 L555.322,108.82 L560.322,108.808 L565.322,108.797 L570.322,108.785 L575.322,108.773 L580.322,108.761 L585.322,108.75 L590.322,108.738 L595.322,108.726 L600.322,108.714 L605.322,108.702 L610.322,108.689 L615.322,108.675 L620.322,108.662 L625.322,108.649 L630.322,108.636 L635.322,108.623 L640.322,108.61 L645.322,108.597 L650.322,108.584 L655.322,108.571 L660.322,108.558 L665.322,108.545 L670.322,108.532 L675.322,108.519 L680.322,108.505 L685.322,108.492 L690.322,108.478 L695.322,108.464 L700.322,108.45 L705.322,108.436 L710.322,108.422 L715.322,108.408 L720.322,108.394 L725.322,108.38 L730.322,108.366 L735.322,108.352 L740.322,108.338 L745.322,108.324 L747.106,108.319 L745.055,106.273 L745.069,111.273 L745.083,116.273 L745.098,121.273 L745.112,126.273 L745.126,131.273 L745.14,136.273 L745.155,141.273 L745.169,146.273 L745.183,151.273 L745.197,156.273 L745.211,161.273 L745.225,166.273 L745.24,171.273 L745.254,176.273 L745.268,181.273 L745.282,186.273 L745.296,191.273 L745.31,196.273 L745.324,201.273 L745.338,206.273 L745.352,211.273 L745.366,216.273 L745.38,221.273 L745.394,226.273 L745.408,231.273 L745.422,236.273 L745.436,241.273 L745.45,246.273 L745.464,251.273 L745.478,256.273 L745.492,261.273 L745.506,266.273 L745.52,271.273 L745.534,276.273 L745.548,281.273 L745.562,286.273 L745.577,291.273 L745.591,296.273 L745.605,301.273 L745.619,306.273 L745.634,311.273 L745.648,316.273 L745.662,321.273 L745.676,326.273 L745.691,331.273 L745.705,336.273 L745.719,341.273 L745.733,346.273 L745.748,351.273 L745.762,356.273 L745.776,361.273 L745.791,366.273 L745.805,371.273 L745.82,376.273 L745.834,381.273 L745.848,386.273 L745.863,391.273 L745.877,396.273 L745.892,401.272 L745.906,406.272 L745.921,411.272 L745.935,416.272 L745.95,421.272 L745.964,426.272 L745.979,431.272 L745.993,436.272 L746.008,441.272 L746.023,446.272 L746.037,451.272 L746.052,456.272 L746.066,461.272 L746.081,466.272 L746.096,471.272 L746.11,476.272 L746.125,481.272 L746.14,486.272 L746.155,491.272 L746.169,496.272 L746.184,501.272 L746.199,506.272 L746.214,511.272 L746.229,516.272 L746.243,521.272 L746.258,526.272 L746.273,531.272 L746.28,533.388 C746.281,534.161 746.908,534.787 747.682,534.786 C748.455,534.785 749.081,534.158 749.08,533.385 L749.08,531.268 L749.082,526.268 L749.083,521.268 L749.084,516.268 L749.086,511.268 L749.087,506.268 L749.088,501.268 L749.09,496.268 L749.091,491.268 L749.092,486.268 L749.094,481.268 L749.095,476.268 L749.096,471.268 L749.097,466.268 L749.098,461.268 L749.099,456.268 L749.101,451.268 L749.102,446.268 L749.103,441.268 L749.104,436.268 L749.105,431.268 L749.106,426.268 L749.107,421.268 L749.108,416.268 L749.109,411.268 L749.11,406.268 L749.111,401.268 L749.112,396.268 L749.113,391.268 L749.114,386.268 L749.115,381.268 L749.116,376.268 L749.117,371.268 L749.117,366.268 L749.118,361.268 L749.119,356.268 L749.12,351.268 L749.121,346.268 L749.122,341.268 L749.122,336.268 L749.123,331.268 L749.124,326.268 L749.125,321.268 L749.125,316.268 L749.126,311.268 L749.127,306.268 L749.128,301.268 L749.129,296.268 L749.129,291.268 L749.13,286.268 L749.13,281.268 L749.131,276.268 L749.132,271.268 L749.132,266.268 L749.133,261.268 L749.133,256.268 L749.134,251.268 L749.135,246.268 L749.135,241.268 L749.136,236.268 L749.136,231.268 L749.137,226.268 L749.137,221.268 L749.138,216.268 L749.138,211.268 L749.139,206.268 L749.139,201.268 L749.14,196.268 L749.14,191.268 L749.141,186.268 L749.141,181.268 L749.142,176.268 L749.142,171.268 L749.143,166.268 L749.144,161.268 L749.144,156.268 L749.145,151.268 L749.152,146.268 L749.152,141.268 L749.152,136.268 L749.152,131.268 L749.152,126.268 L749.152,121.268 L749.152,116.268 L749.152,111.268 L749.152,106.268 C749.152,105.136 748.232,104.22 747.101,104.222 L745.316,104.222 L740.316,104.22 L735.316,104.219 L730.316,104.218 L725.316,104.217 L720.316,104.216 L715.316,104.215 L710.316,104.213 L705.316,104.212 L700.316,104.211 L695.316,104.21 L690.316,104.209 L685.316,104.208 L680.316,104.202 L675.316,104.202 L670.316,104.202 L665.316,104.202 L660.316,104.202 L655.316,104.202 L650.316,104.202 L645.316,104.202 L640.316,104.202 L635.316,104.202 L630.316,104.202 L625.316,104.202 L620.316,104.202 L615.316,104.202 L610.316,104.202 L605.316,104.202 L600.316,104.202 L595.316,104.202 L590.316,104.202 L585.316,104.202 L580.316,104.202 L575.316,104.207 L570.316,104.208 L565.316,104.209 L560.316,104.21 L555.316,104.211 L550.316,104.212 L545.316,104.214 L540.316,104.217 L535.316,104.219 L530.316,104.222 L525.316,104.224 L520.316,104.227 L515.316,104.229 L510.316,104.232 L505.316,104.234 L500.316,104.237 L495.316,104.239 L490.316,104.243 L485.316,104.247 L480.316,104.252 L475.316,104.256 L470.316,104.26 L465.316,104.265 L460.316,104.269 L455.316,104.273 L450.316,104.277 L445.316,104.282 L440.316,104.286 L435.316,104.292 L430.316,104.297 L425.316,104.303 L420.316,104.309 L415.316,104.315 L410.316,104.321 L405.316,104.328 L400.316,104.335 L395.316,104.342 L390.316,104.349 L385.316,104.357 L380.316,104.365 L375.316,104.373 L370.316,104.382 L365.316,104.39 L360.316,104.398 L355.316,104.407 L350.316,104.415 L345.316,104.423 L340.316,104.432 L335.316,104.442 L330.316,104.452 L325.316,104.462 L320.316,104.472 L315.316,104.482 L310.316,104.492 L305.316,104.503 L300.316,104.513 L295.316,104.523 L290.316,104.533 L285.316,104.543 L280.316,104.553 L275.316,104.563 L270.316,104.574 L265.316,104.585 L260.316,104.597 L255.316,104.609 L250.316,104.62 L245.316,104.632 L240.316,104.644 L235.316,104.656 L230.316,104.668 L225.316,104.679 L220.316,104.691 L215.316,104.703 L210.316,104.715 L205.316,104.727 L200.316,104.739 L195.316,104.75 L190.316,104.762 L185.316,104.774 L180.317,104.786 L175.317,104.798 L170.317,104.81 L165.317,104.823 L160.317,104.835 L155.317,104.848 L150.317,104.86 L145.317,104.873 L140.317,104.885 L135.317,104.898 L130.317,104.91 L125.317,104.923 L120.317,104.935 L115.317,104.948 L110.317,104.96 L105.317,104.973 L100.317,104.985 L95.317,104.998 L90.317,105.01 L85.317,105.023 L80.317,105.035 L75.317,105.047 C74.168,105.049 73.238,105.981 73.238,107.129 L73.24,108.737 L73.245,113.737 L73.251,118.737 L74.035,117.116 L73.082,117.873 L69.166,120.982 L65.25,124.09 C65.126,124.189 65.013,124.301 64.915,124.426 C64.21,125.315 64.36,126.608 65.25,127.313 L66.205,128.068 L70.128,131.167 L74.051,134.267 L73.277,132.666 L73.278,133.386 L73.284,138.386 L73.289,143.386 L73.295,148.386 L73.3,153.386 L73.306,158.386 L73.311,163.386 L73.317,168.386 L73.323,173.386 L73.328,178.386 L73.334,183.386 L73.34,188.386 L73.346,193.386 L73.352,198.386 L73.358,203.386 L73.363,208.386 L73.369,213.386 L73.375,218.386 L73.381,223.386 L73.387,228.386 L73.393,233.386 L73.398,238.386 L73.404,243.386 L73.41,248.386 L73.416,253.386 L73.422,258.386 L73.428,263.386 L73.434,268.386 L73.441,273.386 L73.447,278.386 L73.453,283.386 L73.459,288.386 L73.465,293.386 L73.471,298.386 L73.478,303.386 L73.484,308.386 L73.49,313.386 L73.496,318.386 L73.502,323.386 L73.509,328.386 L73.515,333.386 L73.521,338.386 L73.528,343.386 L73.534,348.386 L73.541,353.386 L73.547,358.386 L73.554,363.386 L73.56,368.386 L73.567,373.386 L73.573,378.386 L73.58,383.386 L73.586,388.386 L73.593,393.386 L73.6,398.386 L73.606,403.386 L73.613,408.386 L73.62,413.386 L73.627,418.386 L73.633,423.386 L73.64,428.386 L73.647,433.386 L73.654,438.386 L73.661,443.386 L73.667,448.386 L73.674,453.386 L73.681,458.386 L73.688,463.386 L73.695,468.386 L73.702,473.386 L73.709,478.386 L73.716,483.386 L73.724,488.386 L73.731,493.386 L73.738,498.386 L73.745,503.386 L73.753,508.386 L73.76,513.386 L73.767,518.386 L73.775,523.386 L73.782,528.386 L73.789,533.386 C73.789,534.231 74.474,534.916 75.319,534.916 C76.164,534.916 76.849,534.231 76.849,533.386 L76.857,528.386 Z" id="Path" fill="#000000"></path>
                        <path d="M77.919,154.625 L82.919,154.635 L87.919,154.645 L92.919,154.654 L97.919,154.664 L102.919,154.673 L107.919,154.682 L112.919,154.691 L117.919,154.7 L122.919,154.708 L127.919,154.716 L132.919,154.725 L137.919,154.733 L142.919,154.741 L147.919,154.749 L152.919,154.757 L157.919,154.764 L162.919,154.772 L167.919,154.78 L172.919,154.787 L177.919,154.794 L182.919,154.801 L187.919,154.808 L192.919,154.815 L197.919,154.822 L202.919,154.829 L207.919,154.835 L212.919,154.841 L217.919,154.848 L222.919,154.854 L227.919,154.86 L232.919,154.866 L237.919,154.872 L242.919,154.878 L247.919,154.884 L252.919,154.889 L257.919,154.896 L262.919,154.902 L267.919,154.908 L272.919,154.915 L277.92,154.922 L282.92,154.929 L287.92,154.935 L292.92,154.942 L297.92,154.949 L302.92,154.956 L307.92,154.963 L312.92,154.969 L317.92,154.975 L322.92,154.98 L327.92,154.985 L332.92,154.991 L337.92,154.996 L342.92,155.001 L347.92,155.007 L352.92,155.01 L357.92,155.012 L362.92,155.013 L367.92,155.014 L372.92,155.016 L377.92,155.017 L382.92,155.018 L387.92,155.015 L392.92,155.012 L397.92,155.01 L402.92,155.006 L407.92,155 L412.92,154.994 L417.92,154.986 L422.92,154.978 L427.92,154.967 L432.92,154.955 L437.92,154.943 L442.92,154.931 L447.92,154.919 L452.92,154.903 L457.92,154.887 L462.92,154.87 L467.92,154.854 L472.92,154.837 L477.92,154.818 L482.92,154.798 L487.92,154.779 L492.92,154.759 L497.919,154.738 L502.919,154.715 L507.919,154.693 L512.919,154.67 L517.919,154.648 L522.919,154.625 L527.919,154.602 L532.919,154.578 L537.919,154.554 L542.919,154.529 L547.919,154.504 L552.919,154.48 L557.919,154.455 L562.919,154.431 L567.919,154.406 L572.919,154.382 L577.919,154.357 L582.919,154.333 L587.919,154.309 L592.919,154.285 L597.919,154.261 L602.919,154.237 L607.919,154.214 L612.919,154.19 L617.919,154.165 L622.919,154.141 L627.919,154.117 L632.919,154.093 L637.919,154.069 L642.919,154.045 L647.919,154.02 L652.919,153.996 L657.919,153.971 L662.919,153.947 L667.919,153.922 L672.918,153.897 L677.918,153.872 L682.918,153.848 L687.918,153.823 L692.918,153.798 L697.918,153.772 L702.918,153.747 L707.918,153.722 L712.918,153.697 L717.918,153.671 L722.918,153.646 L727.918,153.62 L732.918,153.594 L737.918,153.568 L742.918,153.542 L743.285,153.54 L743.285,153.54 C744.058,153.539 744.683001,152.912 744.683001,152.138 C744.683001,151.365 744.054,150.739 743.281,150.741 C743.281,150.741 743.281,150.741 743.281,150.741 L742.914,150.74 L737.914,150.728 L732.914,150.716 L727.914,150.705 L722.914,150.694 L717.914,150.683 L712.914,150.671 L707.914,150.66 L702.914,150.65 L697.914,150.639 L692.914,150.628 L687.914,150.617 L682.914,150.607 L677.914,150.596 L672.914,150.586 L667.914,150.575 L662.914,150.565 L657.914,150.555 L652.914,150.545 L647.914,150.534 L642.914,150.524 L637.914,150.514 L632.914,150.504 L627.914,150.495 L622.914,150.485 L617.914,150.475 L612.914,150.466 L607.913,150.456 L602.913,150.447 L597.913,150.437 L592.913,150.428 L587.913,150.418 L582.913,150.408 L577.913,150.398 L572.913,150.388 L567.913,150.378 L562.913,150.368 L557.913,150.358 L552.913,150.347 L547.913,150.337 L542.913,150.327 L537.913,150.317 L532.913,150.306 L527.913,150.297 L522.913,150.288 L517.913,150.28 L512.913,150.272 L507.913,150.264 L502.913,150.255 L497.913,150.247 L492.913,150.24 L487.913,150.235 L482.913,150.23 L477.913,150.225 L472.913,150.219 L467.913,150.217 L462.913,150.215 L457.913,150.213 L452.913,150.211 L447.913,150.21 L442.913,150.212 L437.913,150.215 L432.913,150.217 L427.913,150.219 L422.913,150.223 L417.913,150.229 L412.913,150.234 L407.913,150.243 L402.913,150.251 L397.913,150.262 L392.913,150.274 L387.913,150.286 L382.913,150.297 L377.913,150.312 L372.913,150.328 L367.913,150.344 L362.913,150.359 L357.913,150.375 L352.913,150.391 L347.913,150.409 L342.913,150.429 L337.913,150.448 L332.913,150.468 L327.913,150.488 L322.913,150.507 L317.913,150.527 L312.913,150.547 L307.913,150.567 L302.913,150.588 L297.913,150.609 L292.913,150.631 L287.913,150.652 L282.913,150.673 L277.913,150.695 L272.914,150.716 L267.914,150.737 L262.914,150.758 L257.914,150.778 L252.914,150.799 L247.914,150.819 L242.914,150.839 L237.914,150.859 L232.914,150.879 L227.914,150.9 L222.914,150.92 L217.914,150.941 L212.914,150.962 L207.914,150.982 L202.914,151.003 L197.914,151.023 L192.914,151.045 L187.914,151.066 L182.914,151.088 L177.914,151.109 L172.914,151.131 L167.914,151.152 L162.914,151.174 L157.914,151.196 L152.914,151.218 L147.914,151.24 L142.914,151.263 L137.914,151.285 L132.914,151.308 L127.914,151.33 L122.914,151.353 L117.914,151.376 L112.914,151.399 L107.914,151.422 L102.914,151.446 L97.914,151.469 L92.914,151.493 L87.914,151.517 L82.914,151.541 L77.914,151.565 C77.07,151.566 76.3869956,152.252 76.3869956,153.097 C76.3869956,153.942 77.074,154.626 77.919,154.625 L77.919,154.625" id="Path" fill="#000000"></path>
                        <path d="M4.853,108.121 L9.853,108.178 L14.853,108.231 L19.853,108.282 L24.853,108.329 L29.853,108.372 L34.853,108.414 L39.853,108.452 L44.853,108.486 L47.744,108.506 L45.509,106.271 L45.478,111.271 L45.453,116.271 L45.428,121.271 L45.408,126.271 L45.394,131.271 L45.38,136.271 L45.369,141.271 L45.365,146.271 L45.365,146.838 L47.744,144.459 L42.744,144.465 L37.744,144.473 L32.744,144.487 L27.744,144.506 L22.744,144.533 L17.744,144.565 L12.744,144.601 L7.744,144.641 L4.853,144.668 L7.023,146.838 L6.513,106.271 L6.513,106.271 C6.513,105.354 5.769,104.611 4.853,104.611 C3.936,104.611 3.193,105.354 3.193,106.271 L2.683,146.838 L2.683,146.838 C2.683,146.838 2.683,146.838 2.683,146.838 C2.683,148.037 3.654,149.008 4.853,149.008 L4.853,149.008 L7.744,149.036 L12.744,149.076 L17.744,149.112 L22.744,149.144 L27.744,149.171 L32.744,149.19 L37.744,149.204 L42.744,149.212 L47.744,149.218 L47.744,149.218 C49.059,149.218 50.124,148.153 50.124,146.838 L50.124,146.838 L50.124,146.271 L50.12,141.271 L50.109,136.271 L50.095,131.271 L50.081,126.271 L50.061,121.271 L50.036,116.271 L50.011,111.271 L49.98,106.271 L49.98,106.271 C49.98,106.271 49.98,106.271 49.98,106.271 C49.98,105.036 48.979,104.035 47.744,104.035 L47.744,104.035 L44.853,104.055 L39.853,104.09 L34.853,104.128 L29.853,104.169 L24.853,104.212 L19.853,104.259 L14.853,104.31 L9.853,104.363 L4.853,104.421 C3.831,104.421 3.003,105.249 3.003,106.271 C3.003,107.292 3.831,108.121 4.853,108.121 L4.853,108.121" id="Path" fill="#000000"></path>
                        <path d="M3.212,80.475 L3.226,75.475 L3.241,70.475 L3.254,65.475 L3.268,60.475 L3.282,55.475 L3.295,50.475 L3.307,45.975 L1.682,47.599 L6.682,47.613 L11.682,47.626 L16.682,47.639 L21.682,47.652 L26.682,47.665 L31.682,47.678 L36.682,47.69 L41.682,47.703 L46.682,47.715 L51.682,47.728 L56.682,47.74 L61.682,47.752 L66.682,47.765 L71.682,47.777 L76.682,47.789 L81.682,47.801 L86.682,47.813 L91.682,47.824 L96.682,47.836 L101.682,47.848 L106.682,47.86 L111.682,47.871 L116.682,47.883 L121.682,47.894 L126.682,47.905 L131.682,47.916 L136.682,47.927 L141.682,47.938 L146.682,47.949 L151.682,47.96 L156.682,47.971 L161.682,47.982 L166.682,47.992 L171.682,48.003 L176.682,48.013 L181.682,48.024 L186.682,48.035 L191.682,48.046 L192.33,48.048 L190.257,45.98 L190.259,50.98 L190.262,55.981 L190.264,60.981 L190.266,65.981 L190.268,70.981 L190.27,75.981 L190.272,80.981 L190.272,81.39 L190.272,81.39 C190.275,82.579 191.242,83.541 192.431,83.539 L192.431,83.539 L197.431,83.54 L202.431,83.542 L207.431,83.544 L212.431,83.545 L217.431,83.546 L222.431,83.546 L227.431,83.547 L232.431,83.547 L237.431,83.547 L242.431,83.548 L247.431,83.548 L252.431,83.548 L257.431,83.549 L262.431,83.549 L267.431,83.546 L272.431,83.544 L277.431,83.541 L282.431,83.538 L287.431,83.535 L292.431,83.532 L297.431,83.529 L302.431,83.525 L307.431,83.519 L312.431,83.513 L317.431,83.506 L322.431,83.5 L327.431,83.493 L332.431,83.484 L337.431,83.475 L342.431,83.465 L347.431,83.454 L352.431,83.443 L357.431,83.429 L362.431,83.415 L367.431,83.401 L372.431,83.387 L377.431,83.373 L382.431,83.359 L387.431,83.341 L392.431,83.324 L397.431,83.307 L402.431,83.289 L407.431,83.272 L412.431,83.253 L417.431,83.233 L422.431,83.213 L427.431,83.193 L432.431,83.173 L437.431,83.153 L442.43,83.13 L447.43,83.108 L452.43,83.085 L457.43,83.063 L462.43,83.04 L467.43,83.017 L472.43,82.995 L477.43,82.972 L482.43,82.948 L487.43,82.924 L492.43,82.9 L497.43,82.876 L502.43,82.851 L507.43,82.827 L512.43,82.803 L517.43,82.778 L522.43,82.754 L527.43,82.73 L532.43,82.706 L537.43,82.681 L542.43,82.657 L547.43,82.633 L552.43,82.609 L557.43,82.585 L562.43,82.562 L567.43,82.538 L572.43,82.515 L577.43,82.491 L582.429,82.467 L587.429,82.443 L592.429,82.419 L597.429,82.395 L602.429,82.372 L607.429,82.348 L612.429,82.324 L617.429,82.3 L622.429,82.275 L627.429,82.251 L632.429,82.227 L637.429,82.203 L642.429,82.179 L647.429,82.154 L652.429,82.13 L657.429,82.105 L662.429,82.081 L667.429,82.056 L672.429,82.032 L677.429,82.007 L682.429,81.982 L687.429,81.957 L692.429,81.933 L697.429,81.908 L702.429,81.883 L707.428,81.858 L712.428,81.833 L717.428,81.808 L722.428,81.783 L727.428,81.757 L732.428,81.732 L737.428,81.706 L740.115,81.693 L740.115,81.693 C740.888,81.691 741.513001,81.063 741.513001,80.29 C741.513001,79.517 740.883,78.891 740.11,78.893 C740.11,78.893 740.11,78.893 740.11,78.893 L737.423,78.89 L732.423,78.884 L727.423,78.879 L722.423,78.873 L717.423,78.868 L712.423,78.863 L707.422,78.858 L702.422,78.853 L697.422,78.848 L692.422,78.843 L687.422,78.838 L682.422,78.833 L677.422,78.828 L672.422,78.824 L667.422,78.819 L662.422,78.814 L657.422,78.81 L652.422,78.805 L647.422,78.801 L642.422,78.796 L637.422,78.792 L632.422,78.788 L627.422,78.783 L622.422,78.779 L617.422,78.775 L612.422,78.771 L607.422,78.767 L602.422,78.763 L597.422,78.759 L592.422,78.755 L587.422,78.751 L582.422,78.747 L577.422,78.743 L572.422,78.739 L567.422,78.736 L562.422,78.732 L557.422,78.728 L552.422,78.724 L547.422,78.72 L542.422,78.716 L537.422,78.712 L532.422,78.708 L527.422,78.704 L522.422,78.699 L517.422,78.695 L512.422,78.69 L507.422,78.686 L502.422,78.682 L497.422,78.677 L492.422,78.673 L487.422,78.669 L482.422,78.664 L477.422,78.661 L472.422,78.658 L467.422,78.655 L462.422,78.652 L457.422,78.65 L452.422,78.647 L447.422,78.644 L442.422,78.642 L437.422,78.64 L432.422,78.639 L427.422,78.639 L422.422,78.639 L417.422,78.639 L412.421,78.638 L407.421,78.64 L402.421,78.642 L397.421,78.645 L392.421,78.647 L387.421,78.65 L382.421,78.653 L377.421,78.658 L372.421,78.664 L367.421,78.67 L362.421,78.676 L357.421,78.682 L352.421,78.688 L347.421,78.697 L342.421,78.706 L337.421,78.716 L332.422,78.727 L327.422,78.737 L322.422,78.75 L317.422,78.764 L312.422,78.778 L307.422,78.791 L302.422,78.805 L297.422,78.821 L292.422,78.838 L287.422,78.855 L282.422,78.872 L277.422,78.889 L272.422,78.906 L267.422,78.923 L262.422,78.941 L257.422,78.961 L252.422,78.981 L247.422,79.001 L242.422,79.022 L237.422,79.042 L232.422,79.062 L227.422,79.083 L222.422,79.103 L217.422,79.123 L212.422,79.144 L207.422,79.165 L202.422,79.187 L197.422,79.208 L192.422,79.23 L194.581,81.378 L194.579,80.969 L194.553,75.969 L194.528,70.969 L194.503,65.969 L194.478,60.969 L194.452,55.969 L194.427,50.969 L194.403,45.969 L194.403,45.969 C194.4,44.827 193.472,43.902 192.33,43.902 L192.33,43.902 L191.682,43.903 L186.682,43.914 L181.682,43.925 L176.682,43.936 L171.682,43.947 L166.682,43.957 L161.682,43.968 L156.682,43.978 L151.682,43.989 L146.682,44.001 L141.682,44.012 L136.682,44.023 L131.682,44.034 L126.682,44.045 L121.682,44.056 L116.682,44.067 L111.682,44.078 L106.682,44.09 L101.682,44.102 L96.682,44.114 L91.682,44.125 L86.682,44.137 L81.682,44.149 L76.682,44.161 L71.682,44.173 L66.682,44.185 L61.682,44.197 L56.682,44.21 L51.682,44.222 L46.682,44.234 L41.682,44.246 L36.682,44.259 L31.682,44.272 L26.682,44.285 L21.682,44.298 L16.682,44.311 L11.682,44.324 L6.682,44.337 L1.682,44.35 L1.682,44.35 C0.785,44.35 0.058,45.078 0.058,45.975 L0.058,45.975 L0.07,50.475 L0.083,55.475 L0.097,60.475 L0.11,65.475 L0.124,70.475 L0.138,75.475 L0.152,80.475 C0.152,80.475 0.152,80.475 0.152,80.475 C0.152,81.32 0.837,82.005 1.682,82.005 C2.527,82.005 3.212,81.32 3.212,80.475 L3.212,80.475" id="Path" fill="#000000"></path>
                        <g id="Group" transform="translate(2.000000, 0.000000)" fill="#2BBE4E">
                            <polygon id="Path" points="2.853 3.113 83.937 3.113 83.937 31.579 2.853 31.579"></polygon>
                            <path d="M2.853,4.58 L7.853,4.715 L12.853,4.845 L17.853,4.967 L22.853,5.082 L27.853,5.193 L32.853,5.296 L37.853,5.394 L42.853,5.492 L47.853,5.58 L52.853,5.66 L57.853,5.74 L62.853,5.82 L67.853,5.881 L72.853,5.943 L77.853,6.002 L82.853,6.049 L83.937,6.059 L80.991,3.113 L80.95,8.113 L80.917,13.113 L80.89,18.113 L80.873,23.113 L80.86,28.113 L80.857,31.579 L83.937,28.499 L78.937,28.504 L73.937,28.523 L68.937,28.541 L63.937,28.576 L58.937,28.611 L53.937,28.66 L48.937,28.711 L43.937,28.774 L38.937,28.838 L33.937,28.914 L28.937,28.992 L23.937,29.082 L18.937,29.172 L13.937,29.271 L8.937,29.378 L3.937,29.485 L2.853,29.508 L4.924,31.579 L4.173,3.113 L4.173,3.113 C4.173,2.384 3.582,1.793 2.853,1.793 C2.124,1.793 1.533,2.384 1.533,3.113 L0.781,31.579 L0.781,31.579 C0.781,31.579 0.781,31.579 0.781,31.579 C0.781,32.723 1.709,33.651 2.853,33.651 L2.853,33.651 L3.937,33.674 L8.937,33.781 L13.937,33.888 L18.937,33.987 L23.937,34.077 L28.937,34.167 L33.937,34.245 L38.937,34.321 L43.937,34.385 L48.937,34.448 L53.937,34.499 L58.937,34.548 L63.937,34.583 L68.937,34.617 L73.937,34.636 L78.937,34.655 L83.937,34.659 L83.937,34.659 C85.638,34.659 87.017,33.281 87.017,31.579 L87.017,31.579 L87.013,28.113 L87,23.113 L86.983,18.113 L86.956,13.113 L86.923,8.113 L86.882,3.113 L86.882,3.113 C86.882,3.113 86.882,3.113 86.882,3.113 C86.882,1.486 85.563,0.168 83.937,0.168 L83.937,0.168 L82.853,0.178 L77.853,0.224 L72.853,0.284 L67.853,0.345 L62.853,0.407 L57.853,0.487 L52.853,0.567 L47.853,0.647 L42.853,0.735 L37.853,0.833 L32.853,0.93 L27.853,1.033 L22.853,1.144 L17.853,1.259 L12.853,1.381 L7.853,1.511 L2.853,1.647 C2.043,1.647 1.386,2.303 1.386,3.113 C1.386,3.923 2.043,4.58 2.853,4.58 L2.853,4.58" id="Path"></path>
                        </g>
                        <g id="Group" transform="translate(352.000000, 4.000000)" fill="#BFD8F1">
                            <polygon id="Path" points="2.445 4.475 89.905 4.475 89.905 27.579 2.445 27.579"></polygon>
                            <path d="M2.445,6.107 L7.445,6.281 L12.445,6.449 L17.445,6.605 L22.445,6.753 L27.445,6.896 L32.445,7.028 L37.445,7.153 L42.445,7.279 L47.445,7.394 L52.445,7.499 L57.445,7.605 L62.445,7.696 L67.445,7.785 L72.445,7.86 L77.445,7.933 L82.445,7.992 L87.445,8.049 L89.905,8.069 L86.31,4.475 L86.269,9.475 L86.239,14.475 L86.217,19.475 L86.204,24.475 L86.203,27.579 L89.905,23.877 L84.905,23.889 L79.905,23.922 L74.905,23.957 L69.905,24.02 L64.905,24.083 L59.905,24.173 L54.905,24.263 L49.905,24.376 L44.905,24.49 L39.905,24.626 L34.905,24.765 L29.905,24.924 L24.905,25.084 L19.905,25.256 L14.905,25.442 L9.905,25.629 L4.905,25.834 L2.445,25.937 L4.088,27.579 L2.977,4.475 L2.977,4.475 C2.977,4.182 2.739,3.944 2.445,3.944 C2.152,3.944 1.914,4.182 1.914,4.475 L0.802,27.579 L0.802,27.579 C0.802,27.579 0.802,27.579 0.802,27.579 C0.802,28.487 1.538,29.222 2.445,29.222 L2.445,29.222 L4.905,29.325 L9.905,29.53 L14.905,29.717 L19.905,29.903 L24.905,30.075 L29.905,30.234 L34.905,30.394 L39.905,30.533 L44.905,30.669 L49.905,30.783 L54.905,30.896 L59.905,30.986 L64.905,31.076 L69.905,31.139 L74.905,31.202 L79.905,31.237 L84.905,31.27 L89.905,31.282 L89.905,31.282 C91.949,31.282 93.607,29.624 93.607,27.579 L93.607,27.579 L93.605,24.475 L93.592,19.475 L93.57,14.475 L93.541,9.475 L93.499,4.475 L93.499,4.475 C93.499,2.49 91.89,0.881 89.905,0.881 L89.905,0.881 L87.445,0.901 L82.445,0.958 L77.445,1.017 L72.445,1.09 L67.445,1.166 L62.445,1.254 L57.445,1.345 L52.445,1.451 L47.445,1.557 L42.445,1.672 L37.445,1.797 L32.445,1.922 L27.445,2.054 L22.445,2.197 L17.445,2.345 L12.445,2.502 L7.445,2.669 L2.445,2.844 C1.544,2.844 0.813,3.574 0.813,4.475 C0.813,5.376 1.544,6.107 2.445,6.107 L2.445,6.107" id="Path"></path>
                        </g>
                        <g id="Group" transform="translate(500.000000, 4.000000)" fill="#BFD8F1">
                            <polygon id="Path" points="2.428 4.475 89.888 4.475 89.888 27.579 2.428 27.579"></polygon>
                            <path d="M2.428,6.107 L7.428,6.281 L12.428,6.449 L17.428,6.605 L22.428,6.753 L27.428,6.896 L32.428,7.028 L37.428,7.153 L42.428,7.279 L47.428,7.394 L52.428,7.499 L57.428,7.605 L62.428,7.696 L67.428,7.785 L72.428,7.86 L77.428,7.933 L82.428,7.992 L87.428,8.049 L89.888,8.069 L86.293,4.475 L86.252,9.475 L86.222,14.475 L86.2,19.475 L86.187,24.475 L86.186,27.579 L89.888,23.877 L84.888,23.889 L79.888,23.922 L74.888,23.957 L69.888,24.02 L64.888,24.083 L59.888,24.173 L54.888,24.263 L49.888,24.376 L44.888,24.49 L39.888,24.626 L34.888,24.765 L29.888,24.924 L24.888,25.084 L19.888,25.256 L14.888,25.442 L9.888,25.629 L4.888,25.834 L2.428,25.937 L4.071,27.579 L2.96,4.475 L2.96,4.475 C2.96,4.182 2.722,3.944 2.428,3.944 C2.135,3.944 1.896,4.182 1.896,4.475 L0.785,27.579 L0.785,27.579 C0.785,27.579 0.785,27.579 0.785,27.579 C0.785,28.487 1.521,29.222 2.428,29.222 L2.428,29.222 L4.888,29.325 L9.888,29.53 L14.888,29.717 L19.888,29.903 L24.888,30.075 L29.888,30.234 L34.888,30.394 L39.888,30.533 L44.888,30.669 L49.888,30.783 L54.888,30.896 L59.888,30.986 L64.888,31.076 L69.888,31.139 L74.888,31.202 L79.888,31.237 L84.888,31.27 L89.888,31.282 L89.888,31.282 C91.932,31.282 93.59,29.624 93.59,27.579 L93.59,27.579 L93.588,24.475 L93.575,19.475 L93.553,14.475 L93.524,9.475 L93.482,4.475 L93.482,4.475 C93.482,2.49 91.873,0.881 89.888,0.881 L89.888,0.881 L87.428,0.901 L82.428,0.958 L77.428,1.017 L72.428,1.09 L67.428,1.166 L62.428,1.254 L57.428,1.345 L52.428,1.451 L47.428,1.557 L42.428,1.672 L37.428,1.797 L32.428,1.922 L27.428,2.054 L22.428,2.197 L17.428,2.345 L12.428,2.502 L7.428,2.669 L2.428,2.844 C1.527,2.844 0.797,3.574 0.797,4.475 C0.797,5.376 1.527,6.107 2.428,6.107 L2.428,6.107" id="Path"></path>
                        </g>
                    </g>
                    <g id="Text" transform="translate(15.000000, 45.000000)">
                        <path d="M7.706,16.097 L7.613,21.097 L7.559,24.556 L7.559,24.556 C7.559,25.148 8.039,25.628 8.631,25.628 C8.631,25.628 8.631,25.628 8.631,25.628 L8.631,25.628 L13.631,25.683 L15.306,25.701 L14.226,24.936 L15.582,28.887 L15.582,28.887 C15.798,29.5 16.469,29.822 17.082,29.607 C17.348,29.513 17.571,29.328 17.712,29.084 L17.712,29.084 L19.771,25.534 L18.792,26.129 L20.985,26.03 L20.985,26.03 C21.615,26.003 22.114,25.487 22.12,24.857 L22.12,24.857 L22.14,19.857 L22.1540537,16.013 L22.1540537,16.013 C22.16,15.392 21.662,14.883 21.041,14.876 C21.034,14.876 21.027,14.876 21.02,14.876 L21.02,14.876 L16.02,14.981 L11.021,15.106 L8.624,15.172 L8.624,15.172 C8.113,15.176 7.702,15.594 7.706,16.104 C7.71,16.615 8.127,17.026 8.638,17.022 L11.036,17.052 L16.037,17.099 L21.037,17.126 L19.903,15.989 L19.834,19.832 L19.746,24.831 L20.881,23.658 L18.688,23.752 L18.688,23.752 C18.281,23.769 17.912,23.994 17.709,24.347 L17.709,24.347 L15.672,27.909 L17.802,28.106 L16.387,24.176 L16.387,24.176 C16.226,23.717 15.792,23.411 15.306,23.411 L15.306,23.411 L13.631,23.428 L8.631,23.484 L9.703,24.556 L9.648,21.097 L9.556,16.097 C9.556,15.586 9.142,15.172 8.631,15.172 C8.12,15.172 7.706,15.586 7.706,16.097 L7.706,16.097" id="Path" fill="#000000"></path>
                        <path d="M6.761,18.672 L1.76,18.622 L1.552,18.62 L1.552,18.62 C0.974,18.629 0.51,19.1 0.51,19.678 L0.51,19.678 L0.423,24.678 L0.384,28.497 L0.384,28.497 C0.384,29.151 0.914,29.681 1.569,29.681 L1.569,29.681 L4.773,29.684 L3.586,28.451 L3.468,32.632 L3.468,32.632 C3.444,33.264 3.937,33.796 4.569,33.82 C4.935,33.834 5.286,33.672 5.513,33.384 L5.513,33.384 L8.535,29.399 L8.725,29.147 L7.897,29.549 L12.703,29.422 L12.703,29.422 C13.214,29.422 13.628,29.007 13.628,28.497 C13.628,27.986 13.214,27.572 12.703,27.572 C12.703,27.572 12.703,27.572 12.703,27.572 L7.897,27.444 L7.897,27.444 C7.574,27.444 7.268,27.592 7.069,27.846 L7.069,27.846 L6.869,28.09 L3.712,31.969 L5.757,32.72 L5.959,28.542 L5.959,28.542 C5.959,28.527 5.96,28.512 5.96,28.497 C5.96,27.841 5.428,27.31 4.773,27.31 L4.773,27.31 L1.569,27.312 L2.753,28.497 L2.714,24.678 L2.627,19.678 L1.585,20.736 L1.792,20.727 L6.79,20.522 C6.79,20.522 6.79,20.522 6.79,20.522 C7.3,20.514 7.708,20.094 7.7,19.583 C7.692,19.072 7.272,18.664 6.761,18.672 L6.761,18.672" id="Path" fill="#000000"></path>
                        <path d="M209.54,22.205 L209.302,22.19 L208.91,22.131 L208.559,22.035 L208.224,21.906 L207.907,21.746 L207.608,21.556 L207.328,21.337 L207.07,21.092 L206.836,20.822 L206.625,20.531 L206.442,20.218 L206.288,19.887 L206.165,19.539 L206.072,19.177 L206.014,18.803 L205.991,18.417 L205.995,18.247 L205.995,18.301 L206.005,18.051 L206.057,17.643 L206.141,17.278 L206.257,16.929 L206.403,16.599 L206.577,16.288 L206.778,15.998 L207.002,15.732 L207.246,15.488 L207.51,15.271 L207.793,15.083 L208.09,14.924 L208.402,14.796 L208.725,14.701 L209.059,14.637 L209.403,14.608 L209.547,14.608 L209.484,14.608 L209.722,14.615 L210.096,14.657 L210.425,14.733 L210.741,14.841 L211.046,14.979 L211.335,15.146 L211.609,15.343 L211.865,15.567 L212.101,15.816 L212.315,16.089 L212.506,16.384 L212.671,16.699 L212.807,17.033 L212.913,17.384 L212.987,17.751 L213.027,18.132 L213.033,18.301 L213.033,18.247 L213.032,18.497 L212.999,18.907 L212.931,19.278 L212.829,19.635 L212.698,19.978 L212.536,20.303 L212.346,20.61 L212.129,20.895 L211.887,21.158 L211.624,21.396 L211.339,21.607 L211.034,21.789 L210.713,21.941 L210.375,22.06 L210.022,22.146 L209.655,22.195 L209.491,22.205 L209.491,22.205 C208.98,22.218 208.577,22.643 208.591,23.154 C208.604,23.664 209.029,24.067 209.54,24.054 L209.852,24.051 L210.42,24.001 L210.972,23.893 L211.505,23.728 L212.015,23.512 L212.498,23.246 L212.953,22.933 L213.375,22.578 L213.762,22.182 L214.112,21.748 L214.421,21.28 L214.687,20.781 L214.907,20.252 L215.076,19.697 L215.193,19.12 L215.255,18.551 L215.266,18.301 L215.266,18.301 C215.266,18.283 215.266,18.265 215.266,18.247 L215.266,18.247 L215.26,17.916 L215.206,17.318 L215.094,16.737 L214.929,16.177 L214.714,15.64 L214.451,15.129 L214.143,14.649 L213.791,14.203 L213.398,13.794 L212.967,13.424 L212.501,13.097 L212.003,12.817 L211.476,12.586 L210.922,12.41 L210.347,12.293 L209.785,12.236 L209.547,12.23 L209.547,12.23 C209.526,12.229 209.505,12.229 209.484,12.23 L209.484,12.23 L209.151,12.243 L208.561,12.313 L207.99,12.443 L207.442,12.631 L206.922,12.871 L206.432,13.161 L205.975,13.496 L205.553,13.872 L205.169,14.288 L204.826,14.74 L204.527,15.225 L204.274,15.74 L204.068,16.28 L203.913,16.843 L203.812,17.426 L203.769,17.997 L203.768,18.247 L203.768,18.247 C203.768,18.265 203.768,18.283 203.768,18.301 L203.768,18.301 L203.784,18.631 L203.856,19.224 L203.982,19.798 L204.16,20.348 L204.389,20.871 L204.662,21.365 L204.979,21.828 L205.335,22.255 L205.729,22.644 L206.157,22.992 L206.617,23.297 L207.106,23.555 L207.62,23.763 L208.156,23.918 L208.71,24.016 L209.252,24.056 L209.491,24.054 C209.491,24.054 209.491,24.054 209.491,24.054 C210.002,24.067 210.427,23.664 210.44,23.154 C210.454,22.643 210.051,22.218 209.54,22.205 L209.54,22.205" id="Path" fill="#000000"></path>
                        <path d="M198.702,18.681 L203.702,18.839 L204.881,18.681 L204.881,18.681 C205.392,18.681 205.806,18.267 205.806,17.756 C205.806,17.246 205.392,16.831 204.881,16.831 C204.881,16.831 204.881,16.831 204.881,16.831 L203.702,16.674 L198.702,16.831 C198.192,16.831 197.777,17.246 197.777,17.756 C197.777,18.267 198.192,18.681 198.702,18.681 L198.702,18.681" id="Path" fill="#000000"></path>
                        <path d="M214.881,18.469 L219.881,18.626 L221.06,18.469 L221.06,18.469 C221.57,18.469 221.985,18.055 221.985,17.544 C221.985,17.033 221.57,16.619 221.06,16.619 C221.06,16.619 221.06,16.619 221.06,16.619 L219.881,16.462 L214.881,16.619 C214.37,16.619 213.956,17.033 213.956,17.544 C213.956,18.055 214.37,18.469 214.881,18.469 L214.881,18.469" id="Path" fill="#000000"></path>
                        <path d="M359.19,23.444 L354.196,23.172 L351.791,23.045 L352.703,23.985 L352.806,18.985 L352.908,13.985 L352.95,8.985 L352.946,8.182 L351.763,9.366 L356.763,9.279 L361.763,9.155 L362.54,9.134 L361.587,8.182 L361.719,13.182 L361.84,17.501 L361.84,17.501 C361.84,17.888 362.153,18.201 362.54,18.201 C362.926,18.201 363.24,17.888 363.24,17.501 L363.36,13.182 L363.492,8.182 L363.492,8.182 C363.492,7.656 363.066,7.23 362.54,7.23 L362.54,7.23 L361.763,7.21 L356.763,7.085 L351.763,6.998 L351.763,6.998 C351.109,6.998 350.579,7.528 350.579,8.182 L350.579,8.182 L350.575,8.985 L350.617,13.985 L350.719,18.985 L350.822,23.985 L350.822,23.985 C350.822,24.494 351.226,24.91 351.734,24.926 L351.734,24.926 L354.142,24.944 L359.143,24.974 C359.566,24.986 359.919,24.654 359.931,24.232 C359.944,23.81 359.612,23.457 359.19,23.444 L359.19,23.444" id="Path" fill="#000000"></path>
                        <path d="M359.577,20.509 L362.503,24.577 L362.583,24.687 L362.583,24.687 C362.97,25.157 363.666,25.224 364.136,24.836 C364.238,24.753 364.323,24.652 364.389,24.538 L364.389,24.538 L366.819,20.167 L368.661,16.352 L368.661,16.352 C368.854,16.017 368.74,15.589 368.406,15.395 C368.071,15.202 367.643,15.316 367.449,15.651 L365.059,19.148 L362.479,23.432 L364.286,23.283 L364.192,23.184 L360.758,19.536 C360.489,19.21 360.007,19.163 359.681,19.432 C359.355,19.701 359.308,20.183 359.577,20.509 L359.577,20.509" id="Path" fill="#000000"></path>
                        <path d="M355.433,14.088 L359.637,13.931 L359.637,13.931 C360.023,13.923 360.33,13.603 360.321,13.216 C360.313,12.83 359.993,12.523 359.606,12.532 L355.4,12.559 C355.4,12.559 355.4,12.559 355.4,12.559 C354.977,12.568 354.642,12.918 354.652,13.34 C354.661,13.763 355.011,14.098 355.433,14.088 L355.433,14.088" id="Path" fill="#000000"></path>
                        <path d="M355.417,18.056 L359.622,17.991 L359.622,17.991 C360.008,17.991 360.322,17.677 360.322,17.291 C360.322,16.904 360.008,16.591 359.622,16.591 L355.417,16.526 C355.417,16.526 355.417,16.526 355.417,16.526 C354.994,16.526 354.652,16.868 354.652,17.291 C354.652,17.713 354.994,18.056 355.417,18.056 L355.417,18.056" id="Path" fill="#000000"></path>
                        <path d="M473.504,5.198 L473.353,10.196 L473.212,15.195 L473.079,20.194 L473.056942,21.033 L473.056942,21.033 C473.051,21.608 473.512,22.079 474.087,22.085 C474.09,22.085 474.094,22.085 474.098,22.085 L474.098,22.085 L479.098,22.163 L484.098,22.219 L487.428,22.224 L487.428,22.224 C488.082,22.224 488.611,21.694 488.611,21.041 L488.611,21.041 L488.566,16.041 L488.474,11.041 L488.438,9.195 L488.438,9.195 C488.438,8.944 488.344,8.702 488.175,8.516 L488.175,8.516 L484.739,4.883 L484.607,4.744 L484.607,4.744 C484.439,4.559 484.201,4.452 483.951,4.448 L483.951,4.448 L478.95,4.475 L474.279,4.506 L474.279,4.506 C473.893,4.5 473.575,4.809 473.569,5.195 C473.563,5.582 473.871,5.9 474.258,5.906 C474.258,5.906 474.258,5.906 474.258,5.906 L478.926,6.079 L483.924,6.258 L483.267,5.962 L483.393,6.106 L486.681,9.874 L486.419,9.195 L486.383,11.041 L486.29,16.041 L486.245,21.041 L487.428,19.858 L484.098,19.865 L479.098,19.923 L474.098,20.003 L475.139,21.055 L475.134,20.216 L475.109,15.216 L475.076,10.215 L475.034,5.214 C475.034,5.214 475.034,5.214 475.034,5.214 C475.038,4.792 474.699,4.445 474.277,4.44094539 C473.854,4.436 473.508,4.775 473.504,5.198 L473.504,5.198" id="Path" fill="#000000"></path>
                        <path d="M474.267,2.751 L479.267,2.915 L484.267,3.064 L485.432,3.098 L484.637,2.753 L487.991,6.462 L489.925,8.494 L489.611,7.697 L489.75,12.698 L489.913,17.698 L490.053,21.697 L490.053,21.697 C490.053,22.083 490.366,22.397 490.752,22.398 C491.139,22.398 491.453,22.085 491.453,21.699 L491.605,17.7 L491.782,12.7 L491.935007,7.701 L491.935007,7.701 C491.936,7.405 491.823,7.12 491.621,6.904 L491.621,6.904 L489.717,4.844 L486.231,1.258 L486.231,1.258 C486.025,1.038 485.737,0.913 485.436,0.913 L485.436,0.913 L484.27,0.943 L479.27,1.074 L474.27,1.221 C474.27,1.221 474.27,1.221 474.27,1.221 C473.847,1.22 473.503998,1.562 473.503998,1.984 C473.503,2.407 473.845,2.75 474.267,2.751 L474.267,2.751" id="Path" fill="#000000"></path>
                        <g id="Group" transform="translate(136.000000, 16.000000)" fill="#DBDADA">
                            <path d="M3.308,1.291 L30.306,1.291 C31.134,1.291 31.806,1.962 31.806,2.791 L31.806,13.533 C31.806,14.362 31.134,15.033 30.306,15.033 L3.308,15.033 C2.479,15.033 1.808,14.362 1.808,13.533 L1.808,2.791 C1.808,1.962 2.479,1.291 3.308,1.291 Z" id="Path"></path>
                            <path d="M3.308,2.056 L8.308,2.119 L13.308,2.18 L18.308,2.237 L23.308,2.289 L28.308,2.343 L30.306,2.364 L30.252,2.363 L30.405,2.372 L30.536,2.415 L30.6,2.468 L30.653,2.532 L30.694,2.606 L30.72,2.686 L30.73,2.771 L30.723,2.857 L30.708,2.846 L30.706,2.791 L30.657,7.791 L30.628,12.791 L30.624,13.533 L30.626,13.474 L30.617,13.627 L30.578,13.743 L30.532,13.787 L30.479,13.823 L30.419,13.85 L30.355,13.867 L30.289,13.87 L30.221,13.86 L30.246,13.845 L30.306,13.843 L25.306,13.865 L20.306,13.899 L15.306,13.957 L10.306,14.025 L5.306,14.091 L3.308,14.118 L3.354,14.119 L3.2,14.113 L3.043,14.075 L2.945,14.018 L2.858,13.943 L2.785,13.852 L2.73,13.748 L2.695,13.633 L2.684,13.509 L2.691,13.489 L2.692,13.533 L2.623,8.533 L2.553,3.533 L2.542,2.791 L2.541,2.828 L2.547,2.674 L2.588,2.49 L2.655,2.357 L2.746,2.239 L2.859,2.139 L2.991,2.061 L3.137,2.009 L3.295,1.987 L3.343,1.99 L3.343,1.99 C3.729,1.97 4.026,1.642 4.007,1.256 C3.987,0.869 3.658,0.572 3.272,0.592 C3.272,0.592 3.272,0.592 3.272,0.592 L3.014,0.61 L2.587,0.707 L2.195,0.883 L1.848,1.128 L1.554,1.434 L1.322,1.794 L1.162,2.199 L1.084,2.601 L1.074,2.754 L1.074,2.754 C1.074,2.766 1.073,2.778 1.073,2.791 L1.073,2.791 L1.063,3.533 L0.992,8.533 L0.924,13.533 L0.924,13.533 C0.924,13.548 0.924,13.563 0.925,13.578 L0.925,13.578 L0.947,13.864 L1.055,14.326 L1.248,14.748 L1.515,15.122 L1.849,15.438 L2.24,15.686 L2.68,15.857 L3.108,15.937 L3.262,15.947 L3.262,15.947 C3.277,15.948 3.292,15.948 3.308,15.948 L3.308,15.948 L5.306,15.975 L10.306,16.041 L15.306,16.109 L20.306,16.168 L25.306,16.202 L30.306,16.223 L30.306,16.223 C30.326,16.223 30.346,16.222 30.366,16.221 L30.366,16.221 L30.697,16.191 L31.215,16.061 L31.686,15.837 L32.1,15.531 L32.447,15.152 L32.717,14.709 L32.898,14.216 L32.979,13.746 L32.986,13.593 L32.986,13.593 C32.987,13.573 32.987,13.553 32.987,13.533 L32.987,13.533 L32.983,12.791 L32.954,7.791 L32.905,2.791 L32.905,2.791 C32.905,2.772 32.904,2.754 32.904,2.735 L32.904,2.735 L32.873,2.418 L32.746,1.919 L32.529,1.465 L32.233,1.067 L31.867,0.734 L31.442,0.475 L30.967,0.301 L30.513,0.225 L30.36,0.219 L30.36,0.219 C30.342,0.218 30.324,0.217 30.306,0.217 L30.306,0.217 L28.308,0.239 L23.308,0.292 L18.308,0.345 L13.308,0.401 L8.308,0.462 L3.308,0.526 C3.308,0.526 3.308,0.526 3.308,0.526 C2.885,0.526 2.543,0.868 2.543,1.291 C2.543,1.713 2.885,2.056 3.308,2.056 L3.308,2.056" id="Path"></path>
                        </g>
                        <path d="M479.683,8.962 L479.748,13.419 L479.748,13.419 C479.748,13.806 480.062,14.119 480.448,14.119 C480.835,14.119 481.148,13.806 481.148,13.419 L481.214,8.962 C481.214,8.962 481.214,8.962 481.214,8.962 C481.214,8.539 480.871,8.197 480.448,8.197 C480.026,8.197 479.683,8.539 479.683,8.962 L479.683,8.962" id="Path" fill="#000000"></path>
                        <path d="M477.949,11.955 L482.948,11.89 L482.948,11.89 C483.334,11.89 483.648,11.577 483.648,11.19 C483.648,10.804 483.334,10.49 482.948,10.49 L477.949,10.425 C477.949,10.425 477.949,10.425 477.949,10.425 C477.527,10.425 477.184,10.768 477.184,11.19 C477.184,11.613 477.527,11.955 477.949,11.955 L477.949,11.955" id="Path" fill="#000000"></path>
                        <path d="M477.838,17.126 L482.836,17.061 L482.836,17.061 C483.223,17.061 483.536,16.747 483.536,16.361 C483.536,15.974 483.223,15.661 482.836,15.661 L477.838,15.596 C477.838,15.596 477.838,15.596 477.838,15.596 C477.415,15.596 477.073,15.938 477.073,16.361 C477.073,16.783 477.415,17.126 477.838,17.126 L477.838,17.126" id="Path" fill="#000000"></path>
                        <path d="M43.364,15.378 L42.97,15.265 L42.115,15.092 L41.241,15.013 L40.378,15.028 L39.533,15.132 L38.712,15.321 L37.92,15.585 L37.16,15.918 L36.436,16.315 L35.751,16.768 L35.107,17.272 L34.509,17.821 L33.957,18.409 L33.453,19.03 L33.004,19.682 L32.608,20.358 L32.269,21.053 L31.991,21.764 L31.778,22.487 L31.634,23.217 L31.564,23.95 L31.575,24.681 L31.67,25.404 L31.859,26.112 L32.146,26.794 L32.537,27.437 L33.032,28.028 L33.629,28.552 L34.322,28.998 L34.916,29.286 L35.344,29.451 L35.776,29.584 L36.229,29.696 L36.702,29.786 L37.195,29.853 L37.462,29.881 L37.462,29.881 C37.47,29.882 37.479,29.883 37.487,29.883 L37.487,29.883 L37.896,29.911 L38.703,29.928 L39.48,29.883 L40.226,29.756 L40.946,29.533 L41.638,29.204 L42.296,28.766 L42.925,28.22 L43.245,27.895 L43.245,27.895 C43.579,27.58 43.594,27.055 43.28,26.721 C42.965,26.388 42.44,26.372 42.107,26.687 C42.107,26.687 42.107,26.687 42.107,26.687 L41.854,26.901 L41.355,27.27 L40.889,27.54 L40.43,27.729 L39.949,27.849 L39.416,27.909 L38.809,27.909 L38.102,27.846 L37.695,27.793 L37.721,27.796 L37.53,27.766 L37.146,27.693 L36.79,27.607 L36.462,27.509 L36.16,27.4 L35.899,27.29 L35.545,27.112 L35.129,26.839 L34.789,26.542 L34.514,26.221 L34.295,25.873 L34.127,25.494 L34.011,25.081 L33.945,24.636 L33.932,24.16 L33.972,23.66 L34.065,23.139 L34.211,22.606 L34.407,22.064 L34.653,21.523 L34.947,20.988 L35.286,20.465 L35.665,19.959 L36.084,19.476 L36.539,19.024 L37.025,18.604 L37.541,18.223 L38.085,17.886 L38.652,17.596 L39.241,17.357 L39.85,17.175 L40.479,17.05 L41.128,16.99 L41.798,16.998 L42.513,17.087 L42.913,17.173 C43.408,17.297 43.911,16.996 44.035,16.501 C44.16,16.005 43.859,15.503 43.364,15.378 L43.364,15.378" id="Path" fill="#000000"></path>
                        <path d="M47.496,22 L47.315,21.975 L46.92,21.946 L46.525,21.947 L46.145,21.982 L45.78,22.048 L45.433,22.146 L44.967,22.334 L44.401,22.66 L43.889,23.053 L43.435,23.469 L43.016,23.886 L42.813,24.089 L42.813,24.089 C42.808,24.093 42.804,24.098 42.8,24.103 L42.8,24.103 L42.675,24.233 L42.408,24.551 L42.167,24.9 L41.968,25.263 L41.815,25.639 L41.71,26.026 L41.655,26.418 L41.651,26.81 L41.731,27.347 L41.981,28.029 L42.389,28.659 L42.913,29.187 L43.526,29.609 L44.207,29.929 L44.941,30.143 L45.718,30.244 L46.524,30.226 L47.344,30.078 L48.16,29.791 L48.779,29.468 L49.184,29.199 L49.39,29.042 L49.39,29.042 C49.409,29.028 49.427,29.013 49.445,28.998 L49.445,28.998 L49.679,28.791 L50.165,28.249 L50.561,27.615 L50.818,26.936 L50.935,26.236 L50.914,25.54 L50.764,24.871 L50.502,24.244 L50.142,23.669 L49.694,23.157 L49.169,22.712 L48.577,22.341 L47.924,22.054 L47.221,21.857 L46.474,21.76 L45.695,21.771 L45.269,21.82 L45.269,21.82 C44.812,21.856 44.471,22.256 44.506,22.713 C44.542,23.17 44.942,23.511 45.399,23.475 L45.655,23.472 L46.188,23.513 L46.675,23.618 L47.115,23.776 L47.506,23.98 L47.846,24.219 L48.132,24.486 L48.361,24.77 L48.535,25.06 L48.653,25.348 L48.718,25.627 L48.734,25.896 L48.703,26.161 L48.613,26.428 L48.453,26.706 L48.165,27.023 L47.925,27.222 L47.98,27.178 L47.884,27.249 L47.675,27.39 L47.351,27.568 L46.888,27.747 L46.428,27.848 L45.977,27.882 L45.546,27.85 L45.148,27.766 L44.797,27.636 L44.503,27.475 L44.272,27.302 L44.102,27.13 L43.976,26.924 L43.922,26.75 L43.905,26.65 L43.903,26.538 L43.917,26.41 L43.955,26.263 L44.023,26.098 L44.125,25.916 L44.283,25.699 L44.401,25.563 L44.388,25.577 L44.576,25.366 L44.916,24.982 L45.22,24.656 L45.5,24.391 L45.796,24.17 L46.043,24.037 L46.211,23.967 L46.398,23.91 L46.611,23.867 L46.855,23.84 L47.149,23.834 L47.332,23.842 C47.841,23.888 48.29,23.512 48.335,23.003 C48.381,22.494 48.005,22.045 47.496,22 L47.496,22" id="Path" fill="#000000"></path>
                        <path d="M51.786,24.147 L51.799,24.166 L51.624,23.883 L51.618,24.013 L51.615,24.3 L51.608,24.679 L51.596,25.123 L51.572,25.868 L51.536,26.913 L51.509,27.662 L51.497,28.116 L51.487,28.515 L51.481,28.843 L51.48,29.089 L51.488,29.265 L51.557,29.583 L51.557,29.583 C51.767,30.167 52.411,30.47 52.994,30.26 C53.047,30.241 53.098,30.218 53.147,30.192 L53.147,30.192 L53.16,30.185 L53.713,29.493 L53.775,29.127 L53.778,28.899 L53.764,28.587 L53.727,28.135 L53.679,27.665 L53.628,27.224 L53.581,26.859 L53.554,26.666 L53.543,26.587 L53.539,26.563 L53.549,26.64 L53.531,26.411 L53.581,26.164 L53.685,25.933 L53.851,25.649 L54.078,25.334 L54.357,25.015 L54.672,24.71 L55.003,24.439 L55.146,24.337 L55.107,24.363 L55.235,24.277 L55.433,24.158 L55.692,24.036 L55.971,23.957 L56.151,23.955 L56.269,23.989 L56.356,24.042 L56.443,24.116 L56.544,24.225 L56.659,24.378 L56.776,24.576 L56.884,24.813 L56.974,25.077 L57.043,25.356 L57.087,25.635 L57.104,25.901 L57.093,26.138 L57.084,26.21 L57.084,26.208 L57.044,26.527 L57.009,27.25 L57.049,27.982 L57.153,28.69 L57.224,29.048 L57.224,29.048 C57.289,29.501 57.71,29.816 58.164,29.751 C58.618,29.685 58.933,29.265 58.867,28.811 L58.847,28.531 L58.83,27.961 L58.855,27.415 L58.934,26.865 L59.007,26.552 L59.007,26.552 C59.007,26.552 59.007,26.551 59.007,26.551 L59.007,26.551 L59.054,26.308 L59.102,25.867 L59.107,25.41 L59.067,24.941 L58.981,24.464 L58.845,23.986 L58.653,23.514 L58.398,23.055 L58.069,22.623 L57.653,22.239 L57.148,21.932 L56.57,21.735 L55.949,21.67 L55.316,21.74 L54.707,21.923 L54.251,22.134 L53.949,22.307 L53.819,22.389 L53.819,22.389 C53.806,22.398 53.793,22.406 53.781,22.415 L53.781,22.415 L53.506,22.61 L53.012,23.014 L52.541,23.478 L52.109,24 L51.73,24.58 L51.428,25.223 L51.236,25.933 L51.194,26.62 L51.217,26.849 L51.217,26.849 C51.22,26.875 51.223,26.9 51.227,26.926 L51.227,26.926 L51.23,26.942 L51.241,27.012 L51.27,27.192 L51.326,27.535 L51.39,27.945 L51.45,28.365 L51.497,28.737 L51.517,28.936 L51.524,28.973 L51.573,28.798 L52.094,28.206 L52.081,28.213 L53.672,28.822 L53.729,29.107 L53.719,29.037 L53.708,28.824 L53.697,28.51 L53.685,28.118 L53.673,27.667 L53.65,26.913 L53.614,25.856 L53.581,25.095 L53.556,24.63 L53.528,24.216 L53.497,23.857 L53.453,23.522 L53.227,22.986 L53.212,22.969 C53.212,22.969 53.212,22.969 53.212,22.969 C52.886,22.575 52.303,22.52 51.91,22.845 C51.516,23.171 51.46,23.754 51.786,24.147 L51.786,24.147" id="Path" fill="#000000"></path>
                        <path d="M59.251,24.769 L59.37,25.226 L59.602,26.071 L59.825,26.825 L60.035,27.492 L60.233,28.077 L60.423,28.585 L60.603,29.023 L60.778,29.399 L60.955,29.723 L61.146,30.01 L61.382,30.278 L61.734,30.541 L62.31,30.719 L62.995,30.603 L63.464,30.275 L63.725,29.94 L63.891,29.633 L64.017,29.334 L64.172,28.883 L64.367,28.217 L64.565,27.485 L64.789,26.711 L65.044,25.909 L65.344,25.1 L65.703,24.304 L65.896,23.935 L65.896,23.935 C66.154,23.556 66.057,23.04 65.678,22.782 C65.3,22.523 64.783,22.621 64.525,22.999 C64.525,22.999 64.525,22.999 64.525,22.999 L64.175,23.426 L63.587,24.278 L63.102,25.148 L62.708,26 L62.394,26.802 L62.138,27.512 L61.938,28.098 L61.818,28.429 L61.765,28.564 L61.752,28.612 L61.831,28.548 L62.111,28.398 L62.598,28.362 L62.962,28.514 L63.086,28.638 L63.073,28.649 L62.992,28.551 L62.872,28.358 L62.72,28.076 L62.54,27.71 L62.334,27.26 L62.097,26.726 L61.829,26.106 L61.528,25.399 L61.187,24.602 L61.001,24.168 C61.001,24.168 61.001,24.168 61.001,24.168 C60.835,23.685 60.309,23.428 59.825,23.594 C59.342,23.76 59.085,24.286 59.251,24.769 L59.251,24.769" id="Path" fill="#000000"></path>
                        <path d="M69.055,27.123 L69.244,27.126 L69.722,27.107 L70.257,27.051 L70.813,26.955 L71.371,26.812 L71.914,26.611 L72.43,26.334 L72.815,26.03 L73.066,25.745 L73.193,25.549 L73.193,25.549 C73.216,25.508 73.237,25.466 73.254,25.423 L73.254,25.423 L73.301,25.32 L73.409,24.853 L73.381,24.308 L73.226,23.83 L72.995,23.426 L72.718,23.08 L72.408,22.78 L72.072,22.518 L71.713,22.292 L71.336,22.1 L70.941,21.945 L70.529,21.832 L70.099,21.769 L69.647,21.773 L69.173,21.863 L68.691,22.074 L68.394,22.284 L68.394,22.284 C68.363,22.309 68.334,22.335 68.306,22.363 L68.306,22.363 L68.018,22.645 L67.442,23.318 L66.951,24.058 L66.574,24.828 L66.313,25.615 L66.173,26.408 L66.163,27.195 L66.25,27.802 L66.363,28.207 L66.512,28.574 L66.703,28.924 L66.935,29.254 L67.21,29.555 L67.525,29.823 L67.874,30.054 L68.256,30.245 L68.665,30.393 L69.098,30.496 L69.552,30.555 L70.026,30.573 L70.518,30.548 L71.029,30.48 L71.558,30.37 L72.107,30.217 L72.676,30.02 L72.978,29.901 L72.978,29.901 C73.414,29.76 73.653,29.292 73.511,28.856 C73.37,28.419 72.902,28.181 72.466,28.322 L72.215,28.382 L71.723,28.484 L71.271,28.553 L70.861,28.591 L70.491,28.602 L70.161,28.589 L69.872,28.554 L69.621,28.5 L69.407,28.434 L69.225,28.358 L69.073,28.275 L68.945,28.184 L68.838,28.087 L68.746,27.981 L68.667,27.867 L68.6,27.739 L68.545,27.596 L68.508,27.465 L68.468,27.221 L68.472,26.809 L68.55,26.35 L68.708,25.859 L68.948,25.351 L69.267,24.84 L69.691,24.314 L69.973,24.025 L69.885,24.105 L69.779,24.158 L69.733,24.141 L69.755,24.109 L69.844,24.088 L69.985,24.088 L70.161,24.116 L70.354,24.173 L70.551,24.253 L70.738,24.35 L70.905,24.455 L71.041,24.554 L71.137,24.633 L71.191,24.669 L71.22,24.637 L71.26,24.536 L71.304,24.501 L71.265,24.607 L71.326,24.481 L71.367,24.436 L71.397,24.439 L71.345,24.524 L71.116,24.692 L70.783,24.857 L70.387,25.001 L69.967,25.117 L69.557,25.202 L69.181,25.258 L68.993,25.274 C68.482,25.291 68.082,25.719 68.099,26.23 C68.117,26.74 68.545,27.14 69.055,27.123 L69.055,27.123" id="Path" fill="#000000"></path>
                        <path d="M73.993,24.035 L73.979,24.309 L73.955,24.827 L73.922,25.539 L73.884,26.371 L73.85,27.074 L73.819,27.657 L73.794,28.126 L73.771,28.488 L73.751,28.75 L73.738,28.92 L73.731,29.006 L73.728,29.058 L76.066,29.189 L76.082,29.08 L76.109,28.924 L76.148,28.72 L76.202,28.476 L76.269,28.196 L76.35,27.889 L76.503,27.38 L76.769,26.668 L77.006,26.159 L77.181,25.842 L77.384,25.529 L77.604,25.238 L77.846,24.976 L78.11,24.744 L78.398,24.543 L78.717,24.376 L79.075,24.242 L79.483,24.146 L79.682,24.115 L79.682,24.115 C80.14,24.1 80.5,23.717 80.485,23.259 C80.471,22.801 80.087,22.441 79.629,22.456 L79.26,22.442 L78.597,22.486 L77.973,22.62 L77.393,22.833 L76.863,23.114 L76.385,23.449 L75.958,23.827 L75.579,24.235 L75.247,24.668 L74.95,25.128 L74.587,25.816 L74.236,26.686 L74.047,27.295 L73.951,27.673 L73.877,28.018 L73.823,28.32 L73.784,28.574 L73.757,28.772 L73.742,28.9 L76.066,29.137 L76.065,29.152 L76.07,29.043 L76.076,28.847 L76.079,28.558 L76.079,28.171 L76.074,27.679 L76.054,27.075 L76.022,26.353 L75.97,25.507 L75.914,24.787 L75.868,24.265 L75.842,23.992 C75.842,23.992 75.842,23.992 75.842,23.992 C75.83,23.481 75.407,23.077 74.896,23.089 C74.385,23.101 73.981,23.524 73.993,24.035 L73.993,24.035" id="Path" fill="#000000"></path>
                        <path d="M82.988,22.345 L82.854,22.393 L82.466,22.582 L82.06,22.838 L81.672,23.144 L81.315,23.501 L81.007,23.92 L80.782,24.443 L80.717,24.996 L80.803,25.452 L80.917,25.709 L80.917,25.709 C80.942,25.753 80.969,25.796 81,25.836 L81,25.836 L81.058,25.922 L81.378,26.237 L81.813,26.486 L82.243,26.616 L82.644,26.67 L83.019,26.683 L83.536,26.665 L84.191,26.613 L84.764,26.589 L85.077,26.611 L85.189,26.642 L85.25,26.679 L85.234,26.701 L85.142,26.653 L85.027,26.544 L85.131,26.66 L85.142,26.733 L85.113,26.765 L85.093,26.851 L85.064,26.998 L85.01,27.196 L84.922,27.428 L84.802,27.677 L84.65,27.929 L84.474,28.171 L84.278,28.39 L84.072,28.578 L83.864,28.724 L83.666,28.825 L83.487,28.879 L83.331,28.89 L83.317,28.885 L83.418,28.897 L83.219,28.874 L82.955,28.812 L82.548,28.651 L81.913,28.345 L81.333,28.087 L80.862,27.929 L80.587,27.861 L80.587,27.861 C80.148,27.73 79.686,27.979 79.554,28.418 C79.422,28.857 79.671,29.32 80.111,29.451 C80.111,29.451 80.111,29.451 80.111,29.451 L80.23,29.502 L80.51,29.645 L80.991,29.947 L81.725,30.429 L82.377,30.758 L82.863,30.919 L83.058,30.964 L83.058,30.964 C83.091,30.97 83.125,30.974 83.159,30.977 L83.159,30.977 L83.509,30.998 L84.077,30.948 L84.606,30.8 L85.094,30.574 L85.54,30.286 L85.946,29.948 L86.311,29.567 L86.635,29.151 L86.914,28.703 L87.146,28.228 L87.321,27.726 L87.434,27.2 L87.464,26.648 L87.388,26.076 L87.177,25.508 L86.872,25.055 L86.765,24.942 L86.765,24.942 C86.729,24.903 86.69,24.867 86.649,24.833 L86.649,24.833 L86.38,24.638 L85.955,24.433 L85.546,24.323 L85.138,24.273 L84.598,24.273 L83.953,24.336 L83.376,24.413 L83.011,24.457 L82.837,24.472 L82.733,24.482 L82.711,24.508 L82.759,24.581 L82.768,24.638 L82.703,24.558 L82.785,24.685 L82.828,24.812 L82.828,24.995 L82.763,25.118 L82.742,25.041 L82.823,24.859 L82.984,24.641 L83.19,24.426 L83.399,24.245 L83.592,24.108 L83.719,24.044 C83.719,24.044 83.719,24.044 83.719,24.044 C84.189,23.842 84.405,23.297 84.203,22.828 C84.001,22.359 83.457,22.142 82.988,22.345 L82.988,22.345" id="Path" fill="#000000"></path>
                        <path d="M92.549,22.545 L92.339,22.521 L91.857,22.509 L91.367,22.554 L90.899,22.657 L90.456,22.817 L90.045,23.027 L89.669,23.283 L89.331,23.577 L89.032,23.903 L88.773,24.254 L88.551,24.626 L88.366,25.012 L88.16,25.591 L87.995,26.393 L87.953,27.218 L88.008,27.85 L88.091,28.273 L88.208,28.663 L88.364,29.041 L88.561,29.404 L88.803,29.746 L89.094,30.061 L89.436,30.339 L89.828,30.568 L90.266,30.737 L90.738,30.835 L91.232,30.857 L91.739,30.805 L92.25,30.682 L92.538,30.584 L92.538,30.584 C92.573,30.572 92.606,30.558 92.639,30.542 L92.639,30.542 L92.828,30.455 L93.361,30.104 L93.85,29.622 L94.242,29.084 L94.56,28.512 L94.818,27.918 L95.026,27.313 L95.192,26.706 L95.317,26.109 L95.408,25.532 L95.463,24.987 L95.486,24.482 L95.476,24.023 L95.43,23.609 L95.33,23.208 L95.052,22.714 L94.405,22.295 L94.405,22.295 C94.289,22.263 94.17,22.249 94.05,22.254 L94.05,22.254 L93.964,22.26 L93.642,22.316 L93.251,22.471 L92.892,22.748 L92.631,23.112 L92.49,23.494 L92.442,23.852 L92.451,24.179 L92.524,24.609 L92.699,25.176 L92.941,25.752 L93.231,26.325 L93.728,27.168 L94.275,27.986 L94.649,28.499 L95.01,28.96 L95.352,29.366 L95.665,29.706 L95.884,29.92 L96.029,30.047 L96.113,30.114 L96.113,30.114 C96.466,30.407 96.989,30.358 97.282,30.005 C97.575,29.652 97.526,29.129 97.173,28.837 C97.173,28.837 97.173,28.837 97.173,28.837 L97.167,28.829 L97.109,28.767 L96.976,28.607 L96.745,28.299 L96.48,27.912 L96.194,27.466 L95.904,26.985 L95.477,26.217 L95.097,25.446 L94.896,24.977 L94.749,24.571 L94.661,24.248 L94.635,24.086 L94.629,24.063 L94.611,24.109 L94.548,24.222 L94.416,24.364 L94.239,24.468 L94.088,24.505 L94.065,24.5 L94.151,24.498 L93.797,24.457 L93.257,24.069 L93.155,23.807 L93.175,23.844 L93.194,24.044 L93.191,24.347 L93.162,24.723 L93.106,25.15 L93.025,25.607 L92.916,26.076 L92.786,26.541 L92.633,26.983 L92.465,27.383 L92.291,27.725 L92.123,27.99 L91.984,28.173 L91.82,28.319 L91.633,28.409 L91.734,28.367 L91.642,28.407 L91.429,28.478 L91.258,28.516 L91.122,28.531 L91.013,28.532 L90.916,28.52 L90.823,28.492 L90.728,28.441 L90.631,28.365 L90.534,28.258 L90.441,28.121 L90.356,27.957 L90.283,27.768 L90.226,27.581 L90.165,27.256 L90.145,26.763 L90.206,26.245 L90.306,25.866 L90.39,25.641 L90.489,25.432 L90.604,25.239 L90.731,25.063 L90.872,24.906 L91.029,24.767 L91.204,24.646 L91.401,24.544 L91.626,24.463 L91.884,24.407 L92.205,24.383 L92.417,24.39 C92.926,24.426 93.369,24.043 93.405,23.533 C93.442,23.024 93.058,22.581 92.549,22.545 L92.549,22.545" id="Path" fill="#000000"></path>
                        <path d="M97.455,16.266 L97.469,16.617 L97.44,17.271 L97.358,17.951 L97.232,18.678 L96.986,19.847 L96.632,21.491 L96.39,22.775 L96.272,23.66 L96.209,24.547 L96.215,25.44 L96.311,26.335 L96.521,27.225 L96.771,27.902 L96.992,28.351 L97.243,28.768 L97.535,29.17 L97.711,29.383 L97.711,29.383 C97.723,29.398 97.735,29.412 97.747,29.425 L97.747,29.425 L97.837,29.522 L98.09,29.758 L98.517,30.055 L99.152,30.316 L99.855,30.409 L100.531,30.324 L101.144,30.108 L101.693,29.805 L102.186,29.442 L102.63,29.037 L103.029,28.604 L103.386,28.157 L103.698,27.705 L103.965,27.26 L104.182,26.831 L104.349,26.425 L104.463,26.042 L104.506,25.815 L104.506,25.815 C104.596,25.365 104.305,24.928 103.855,24.838 C103.406,24.748 102.968,25.04 102.878,25.489 L102.873,25.506 L102.793,25.696 L102.649,25.954 L102.452,26.252 L102.209,26.571 L101.931,26.895 L101.628,27.209 L101.31,27.497 L100.991,27.744 L100.688,27.942 L100.419,28.08 L100.205,28.16 L100.056,28.198 L99.949,28.218 L99.799,28.181 L99.662,28.092 L99.554,27.987 L99.468,27.887 L99.504,27.929 L99.423,27.825 L99.251,27.575 L99.101,27.318 L98.981,27.072 L98.826,26.67 L98.675,26.06 L98.59,25.396 L98.566,24.683 L98.598,23.928 L98.672,23.147 L98.841,21.91 L99.12,20.212 L99.292,18.94 L99.367,18.091 L99.391,17.25 L99.346,16.45 L99.298,16.102 C99.298,16.102 99.298,16.102 99.298,16.102 C99.253,15.594 98.803,15.218 98.295,15.263 C97.786,15.308 97.41,15.758 97.455,16.266 L97.455,16.266" id="Path" fill="#000000"></path>
                        <path d="M97.568,21.57 L99.012,21.833 L100.457,21.475 L100.457,21.475 C100.915,21.475 101.287,21.104 101.287,20.645 C101.287,20.187 100.915,19.815 100.457,19.815 C100.457,19.815 100.457,19.815 100.457,19.815 L99.012,19.457 L97.568,19.72 C97.057,19.72 96.643,20.134 96.643,20.645 C96.643,21.156 97.057,21.57 97.568,21.57 L97.568,21.57" id="Path" fill="#000000"></path>
                        <path d="M103.576,23.744 L103.478,24.406 L103.322,25.698 L103.34,27.661 L103.556,29.007 L103.556,29.007 C103.548,29.465 103.914,29.843 104.372,29.85 C104.83,29.858 105.208,29.492 105.216,29.034 L105.475,27.735 L105.63,25.746 L105.53,24.399 L105.426,23.737 C105.426,23.737 105.426,23.737 105.426,23.737 C105.424,23.226 105.009,22.813 104.498,22.8149928 C103.987,22.817 103.574,23.233 103.576,23.744 L103.576,23.744" id="Path" fill="#000000"></path>
                        <path d="M112.057,23.148 L111.83,22.986 L111.228,22.67 L110.545,22.456 L109.843,22.37 L109.139,22.406 L108.452,22.562 L107.798,22.838 L107.192,23.232 L106.877,23.507 L106.877,23.507 C106.858,23.525 106.84,23.543 106.823,23.563 L106.823,23.563 L106.723,23.666 L106.493,23.945 L106.197,24.402 L105.905,25.06 L105.731,25.771 L105.684,26.49 L105.753,27.199 L105.931,27.884 L106.215,28.532 L106.605,29.127 L107.097,29.655 L107.692,30.095 L108.228,30.365 L108.628,30.501 L109.018,30.587 L109.425,30.633 L109.843,30.637 L110.27,30.597 L110.702,30.513 L111.137,30.384 L111.574,30.212 L112.01,29.997 L112.246,29.862 L112.246,29.862 C112.264,29.852 112.282,29.841 112.3,29.829 L112.3,29.829 L112.576,29.647 L113.168,29.167 L113.699,28.599 L114.126,27.978 L114.45,27.32 L114.668,26.638 L114.773,25.943 L114.765,25.248 L114.637,24.567 L114.381,23.918 L113.994,23.322 L113.601,22.908 L113.292,22.661 L112.972,22.461 L112.627,22.292 L112.259,22.155 L111.87,22.051 L111.461,21.98 L111.033,21.943 L110.588,21.94 L110.125,21.972 L109.873,22.002 L109.873,22.002 C109.416,22.035 109.072,22.432 109.105,22.889 C109.137,23.346 109.535,23.691 109.992,23.658 L110.162,23.658 L110.505,23.672 L110.814,23.705 L111.092,23.756 L111.339,23.822 L111.557,23.899 L111.748,23.987 L111.913,24.083 L112.055,24.185 L112.161,24.274 L112.302,24.423 L112.463,24.671 L112.572,24.951 L112.629,25.263 L112.629,25.602 L112.567,25.958 L112.446,26.322 L112.263,26.683 L112.018,27.03 L111.714,27.356 L111.312,27.673 L111.032,27.847 L111.086,27.815 L110.965,27.882 L110.699,28.014 L110.453,28.113 L110.226,28.184 L110.018,28.231 L109.827,28.257 L109.651,28.265 L109.487,28.257 L109.334,28.233 L109.217,28.208 L109.031,28.147 L108.766,27.996 L108.526,27.787 L108.319,27.526 L108.149,27.226 L108.027,26.898 L107.957,26.557 L107.941,26.214 L107.976,25.879 L108.081,25.535 L108.21,25.285 L108.327,25.12 L108.42,25.01 L108.366,25.066 L108.44,24.969 L108.701,24.741 L109.006,24.561 L109.342,24.434 L109.697,24.365 L110.059,24.356 L110.418,24.409 L110.804,24.554 L111.044,24.696 C111.472,24.976 112.045,24.856 112.325,24.429 C112.604,24.001 112.484,23.428 112.057,23.148 L112.057,23.148" id="Path" fill="#000000"></path>
                        <path d="M115.431,25.295 L115.449,25.32 L115.311,25.099 L115.302,25.192 L115.299,25.442 L115.291,25.778 L115.279,26.174 L115.262,26.839 L115.253,27.776 L115.272,28.468 L115.302,28.909 L115.353,29.313 L115.434,29.691 L115.58,30.071 L115.926,30.521 L116.516,30.819 L116.516,30.819 C116.612,30.84 116.71,30.848 116.807,30.843 L116.807,30.843 L116.898,30.841 L117.257,30.775 L117.736,30.525 L118.114,30.042 L118.245,29.528 L118.225,29.124 L118.117,28.692 L117.924,28.194 L117.728,27.749 L117.582,27.379 L117.536,27.198 L117.545,27.174 L117.558,27.233 L117.559,27.32 L117.574,26.981 L117.651,26.362 L117.799,25.773 L117.956,25.378 L118.077,25.146 L118.223,24.913 L118.386,24.703 L118.569,24.516 L118.77,24.353 L118.995,24.211 L119.249,24.091 L119.54,23.993 L119.876,23.918 L120.033,23.897 L119.974,23.904 L120.162,23.885 L120.427,23.878 L120.62,23.897 L120.773,23.935 L120.892,23.983 L120.989,24.04 L121.072,24.105 L121.148,24.185 L121.225,24.282 L121.301,24.403 L121.426,24.654 L121.563,25.065 L121.663,25.541 L121.732,26.083 L121.77,26.668 L121.779,27.271 L121.77,27.873 L121.749,28.452 L121.723,28.992 L121.703,29.476 L121.695,29.893 L121.699,30.092 L121.699,30.092 C121.688,30.55 122.05,30.931 122.508,30.943 C122.966,30.954 123.347,30.592 123.358,30.133 C123.358,30.133 123.358,30.133 123.358,30.133 L123.37,30.013 L123.419,29.642 L123.491,29.168 L123.575,28.612 L123.658,27.992 L123.73,27.324 L123.774,26.622 L123.782,25.898 L123.736,25.162 L123.614,24.425 L123.403,23.719 L123.172,23.217 L122.96,22.884 L122.706,22.571 L122.406,22.287 L122.064,22.041 L121.685,21.842 L121.276,21.694 L120.844,21.6 L120.395,21.557 L119.955,21.56 L119.767,21.574 L119.767,21.574 C119.748,21.576 119.728,21.578 119.709,21.581 L119.709,21.581 L119.358,21.63 L118.751,21.769 L118.19,21.974 L117.679,22.236 L117.221,22.548 L116.819,22.903 L116.473,23.29 L116.179,23.7 L115.934,24.125 L115.727,24.581 L115.501,25.255 L115.323,26.119 L115.251,26.922 L115.249,27.262 L115.249,27.262 C115.248,27.29 115.248,27.319 115.25,27.348 L115.25,27.348 L115.271,27.566 L115.339,27.885 L115.47,28.268 L115.662,28.703 L115.842,29.072 L115.972,29.339 L116.016,29.414 L116.035,29.303 L116.14,29.038 L116.419,28.751 L116.711,28.64 L116.785,28.647 L116.694,28.654 L116.985,28.678 L117.448,28.948 L117.573,29.185 L117.54,29.164 L117.482,28.984 L117.426,28.7 L117.379,28.35 L117.324,27.728 L117.272,26.82 L117.242,26.155 L117.223,25.743 L117.203,25.368 L117.177,25.03 L117.129,24.689 L116.934,24.213 L116.914,24.189 C116.914,24.189 116.914,24.189 116.914,24.189 C116.609,23.779 116.03,23.695 115.62,24 C115.21,24.305 115.126,24.885 115.431,25.295 L115.431,25.295" id="Path" fill="#000000"></path>
                        <path d="M131.168,22.421 L131.155,22.355 L131.049,22.073 L130.846,21.771 L130.588,21.537 L130.203,21.33 L129.665,21.194 L129.11,21.164 L128.564,21.208 L128.019,21.306 L127.481,21.449 L126.957,21.632 L126.456,21.85 L125.99,22.105 L125.566,22.4 L125.189,22.752 L124.872,23.21 L124.685,23.861 L124.773,24.542 L125.004,24.974 L125.171,25.171 L125.171,25.171 C125.204,25.205 125.238,25.237 125.275,25.267 L125.275,25.267 L125.389,25.364 L125.85,25.649 L126.371,25.872 L126.892,26.037 L127.668,26.243 L128.681,26.505 L129.325,26.712 L129.639,26.849 L129.861,26.989 L129.951,27.094 L129.907,27.086 L129.854,27.017 L129.831,26.98 L129.816,26.956 L129.803,26.968 L129.776,27.028 L129.722,27.139 L129.63,27.299 L129.58,27.376 L129.631,27.309 L129.536,27.434 L129.412,27.544 L129.263,27.643 L129.05,27.754 L128.788,27.861 L128.492,27.953 L128.178,28.026 L127.859,28.072 L127.552,28.09 L127.272,28.081 L127.036,28.045 L126.861,27.991 L126.763,27.933 L126.747,27.898 L126.78,27.905 L126.812,27.915 L126.818,27.952 L126.818,27.952 C126.881,27.498 126.565,27.079 126.111,27.015 C125.657,26.951 125.237,27.268 125.174,27.721 L125.135,28.071 L125.219,28.638 L125.473,29.114 L125.824,29.465 L126.221,29.71 L126.645,29.878 L127.092,29.988 L127.558,30.05 L128.039,30.065 L128.529,30.039 L129.022,29.971 L129.512,29.855 L129.994,29.692 L130.461,29.473 L130.906,29.182 L131.271,28.847 L131.374,28.729 L131.374,28.729 C131.392,28.707 131.409,28.685 131.425,28.662 L131.425,28.662 L131.562,28.471 L131.779,28.121 L131.951,27.759 L132.072,27.379 L132.133,26.983 L132.122,26.581 L132.038,26.194 L131.864,25.803 L131.534,25.358 L131.07,24.959 L130.575,24.672 L130.044,24.446 L129.258,24.198 L128.243,23.953 L127.563,23.794 L127.21,23.698 L126.975,23.629 L126.834,23.58 L126.716,23.488 L126.82,23.584 L126.88,23.67 L126.952,23.873 L126.931,24.198 L126.818,24.358 L126.795,24.317 L126.899,24.176 L127.108,23.996 L127.395,23.805 L127.733,23.621 L128.1,23.455 L128.471,23.318 L128.822,23.215 L129.122,23.15 L129.332,23.116 L129.443,23.092 L129.449,23.054 L129.397,22.975 L129.354,22.865 L129.355,22.811 L129.375,22.875 C129.5,23.37 130.003,23.67 130.499,23.545 C130.994,23.419 131.294,22.916 131.168,22.421 L131.168,22.421" id="Path" fill="#000000"></path>
                        <path d="M142.436,21.485 L142.665,21.478 L143.059,21.483 L143.404,21.509 L143.711,21.553 L143.982,21.612 L144.216,21.683 L144.412,21.764 L144.573,21.85 L144.698,21.937 L144.79,22.02 L144.852,22.098 L144.888,22.165 L144.923,22.277 L144.903,22.39 L144.841,22.444 L144.759,22.512 L144.632,22.618 L144.509,22.698 L144.407,22.758 L144.258,22.841 L144.082,22.921 L143.878,22.997 L143.645,23.065 L143.384,23.122 L143.093,23.166 L142.774,23.196 L142.425,23.21 L142.257,23.209 L142.681,23.282 L142.669,23.277 L142.879,25.383 L142.862,25.407 L143.033,25.361 L143.287,25.303 L143.597,25.244 L143.943,25.191 L144.311,25.154 L144.682,25.14 L145.039,25.153 L145.364,25.196 L145.636,25.272 L145.841,25.37 L145.969,25.481 L145.998,25.541 L146.002,25.566 L146.027,25.627 L146.05,25.707 L146.052,25.723 L146.04,25.67 L146.076,25.833 L146.116,26.068 L146.126,26.238 L146.118,26.363 L146.099,26.446 L146.076,26.493 L146.057,26.513 L146.042,26.521 L146.023,26.53 L145.993,26.546 L145.877,26.6 L145.648,26.664 L145.342,26.711 L144.951,26.74 L144.498,26.741 L143.743,26.703 L142.975,26.641 L142.471,26.6 L141.986,26.569 L141.53,26.557 L141.297,26.562 L141.297,26.562 C140.839,26.551 140.458,26.914 140.447,27.372 C140.436,27.83 140.799,28.211 141.257,28.222 C141.257,28.222 141.257,28.222 141.257,28.222 L141.399,28.236 L141.78,28.29 L142.229,28.37 L142.733,28.467 L143.556,28.616 L144.418,28.736 L145.015,28.78 L145.622,28.777 L146.239,28.698 L146.832,28.524 L147.252,28.312 L147.535,28.104 L147.79,27.85 L148.007,27.553 L148.174,27.223 L148.29,26.873 L148.358,26.509 L148.382,26.136 L148.367,25.752 L148.321,25.377 L148.291,25.212 L148.291,25.212 C148.287,25.194 148.283,25.176 148.279,25.159 L148.279,25.159 L148.221,24.942 L148.093,24.591 L147.924,24.266 L147.694,23.946 L147.307,23.563 L146.775,23.213 L146.221,22.983 L145.664,22.847 L145.113,22.779 L144.575,22.763 L144.058,22.789 L143.57,22.844 L143.12,22.918 L142.717,23.005 L142.37,23.095 L142.077,23.186 L141.758,23.315 L141.855,25.483 L141.866,25.487 L141.866,25.487 C142.002,25.537 142.146,25.561 142.29,25.559 L142.29,25.559 L142.56,25.552 L143.05,25.517 L143.516,25.455 L143.958,25.363 L144.375,25.246 L144.767,25.105 L145.135,24.94 L145.476,24.751 L145.79,24.538 L146.095,24.281 L146.481,23.851 L146.839,23.23 L147.018,22.544 L146.991,21.84 L146.778,21.219 L146.516,20.812 L146.282,20.554 L146.016,20.327 L145.721,20.131 L145.401,19.965 L145.057,19.829 L144.689,19.722 L144.299,19.642 L143.886,19.592 L143.45,19.57 L142.99,19.577 L142.519,19.613 L142.292,19.641 C141.783,19.681 141.402,20.126 141.442,20.635 C141.482,21.145 141.927,21.525 142.436,21.485 L142.436,21.485" id="Path" fill="#000000"></path>
                        <path d="M153.563,19.611 L153.417,19.585 L153.076,19.55 L152.724,19.547 L152.382,19.58 L151.919,19.688 L151.351,19.939 L150.841,20.308 L150.431,20.752 L150.114,21.236 L149.876,21.734 L149.703,22.23 L149.584,22.71 L149.505,23.164 L149.46,23.581 L149.443,23.952 L149.448,24.269 L149.471,24.534 L149.527,24.798 L149.858,25.344 L149.858,25.344 C150.087,25.562 150.396,25.675 150.711,25.657 L150.711,25.657 L150.818,25.653 L151.204,25.597 L151.592,25.498 L151.95,25.383 L152.459,25.204 L153.108,24.999 L153.51,24.92 L153.693,24.913 L153.833,24.935 L153.894,24.974 L153.89,25.01 L153.868,25.044 L153.877,25.123 L153.901,25.226 L153.927,25.336 L153.94,25.397 L153.927,25.326 L153.969,25.584 L153.973,25.926 L153.922,26.189 L153.831,26.431 L153.703,26.652 L153.545,26.853 L153.359,27.025 L153.155,27.16 L152.944,27.255 L152.738,27.306 L152.547,27.313 L152.375,27.279 L152.218,27.208 L152.063,27.089 L151.957,26.974 L151.882,26.876 L151.79,26.731 L151.699,26.555 L151.66,26.471 L151.66,26.471 C151.512,26.037 151.04,25.805 150.606,25.953 C150.172,26.101 149.941,26.573 150.089,27.007 L150.144,27.199 L150.265,27.535 L150.414,27.847 L150.606,28.153 L150.945,28.548 L151.452,28.935 L152.015,29.183 L152.601,29.293 L153.184,29.278 L153.749,29.155 L154.286,28.933 L154.783,28.621 L155.233,28.226 L155.625,27.751 L155.938,27.201 L156.161,26.584 L156.275,25.915 L156.274,25.261 L156.243,25.001 L156.243,25.001 C156.239,24.977 156.235,24.953 156.23,24.93 L156.23,24.93 L156.191,24.737 L156.094,24.38 L155.887,23.882 L155.509,23.335 L155.021,22.922 L154.485,22.67 L153.959,22.558 L153.468,22.546 L152.99,22.603 L152.366,22.754 L151.651,23 L151.189,23.177 L150.948,23.269 L150.787,23.328 L150.689,23.361 L150.582,23.369 L151.435,23.682 L151.739,24.203 L151.742,24.274 L151.724,24.178 L151.709,23.994 L151.703,23.752 L151.712,23.472 L151.739,23.171 L151.787,22.865 L151.855,22.573 L151.941,22.306 L152.041,22.078 L152.152,21.888 L152.278,21.731 L152.47,21.589 L152.665,21.506 L152.806,21.468 L152.974,21.443 L153.191,21.438 L153.339,21.448 C153.846,21.51 154.307,21.149 154.369,20.641 C154.431,20.134 154.07,19.673 153.563,19.611 L153.563,19.611" id="Path" fill="#000000"></path>
                        <path d="M152.893,21.448 L153.124,21.577 L153.524,21.781 L154.188,21.852 L154.694,21.739 L154.694,21.739 C155.138,21.855 155.591,21.589 155.707,21.146 C155.823,20.702 155.557,20.249 155.113,20.133 C155.113,20.133 155.113,20.133 155.113,20.133 L154.687,19.777 L153.927,19.506 L153.364,19.539 L153.11,19.611 C152.603,19.551 152.143,19.914 152.083,20.421 C152.023,20.929 152.386,21.388 152.893,21.448 L152.893,21.448" id="Path" fill="#000000"></path>
                        <path d="M158.464,21.379 L158.319,21.681 L158.057,22.213 L157.816,22.681 L157.605,23.105 L157.425,23.495 L157.278,23.867 L157.169,24.25 L157.119,24.7 L157.221,25.286 L157.632,25.902 L158.233,26.26 L158.814,26.386 L159.384,26.4 L159.848,26.363 L160.178,26.318 L160.525,26.259 L160.897,26.182 L161.299,26.089 L161.731,25.974 L161.961,25.908 L161.961,25.908 C162.417,25.863 162.75,25.457 162.705,25.001 C162.66,24.544 162.254,24.211 161.798,24.256 L161.567,24.236 L161.134,24.203 L160.742,24.179 L160.389,24.158 L160.076,24.142 L159.811,24.125 L159.496,24.101 L159.229,24.074 L159.183,24.088 L159.349,24.256 L159.498,24.598 L159.49,24.821 L159.463,24.811 L159.492,24.634 L159.576,24.337 L159.703,23.946 L159.852,23.469 L160.008,22.91 L160.16,22.285 L160.222,21.956 C160.381,21.471 160.116,20.948 159.631,20.789 C159.146,20.63 158.623,20.894 158.464,21.379 L158.464,21.379" id="Path" fill="#000000"></path>
                        <path d="M162.181,21.938 L161.998,22.299 L161.687,23.125 L161.406,24.399 L161.23,26.05 L161.181,27.198 L161.123,27.9 L161.093,28.232 L161.093,28.232 C160.946,28.666 161.18,29.137 161.614,29.283 C162.049,29.429 162.519,29.196 162.666,28.762 L162.889,28.341 L163.214,27.507 L163.524,26.293 L163.688,24.753 L163.774,23.655 L163.857,22.934 L163.932,22.536 C163.932,22.536 163.932,22.536 163.932,22.536 C164.097,22.052 163.839,21.527 163.356,21.361 C162.872,21.196 162.347,21.454 162.181,21.938 L162.181,21.938" id="Path" fill="#000000"></path>
                        <path d="M162.327,21.832 L162.165,22.167 L161.895,22.794 L161.705,23.784 L161.723,24.502 L161.723,24.502 C161.583,24.938 161.822,25.406 162.258,25.547 C162.695,25.688 163.162,25.448 163.303,25.012 L163.763,24.36 L164.15,23.29 L164.186,22.524 L164.149,22.154 C164.238,21.651 163.902,21.171 163.399,21.082 C162.896,20.993 162.416,21.329 162.327,21.832 L162.327,21.832" id="Path" fill="#000000"></path>
                    </g>
                </g>
            </g>
        </g>
    </g>
</svg>