<?xml version="1.0" encoding="UTF-8" standalone="no"?>
<svg
   xmlns:dc="http://purl.org/dc/elements/1.1/"
   xmlns:cc="http://creativecommons.org/ns#"
   xmlns:rdf="http://www.w3.org/1999/02/22-rdf-syntax-ns#"
   xmlns:svg="http://www.w3.org/2000/svg"
   xmlns="http://www.w3.org/2000/svg"
   xmlns:sodipodi="http://sodipodi.sourceforge.net/DTD/sodipodi-0.dtd"
   xmlns:inkscape="http://www.inkscape.org/namespaces/inkscape"
   width="2560px"
   height="1442px"
   viewBox="0 0 2560 1442"
   version="1.1"
   id="svg159"
   sodipodi:docname="keep-insisting.svg"
   inkscape:version="0.92.3 (2405546, 2018-03-11)">
  <metadata
     id="metadata163">
    <rdf:RDF>
      <cc:Work
         rdf:about="">
        <dc:format>image/svg+xml</dc:format>
        <dc:type
           rdf:resource="http://purl.org/dc/dcmitype/StillImage" />
      </cc:Work>
    </rdf:RDF>
  </metadata>
  <sodipodi:namedview
     pagecolor="#ffffff"
     bordercolor="#666666"
     borderopacity="1"
     objecttolerance="10"
     gridtolerance="10"
     guidetolerance="10"
     inkscape:pageopacity="0"
     inkscape:pageshadow="2"
     inkscape:window-width="1920"
     inkscape:window-height="1025"
     id="namedview161"
     showgrid="false"
     inkscape:zoom="0.37786019"
     inkscape:cx="1399.7814"
     inkscape:cy="888.28749"
     inkscape:window-x="0"
     inkscape:window-y="27"
     inkscape:window-maximized="1"
     inkscape:current-layer="background-main" />
  <!-- Generator: Sketch 58 (84663) - https://sketch.com -->
  <title
     id="title2">background-main</title>
  <desc
     id="desc4">Created with Sketch.</desc>
  <defs
     id="defs26">
    <linearGradient
       x1="50%"
       y1="9.97548296%"
       x2="50%"
       y2="99.7788683%"
       id="linearGradient-1">
      <stop
         stop-color="#CE1010"
         offset="0%"
         id="stop6" />
      <stop
         stop-color="#9D1212"
         offset="99.9181799%"
         id="stop8" />
    </linearGradient>
    <linearGradient
       x1="50%"
       y1="9.6303304%"
       x2="50%"
       y2="99.7141409%"
       id="linearGradient-2">
      <stop
         stop-color="#F63F18"
         offset="0%"
         id="stop11" />
      <stop
         stop-color="#950F0F"
         offset="99.9366554%"
         id="stop13" />
    </linearGradient>
    <linearGradient
       x1="50%"
       y1="-7.62502133%"
       x2="50%"
       y2="76.062468%"
       id="linearGradient-3">
      <stop
         stop-color="#132532"
         offset="0%"
         id="stop16" />
      <stop
         stop-color="#132532"
         stop-opacity="0"
         offset="100%"
         id="stop18" />
    </linearGradient>
    <linearGradient
       x1="50%"
       y1="0%"
       x2="50%"
       y2="91.6085379%"
       id="linearGradient-4">
      <stop
         stop-color="#E5E5E5"
         offset="0%"
         id="stop21" />
      <stop
         stop-color="#FFFFFF"
         offset="100%"
         id="stop23" />
    </linearGradient>
  </defs>
  <g
     id="background-main"
     stroke="none"
     stroke-width="1"
     fill="none"
     fill-rule="evenodd">
    <path
       id="rect28"
       d="M 0,0 V 1442 H 2560 V 0 Z m 1168.8379,902.78906 c 2.415,0.0655 4.8023,0.96033 6.6914,2.73828 1.1718,1.10293 1.6658,2.75549 2.498,4.13282 0.1525,1.17556 0.3838,2.34225 0.4571,3.52539 0.01,0.0833 -0.1547,0.0614 -0.2324,0.0918 l 0.064,0.89454 c 0.9462,3.49824 3.0223,6.59826 3.3359,10.28906 -0.01,4.48121 0.017,8.96214 0.016,13.44336 1.8487,2.07232 2.5339,5.92619 0.6113,10.83984 -0.2046,0.52293 -0.4386,1.07376 -0.6621,1.61133 0.02,1.85159 0.058,3.7025 0.1582,5.55273 0.073,3.22294 1.1555,18.27177 -2.502,19.60547 -3.587,1.30799 -7.7353,-1.03522 -11.0937,-2.85156 -1.0047,-0.54343 -1.75,-4.46971 -0.4961,-3.39258 -0.5598,-2.58664 -1.6792,-4.06593 -1.9082,-6.94531 -0.3992,-5.02007 0.8337,-9.86079 2.5918,-14.50195 0.01,-3.05425 0.059,-6.10838 0.07,-9.16211 0.01,-4.65263 -0.022,-9.30636 -0.018,-13.95899 -0.8145,5.32803 -2.4007,10.5363 -4.1836,15.64844 -0.2612,0.83434 -0.633,1.64264 -0.7832,2.50391 -0.097,0.55635 0.5454,1.00224 0.6485,1.50781 0.4456,2.18397 0.4758,2.783 0.5039,4.03711 0.1755,0.3339 0.2081,0.45548 0.039,1.22461 -0.02,-0.65196 -0.03,-0.83708 -0.039,-1.22461 -0.082,-0.15594 -0.1256,-0.22157 -0.3203,-0.66992 -5.2176,-12.01544 -3.1591,19.41614 -10.2325,8.39062 -2.3487,-3.66108 -1.3857,-1.58118 -2.6386,-6.3418 0.063,-1.6476 -0.1032,-1.37809 -0.5,-3.36914 -0.7056,-3.54042 -0.5776,-7.07245 0.8359,-10.4375 1.6619,-4.70821 2.8934,-8.59341 3.6094,-13.5957 0.4187,-2.92527 0.6596,-7.86094 1.5761,-10.6543 0.4525,-1.37908 1.3789,-2.55292 2.0684,-3.83008 0.993,-0.95285 1.8893,-2.01804 2.9785,-2.85937 1.9979,-1.54331 4.4405,-2.30767 6.8555,-2.24219 z m -3.457,9.04102 c -0.025,0.0246 -0.1058,0.23407 -0.2793,0.66601 0.058,0.2686 0.094,0.48138 0.1347,0.70118 0.077,-0.83696 0.1876,-1.4092 0.1446,-1.36719 z m 33.8828,30.29687 c 0.323,0.006 0.6463,0.0272 0.9668,0.0723 2.7731,0.39008 6.0721,1.98608 8.5586,3.02344 1.4034,0.63244 2.7156,1.53302 4.2109,1.89843 2.0778,0.50775 4.254,0.44508 6.3789,0.68946 1.8095,0.20811 3.6059,0.55531 5.4238,0.66797 6.8244,0.42295 13.7123,-0.19744 20.5391,-0.0352 6.8549,-0.18604 13.7643,-0.63528 20.623,-0.41211 5.5756,0.18142 6.7443,0.426 12.0215,1.2168 2.0732,0.31067 4.1433,0.64167 6.2149,0.96289 4.2148,1.08809 5.9144,1.58256 10.0996,2.45898 1.8845,0.39464 3.8171,0.57769 5.6699,1.10156 7.9708,2.25372 14.9666,6.82453 22.2598,10.57618 11.6486,5.9921 5.8681,17.55072 -5.918,11.83398 -6.8677,-3.33108 -13.2656,-7.97361 -20.7461,-9.93359 -1.172,-0.30708 -2.403,-0.31928 -3.5918,-0.55274 -3.9234,-0.77045 -7.1952,-1.6729 -11.0742,-2.66992 -1.6225,-0.23013 -3.245,-0.45757 -4.8672,-0.68945 -5.286,-0.75556 -5.541,-0.95891 -10.8867,-1.09766 -6.4671,-0.16785 -12.9826,0.25813 -19.4453,0.4336 -6.983,-0.16261 -14.0292,0.46663 -21.0098,0.0371 -2.2886,-0.14083 -4.5565,-0.50474 -6.8359,-0.7539 -2.0928,-0.22877 -4.2348,-0.17767 -6.2793,-0.67969 -2.6178,-0.64277 -5.0744,-1.81999 -7.6114,-2.73047 -2.9783,-1.24038 -4.2834,-2.09631 -7.0996,-2.54883 -0.3768,-0.0606 1.47,0.27597 1.0938,0.33985 -0.7839,0.13307 -1.5888,-0.0809 -2.3828,-0.1211 -13.0531,-0.66109 15.0951,-13.4326 2.2187,-13.05859 -0.4832,0.0232 -0.9676,0.053 -1.4492,0.0449 -0.4561,-0.008 0.9133,-0.0298 1.3691,-0.0449 0.03,-9.8e-4 0.051,8.5e-4 0.08,0 0.4907,-0.0235 0.9805,-0.0391 1.4688,-0.0293 z" />
    <g
       id="lines-header-bg"
       transform="translate(-596.000000, 0.000000)"
       opacity="0.2"
       stroke="#000000"
       stroke-linecap="round"
       stroke-linejoin="round">
      <g
         id="Group-249">
        <path
           d="M1455.98865,884.5866 L1455.98865,1017.49545"
           id="Stroke-1"
           stroke-dasharray="105,60,60,15,7.5,15" />
        <path
           d="M2100.4746,777.72165 L2100.4746,1051.12665"
           id="Stroke-3"
           stroke-dasharray="105,60,60,15,7.5,15" />
        <path
           d="M2100.4746,229.2447 L2100.4746,320.8332"
           id="Stroke-5"
           stroke-dasharray="105,60,60,15,7.5,15" />
        <path
           d="M1393.5804,433.9932 L1747.3584,612.1797"
           id="Stroke-7"
           stroke-dasharray="150,30,60,15,7.5,15" />
        <path
           d="M1275.87435,833.7798 L1554.69585,978.7458"
           id="Stroke-9"
           stroke-dasharray="105,60,60,15,7.5,15" />
        <path
           d="M2366.127,519.4947 L2101.362,656.0052"
           id="Stroke-11"
           stroke-dasharray="150,30,60,15,7.5,15" />
        <path
           d="M2637.315,298.32675 L2462.8335,388.95525"
           id="Stroke-13"
           stroke-dasharray="150,30,60,15,7.5,15" />
        <path
           d="M922.056,0.75255 L905.9025,9.13605"
           id="Stroke-15"
           stroke-dasharray="150,30,60,15,7.5,15" />
        <path
           d="M510.01305,320.8326 L814.64055,484.5786"
           id="Stroke-17"
           stroke-dasharray="150,30,60,15,7.5,15" />
        <path
           d="M1805.91645,616.2447 L1237.13145,922.8297"
           id="Stroke-19"
           stroke-dasharray="105,60,60,15,7.5,15" />
        <path
           d="M1644.5244,470.10315 L1527.9249,531.60615"
           id="Stroke-21"
           stroke-dasharray="150,30,60,15,7.5,15" />
        <path
           d="M1275.87435,833.7798 L1554.69585,978.7458"
           id="Stroke-23"
           stroke-dasharray="105,60,60,15,7.5,15" />
        <path
           d="M1186.6962,497.42535 L1614.0957,719.63985"
           id="Stroke-25"
           stroke-dasharray="150,30,60,15,7.5,15" />
        <path
           d="M1722.88035,786.9897 L1357.96785,978.7452"
           id="Stroke-27"
           stroke-dasharray="105,60,60,15,7.5,15" />
        <path
           d="M1791.13035,864.6807 L1970.77185,958.3917"
           id="Stroke-29"
           stroke-dasharray="105,60,60,15,7.5,15" />
        <path
           d="M2483.45355,828.05085 L2265.76305,941.12235"
           id="Stroke-31"
           stroke-dasharray="105,60,60,15,7.5,15" />
        <path
           d="M1923.75,870.1416 L2200.125,1014.05475"
           id="Stroke-33"
           stroke-dasharray="105,60,60,15,7.5,15" />
        <path
           d="M2610.50835,1049.358 L2829.01035,1162.962"
           id="Stroke-35"
           stroke-dasharray="105,60,60,15,7.5,15" />
        <path
           d="M2923.4781,1207.69875 L3015.2766,1255.42575"
           id="Stroke-37"
           stroke-dasharray="105,60,60,15,7.5,15" />
        <path
           d="M2437.55565,946.91115 L2483.45415,970.77465"
           id="Stroke-39"
           stroke-dasharray="105,60,60,15,7.5,15" />
        <path
           d="M2170.31985,926.3403 L2003.39685,1014.0558"
           id="Stroke-41"
           stroke-dasharray="105,60,60,15,7.5,15" />
        <path
           d="M1062.4599,0.75255 L1166.6859,54.94155"
           id="Stroke-47"
           stroke-dasharray="150,30,60,15,7.5,15" />
        <path
           d="M1209.4584,1.983 L1274.3739,35.886"
           id="Stroke-49"
           stroke-dasharray="150,30,60,15,7.5,15" />
        <path
           d="M1209.4584,1.983 L1108.0584,56.601"
           id="Stroke-51"
           stroke-dasharray="150,30,60,15,7.5,15" />
        <path
           d="M659.0727,99.4683 L1077.0522,316.7853"
           id="Stroke-53"
           stroke-dasharray="150,30,60,15,7.5,15" />
        <path
           d="M1064.4462,289.26525 L838.1562,408.17625"
           id="Stroke-57"
           stroke-dasharray="150,30,60,15,7.5,15" />
        <path
           d="M1172.31585,229.2345 L1086.75735,274.9485"
           id="Stroke-59"
           stroke-dasharray="150,30,60,15,7.5,15" />
        <path
           d="M884.60145,19.78665 L745.92345,93.88065"
           id="Stroke-61"
           stroke-dasharray="150,30,60,15,7.5,15" />
        <path
           d="M731.05515,101.48835 L425.77815,261.90435"
           id="Stroke-63"
           stroke-dasharray="150,30,60,15,7.5,15" />
        <path
           d="M1275.87435,833.7798 L518.35035,433.9938"
           id="Stroke-67"
           stroke-dasharray="105,60,60,15,7.5,15" />
        <path
           d="M844.5615,112.33995 L629.3565,0.75195"
           id="Stroke-69"
           stroke-dasharray="150,30,60,15,7.5,15" />
        <path
           d="M1665.0279,401.06505 L1299.1374,216.83055"
           id="Stroke-71"
           stroke-dasharray="150,30,60,15,7.5,15" />
        <path
           d="M2458.4532,0.75255 L2816.1762,186.74055"
           id="Stroke-73"
           stroke-dasharray="150,30,60,15,7.5,15" />
        <path
           d="M3086.1489,0.75105 L2688.3819,209.77005"
           id="Stroke-75"
           stroke-dasharray="150,30,60,15,7.5,15" />
        <path
           d="M2775.39105,186.74085 L2775.39105,0.75285"
           id="Stroke-77"
           stroke-dasharray="150,30,60,15,7.5,15" />
        <path
           d="M2626.44135,319.1451 L2626.44135,0.7521"
           id="Stroke-79"
           stroke-dasharray="150,30,60,15,7.5,15" />
        <path
           d="M1044.36765,324.1974 L1044.36765,233.6574"
           id="Stroke-83"
           stroke-dasharray="150,30,60,15,7.5,15" />
        <path
           d="M1209.4584,148.9683 L1209.4584,1.9833"
           id="Stroke-85"
           stroke-dasharray="150,30,60,15,7.5,15" />
        <path
           d="M787.21425,1039.32675 L844.56075,1069.14375"
           id="Stroke-89"
           stroke-dasharray="105,60,60,15,7.5,15" />
        <path
           d="M671.6586,664.8951 L808.7856,736.1886"
           id="Stroke-91"
           stroke-dasharray="150,30,60,15,7.5,15" />
        <path
           d="M780.0453,708.23685 L733.9398,732.46335"
           id="Stroke-97"
           stroke-dasharray="105,60,60,15,7.5,15" />
        <path
           d="M1294.8558,433.9932 L838.1553,673.9812"
           id="Stroke-99"
           stroke-dasharray="105,60,60,15,7.5,15" />
        <path
           d="M694.25385,212.2701 L898.96635,318.7041"
           id="Stroke-101"
           stroke-dasharray="150,30,60,15,7.5,15" />
        <path
           d="M738.03945,443.40345 L612.88395,509.17095"
           id="Stroke-103"
           stroke-dasharray="150,30,60,15,7.5,15" />
        <path
           d="M905.90325,280.91415 L776.86725,348.72015"
           id="Stroke-105"
           stroke-dasharray="150,30,60,15,7.5,15" />
        <path
           d="M597.50385,992.541 L165.06885,1219.779"
           id="Stroke-107"
           stroke-dasharray="105,60,60,15,7.5,15" />
        <path
           d="M1313.60295,616.2447 L737.89845,918.7677"
           id="Stroke-109"
           stroke-dasharray="105,60,60,15,7.5,15" />
        <path
           d="M1010.9193,952.4439 L310.4748,589.2504"
           id="Stroke-113"
           stroke-dasharray="105,60,60,15,7.5,15" />
        <path
           d="M1286.9706,1003.91265 L1067.4141,890.06865"
           id="Stroke-115"
           stroke-dasharray="105,60,60,15,7.5,15" />
        <path
           d="M636.93015,555.354 L636.93015,496.6815"
           id="Stroke-119"
           stroke-dasharray="150,30,60,15,7.5,15" />
        <path
           d="M1775.15475,257.36235 L2012.81775,380.92785"
           id="Stroke-121"
           stroke-dasharray="150,30,60,15,7.5,15" />
        <path
           d="M2334.43215,194.05335 L2460.50565,259.60185"
           id="Stroke-123"
           stroke-dasharray="150,30,60,15,7.5,15" />
        <path
           d="M2422.24515,209.16315 L2196.48915,327.79515"
           id="Stroke-125"
           stroke-dasharray="150,30,60,15,7.5,15" />
        <path
           d="M2626.44135,0.75255 L2497.63035,68.45055"
           id="Stroke-127"
           stroke-dasharray="150,30,60,15,7.5,15" />
        <path
           d="M3143.0244,42.9825 L2933.8554,152.913"
           id="Stroke-129"
           stroke-dasharray="150,30,60,15,7.5,15" />
        <path
           d="M1970.77155,92.5821 L1764.24255,200.8551"
           id="Stroke-131"
           stroke-dasharray="150,30,60,15,7.5,15" />
        <path
           d="M2501.0904,177.3921 L2696.3394,278.9076"
           id="Stroke-133"
           stroke-dasharray="150,30,60,15,7.5,15" />
        <path
           d="M2161.3476,0.75255 L2354.6451,101.25255"
           id="Stroke-135"
           stroke-dasharray="150,30,60,15,7.5,15" />
        <path
           d="M2298.05415,0.75255 L2583.12765,148.96905"
           id="Stroke-137"
           stroke-dasharray="150,30,60,15,7.5,15" />
        <path
           d="M2379.5229,433.9932 L2211.3789,522.3492"
           id="Stroke-139"
           stroke-dasharray="150,30,60,15,7.5,15" />
        <path
           d="M2160.7017,194.98635 L2102.1957,226.24485"
           id="Stroke-141"
           stroke-dasharray="150,30,60,15,7.5,15" />
        <path
           d="M2087.70855,233.6568 L1694.55405,440.2518"
           id="Stroke-143"
           stroke-dasharray="150,30,60,15,7.5,15" />
        <path
           d="M2493.7617,855.71445 L1715.9982,459.40545"
           id="Stroke-145"
           stroke-dasharray="105,60,60,15,7.5,15" />
        <path
           d="M2693.16645,727.38975 L2599.73295,679.77975"
           id="Stroke-147"
           stroke-dasharray="150,30,60,15,7.5,15" />
        <path
           d="M2725.3359,553.3296 L1661.5794,0.7506"
           id="Stroke-149"
           stroke-dasharray="150,30,60,15,7.5,15" />
        <path
           d="M1775.15475,395.83695 L1775.15475,177.39195"
           id="Stroke-153"
           stroke-dasharray="150,30,60,15,7.5,15" />
        <path
           d="M2392.3389,316.7853 L2392.3389,208.1268"
           id="Stroke-155"
           stroke-dasharray="150,30,60,15,7.5,15" />
        <path
           d="M2143.91895,93.8799 L2143.91895,0.7524"
           id="Stroke-157"
           stroke-dasharray="150,30,60,15,7.5,15" />
        <path
           d="M2211.37935,74.86035 L2211.37935,0.75285"
           id="Stroke-159"
           stroke-dasharray="150,30,60,15,7.5,15" />
        <path
           d="M1411.82805,211.5054 L1094.53605,371.8374"
           id="Stroke-161"
           stroke-dasharray="150,30,60,15,7.5,15" />
        <path
           d="M1872.03225,0.75255 L1544.96325,166.06155"
           id="Stroke-163"
           stroke-dasharray="150,30,60,15,7.5,15" />
        <path
           d="M1970.77155,161.36235 L1639.69905,327.79485"
           id="Stroke-165"
           stroke-dasharray="150,30,60,15,7.5,15" />
        <path
           d="M1657.3491,286.1979 C1657.3491,328.3794 1627.5501,345.3699 1590.7911,324.1464 C1554.0306,302.9229 1524.2316,251.5239 1524.2316,209.3424 C1524.2316,167.1624 1554.0306,150.1704 1590.7911,171.3954 C1627.5501,192.6174 1657.3491,244.0179 1657.3491,286.1979 Z"
           id="Stroke-167"
           stroke-dasharray="150,30,60,15,7.5,15" />
        <path
           d="M2070.12165,49.12605 C2058.01065,56.09355 2041.24815,55.05405 2022.72765,44.36055 C2006.33188,34.8944486 1991.314,19.4536498 1979.68183,1.50018589"
           id="Stroke-169"
           stroke-dasharray="150,30,60,15,7.5,15" />
        <path
           d="M2089.47594,1.39023363 C2089.56027,3.01645976 2089.60305,4.6316096 2089.60305,6.23355 C2089.60305,14.15805 2088.55455,21.19605 2086.61355,27.26355"
           id="Stroke-171"
           stroke-dasharray="150,30,60,15,7.5,15" />
        <path
           d="M2464.19235,519.4947 L2832.28035,710.8707"
           id="Stroke-181"
           stroke-dasharray="150,30,60,15,7.5,15" />
        <path
           d="M2751.80715,305.6436 L3090.19215,481.5771"
           id="Stroke-183"
           stroke-dasharray="150,30,60,15,7.5,15" />
        <path
           d="M2862.64455,23.36385 L3180.44205,188.59335"
           id="Stroke-185"
           stroke-dasharray="150,30,60,15,7.5,15" />
        <path
           d="M2809.6347,300.3042 L2411.3817,509.5782"
           id="Stroke-187"
           stroke-dasharray="150,30,60,15,7.5,15" />
        <path
           d="M2835.753,248.53965 L3245.265,461.45265"
           id="Stroke-189"
           stroke-dasharray="150,30,60,15,7.5,15" />
        <path
           d="M2900.0844,209.043 L3318.0639,426.36"
           id="Stroke-191"
           stroke-dasharray="150,30,60,15,7.5,15" />
        <path
           d="M2974.7256,209.7696 L2835.7536,284.5281"
           id="Stroke-195"
           stroke-dasharray="150,30,60,15,7.5,15" />
        <path
           d="M2383.16745,685.06305 L2799.74745,901.65255"
           id="Stroke-197"
           stroke-dasharray="105,60,60,15,7.5,15" />
        <path
           d="M3061.81785,739.107 L2757.19035,901.6515"
           id="Stroke-199"
           stroke-dasharray="105,60,60,15,7.5,15" />
        <path
           d="M2875.3227,631.6695 L2579.8362,786.942"
           id="Stroke-203"
           stroke-dasharray="150,30,60,15,7.5,15" />
        <path
           d="M2626.44135,926.3403 L2531.12835,876.9633"
           id="Stroke-205"
           stroke-dasharray="105,60,60,15,7.5,15" />
        <path
           d="M3203.5137,1225.28865 L2737.6512,983.95065"
           id="Stroke-207"
           stroke-dasharray="105,60,60,15,7.5,15" />
        <path
           d="M2933.85495,561.1929 L2622.34695,399.6699"
           id="Stroke-209"
           stroke-dasharray="150,30,60,15,7.5,15" />
        <path
           d="M2776.7871,395.83695 L2776.7871,298.28445"
           id="Stroke-211"
           stroke-dasharray="105,60,60,15,7.5,15" />
        <path
           d="M2776.7871,910.92 L2776.7871,631.6695"
           id="Stroke-213"
           stroke-dasharray="105,60,60,15,7.5,15" />
        <path
           d="M2961.8847,892.51125 L3052.3017,939.52125"
           id="Stroke-215"
           stroke-dasharray="105,60,60,15,7.5,15" />
        <path
           d="M3304.0137,776.8545 L2991.4107,941.1225"
           id="Stroke-217"
           stroke-dasharray="105,60,60,15,7.5,15" />
        <path
           d="M3022.04295,1213.2402 L2899.17495,1277.8062"
           id="Stroke-219"
           stroke-dasharray="105,60,60,15,7.5,15" />
        <path
           d="M1812.60345,736.20225 L1782.34545,752.10375"
           id="Stroke-221"
           stroke-dasharray="105,60,60,15,7.5,15" />
        <path
           d="M3023.5767,946.91115 L3023.5767,608.53215"
           id="Stroke-223"
           stroke-dasharray="105,60,60,15,7.5,15" />
        <path
           d="M2525.8404,590.76375 L2525.8404,449.63775"
           id="Stroke-225"
           stroke-dasharray="150,30,60,15,7.5,15" />
        <path
           d="M3122.94585,730.70895 L3122.94585,646.51845"
           id="Stroke-227"
           stroke-dasharray="150,30,60,15,7.5,15" />
        <path
           d="M2869.93365,302.8677 L2869.93365,244.4097"
           id="Stroke-233"
           stroke-dasharray="150,30,60,15,7.5,15" />
        <path
           d="M2576.95455,359.9541 C2576.95455,377.4726 2564.57805,384.5271 2549.31105,375.7131 C2534.04705,366.9006 2521.67055,345.5526 2521.67055,328.0371 C2521.67055,310.5186 2534.04705,303.4626 2549.31105,312.2766 C2564.57805,321.0906 2576.95455,342.4356 2576.95455,359.9541 Z"
           id="Stroke-235"
           stroke-dasharray="150,30,60,15,7.5,15" />
        <path
           d="M2721.2769,138.9795 C2721.2769,156.498 2708.9019,163.554 2693.6349,154.74 C2678.3709,145.926 2665.9944,124.5795 2665.9944,107.0625 C2665.9944,89.544 2678.3709,82.488 2693.6349,91.302 C2708.9019,100.116 2721.2769,121.461 2721.2769,138.9795 Z"
           id="Stroke-237"
           stroke-dasharray="150,30,60,15,7.5,15" />
        <path
           d="M3367.92045,265.42335 L2984.48295,467.79285"
           id="Stroke-239"
           stroke-dasharray="150,30,60,15,7.5,15" />
        <path
           d="M3404.98095,49.1349 L3112.92345,203.2764"
           id="Stroke-241"
           stroke-dasharray="150,30,60,15,7.5,15" />
        <path
           d="M1299.681,48.8931 L1403.8365,103.0461"
           id="Stroke-243"
           stroke-dasharray="150,30,60,15,7.5,15" />
        <path
           d="M1568.7642,0.75255 L1775.1552,108.05955"
           id="Stroke-245"
           stroke-dasharray="150,30,60,15,7.5,15" />
        <path
           d="M617.1489,1175.0298 L549.6579,1210.4958"
           id="Stroke-247"
           stroke-dasharray="105,60,60,15,7.5,15" />
      </g>
    </g>
    <g
       aria-label="KEEP insisting!

(please, help with this main page!)"
       style="font-style:normal;font-weight:normal;font-size:40px;line-height:1.25;font-family:sans-serif;letter-spacing:0px;word-spacing:0px;fill:#000000;fill-opacity:1;stroke:none"
       id="flowRoot3882">
      <path
         id="path451"
         style="text-align:center;text-anchor:middle"
         d="m 1629.9551,829.29687 h 3.125 q 2.9297,4.60938 4.375,9.02344 1.4648,4.41406 1.4648,8.76953 0,4.375 -1.4648,8.8086 -1.4453,4.43359 -4.375,9.02343 h -3.125 q 2.5976,-4.47265 3.8672,-8.88671 1.289,-4.4336 1.289,-8.94532 0,-4.51172 -1.289,-8.90625 -1.2696,-4.39453 -3.8672,-8.88672 z m -13.1836,25.39063 h 3.9648 v 4.96094 h -3.9648 z m 0,-24.19922 h 3.9648 v 12.79297 l -0.3906,6.97266 h -3.1641 l -0.4101,-6.97266 z m -8.1641,17.32422 v 1.75781 h -16.5234 q 0.2344,3.71094 2.2265,5.66406 2.0118,1.9336 5.586,1.9336 2.0703,0 4.0039,-0.50781 1.9531,-0.50782 3.8672,-1.52344 v 3.39844 q -1.9336,0.82031 -3.9649,1.25 -2.0312,0.42968 -4.1211,0.42968 -5.2343,0 -8.3007,-3.04687 -3.0469,-3.04688 -3.0469,-8.24219 0,-5.37109 2.8906,-8.51562 2.9102,-3.16407 7.832,-3.16407 4.4141,0 6.9727,2.85157 2.5781,2.83203 2.5781,7.71484 z m -3.5937,-1.05469 q -0.039,-2.94922 -1.6602,-4.70703 -1.6015,-1.75781 -4.2578,-1.75781 -3.0078,0 -4.8242,1.69922 -1.7969,1.69922 -2.0703,4.78515 z m -26.1133,1.69922 q 0,-3.90625 -1.6211,-6.05469 -1.6016,-2.14843 -4.5117,-2.14843 -2.8906,0 -4.5117,2.14843 -1.6016,2.14844 -1.6016,6.05469 0,3.88672 1.6016,6.03516 1.6211,2.14843 4.5117,2.14843 2.9101,0 4.5117,-2.14843 1.6211,-2.14844 1.6211,-6.03516 z m 3.5937,8.47656 q 0,5.58594 -2.4804,8.30078 -2.4805,2.73438 -7.5977,2.73438 -1.8945,0 -3.5742,-0.29297 -1.6797,-0.27344 -3.2617,-0.85937 v -3.4961 q 1.582,0.85938 3.125,1.26953 1.5429,0.41016 3.1445,0.41016 3.5352,0 5.293,-1.85547 1.7578,-1.83594 1.7578,-5.56641 v -1.77734 q -1.1133,1.93359 -2.8516,2.89063 -1.7383,0.95703 -4.1601,0.95703 -4.0235,0 -6.4844,-3.06641 -2.4609,-3.06641 -2.4609,-8.125 0,-5.07812 2.4609,-8.14453 2.4609,-3.06641 6.4844,-3.06641 2.4218,0 4.1601,0.95703 1.7383,0.95704 2.8516,2.89063 v -3.32031 h 3.5937 z m -32.5781,-8.28125 q -4.3555,0 -6.0351,0.9961 -1.6797,0.99609 -1.6797,3.39843 0,1.91407 1.25,3.04688 1.2695,1.11328 3.4375,1.11328 2.9883,0 4.7851,-2.10937 1.8164,-2.12891 1.8164,-5.64454 v -0.80078 z m 7.168,-1.48437 v 12.48047 h -3.5938 v -3.32032 q -1.2304,1.99219 -3.0664,2.94922 -1.8359,0.9375 -4.4922,0.9375 -3.3593,0 -5.3515,-1.875 -1.9727,-1.89453 -1.9727,-5.05859 0,-3.69141 2.461,-5.56641 2.4804,-1.875 7.3828,-1.875 h 5.039 v -0.35156 q 0,-2.48047 -1.6406,-3.82812 -1.6211,-1.36719 -4.5703,-1.36719 -1.875,0 -3.6523,0.44922 -1.7774,0.44922 -3.418,1.34765 v -3.32031 q 1.9726,-0.76172 3.8281,-1.13281 1.8555,-0.39063 3.6133,-0.39063 4.7461,0 7.0898,2.46094 2.3438,2.46094 2.3438,7.46094 z m -39.0235,9.19922 v 11.60156 h -3.6132 v -30.19531 h 3.6132 v 3.32031 q 1.1329,-1.95313 2.8516,-2.89063 1.7383,-0.95703 4.1406,-0.95703 3.9844,0 6.4649,3.16407 2.5,3.16406 2.5,8.32031 0,5.15625 -2.5,8.32031 -2.4805,3.16406 -6.4649,3.16406 -2.4023,0 -4.1406,-0.9375 -1.7187,-0.95703 -2.8516,-2.91015 z m 12.2266,-7.63672 q 0,-3.96485 -1.6406,-6.21094 -1.6211,-2.26562 -4.4727,-2.26562 -2.8515,0 -4.4922,2.26562 -1.6211,2.24609 -1.6211,6.21094 0,3.96484 1.6211,6.23047 1.6407,2.24609 4.4922,2.24609 2.8516,0 4.4727,-2.24609 1.6406,-2.26563 1.6406,-6.23047 z m -35.6445,-2.28516 v 13.20313 h -3.5938 V 846.5625 q 0,-3.10547 -1.2109,-4.64844 -1.2109,-1.54297 -3.6328,-1.54297 -2.9102,0 -4.5899,1.85547 -1.6797,1.85547 -1.6797,5.0586 v 12.36328 h -3.6132 v -21.875 h 3.6132 v 3.39843 q 1.2891,-1.97265 3.0274,-2.94921 1.7578,-0.97657 4.043,-0.97657 3.7695,0 5.7031,2.34375 1.9336,2.32422 1.9336,6.85547 z m -29.2774,-8.67187 h 3.5938 v 21.875 h -3.5938 z m 0,-8.51563 h 3.5938 v 4.55078 h -3.5938 z m -14.5898,19.39453 q -4.3555,0 -6.0352,0.9961 -1.6797,0.99609 -1.6797,3.39843 0,1.91407 1.25,3.04688 1.2696,1.11328 3.4375,1.11328 2.9883,0 4.7852,-2.10937 1.8164,-2.12891 1.8164,-5.64454 v -0.80078 z m 7.168,-1.48437 v 12.48047 h -3.5938 v -3.32032 q -1.2305,1.99219 -3.0664,2.94922 -1.8359,0.9375 -4.4922,0.9375 -3.3594,0 -5.3515,-1.875 -1.9727,-1.89453 -1.9727,-5.05859 0,-3.69141 2.4609,-5.56641 2.4805,-1.875 7.3828,-1.875 h 5.0391 v -0.35156 q 0,-2.48047 -1.6406,-3.82812 -1.6211,-1.36719 -4.5703,-1.36719 -1.875,0 -3.6524,0.44922 -1.7773,0.44922 -3.4179,1.34765 v -3.32031 q 1.9726,-0.76172 3.8281,-1.13281 1.8555,-0.39063 3.6133,-0.39063 4.7461,0 7.0898,2.46094 2.3438,2.46094 2.3438,7.46094 z m -39.0625,-5.19531 q 1.3476,-2.42188 3.2226,-3.57422 1.875,-1.15235 4.4141,-1.15235 3.4179,0 5.2734,2.40235 1.8555,2.38281 1.8555,6.79687 v 13.20313 h -3.6133 V 846.5625 q 0,-3.14453 -1.1133,-4.66797 -1.1133,-1.52344 -3.3984,-1.52344 -2.793,0 -4.4141,1.85547 -1.6211,1.85547 -1.6211,5.0586 v 12.36328 h -3.6133 V 846.5625 q 0,-3.16406 -1.1132,-4.66797 -1.1133,-1.52344 -3.4375,-1.52344 -2.7539,0 -4.375,1.875 -1.6211,1.85547 -1.6211,5.03907 v 12.36328 h -3.6133 v -21.875 h 3.6133 v 3.39843 q 1.2304,-2.01171 2.9492,-2.96875 1.7187,-0.95703 4.082,-0.95703 2.3828,0 4.043,1.21094 1.6797,1.21094 2.4805,3.51563 z m -36.6797,-3.55469 v 3.39844 q -1.5235,-0.78125 -3.1641,-1.17188 -1.6406,-0.39062 -3.3984,-0.39062 -2.6758,0 -4.0235,0.82031 -1.3281,0.82031 -1.3281,2.46094 0,1.25 0.957,1.97265 0.9571,0.70313 3.8477,1.34766 l 1.2305,0.27344 q 3.8281,0.82031 5.4297,2.32421 1.621,1.48438 1.621,4.16016 0,3.04688 -2.4218,4.82422 -2.4024,1.77734 -6.6211,1.77734 -1.7578,0 -3.6719,-0.35156 -1.8945,-0.33203 -4.0039,-1.01562 v -3.71094 q 1.9922,1.03515 3.9258,1.5625 1.9336,0.50781 3.8281,0.50781 2.5391,0 3.9063,-0.85937 1.3671,-0.87891 1.3671,-2.46094 0,-1.46485 -0.9961,-2.2461 -0.9765,-0.78125 -4.3164,-1.5039 l -1.25,-0.29297 q -3.3398,-0.70313 -4.8242,-2.14844 -1.4844,-1.46484 -1.4844,-4.0039 0,-3.08594 2.1875,-4.76563 2.1875,-1.67969 6.211,-1.67969 1.9922,0 3.75,0.29297 1.7578,0.29297 3.2422,0.87891 z m -25.0391,-0.64453 h 3.5938 v 21.875 h -3.5938 z m 0,-8.51563 h 3.5938 v 4.55078 h -3.5938 z m -7.207,17.1875 v 13.20313 h -3.5938 V 846.5625 q 0,-3.10547 -1.2109,-4.64844 -1.2109,-1.54297 -3.6328,-1.54297 -2.9102,0 -4.5899,1.85547 -1.6797,1.85547 -1.6797,5.0586 v 12.36328 h -3.6132 v -30.39063 h 3.6132 v 11.91406 q 1.2891,-1.97265 3.0274,-2.94921 1.7578,-0.97657 4.043,-0.97657 3.7695,0 5.7031,2.34375 1.9336,2.32422 1.9336,6.85547 z M 1319.623,831.5625 v 6.21094 h 7.4024 v 2.79297 h -7.4024 v 11.875 q 0,2.67578 0.7227,3.4375 0.7422,0.76171 2.9883,0.76171 h 3.6914 v 3.00782 h -3.6914 q -4.1602,0 -5.7422,-1.54297 -1.582,-1.5625 -1.582,-5.66406 v -11.875 h -2.6368 v -2.79297 h 2.6368 v -6.21094 z m -23.496,14.88281 v 13.20313 h -3.5938 V 846.5625 q 0,-3.10547 -1.2109,-4.64844 -1.211,-1.54297 -3.6328,-1.54297 -2.9102,0 -4.5899,1.85547 -1.6797,1.85547 -1.6797,5.0586 v 12.36328 h -3.6133 v -30.39063 h 3.6133 v 11.91406 q 1.2891,-1.97265 3.0274,-2.94921 1.7578,-0.97657 4.0429,-0.97657 3.7696,0 5.7032,2.34375 1.9336,2.32422 1.9336,6.85547 z m -30.3321,-14.88281 v 6.21094 h 7.4024 v 2.79297 h -7.4024 v 11.875 q 0,2.67578 0.7227,3.4375 0.7422,0.76171 2.9883,0.76171 h 3.6914 v 3.00782 h -3.6914 q -4.1602,0 -5.7422,-1.54297 -1.5821,-1.5625 -1.5821,-5.66406 v -11.875 h -2.6367 v -2.79297 h 2.6367 v -6.21094 z m -14.6484,6.21094 h 3.5937 v 21.875 h -3.5937 z m 0,-8.51563 h 3.5937 v 4.55078 h -3.5937 z m -34.8242,8.51563 h 3.5937 l 4.4922,17.07031 4.4727,-17.07031 h 4.2382 l 4.4922,17.07031 4.4727,-17.07031 h 3.5937 l -5.7226,21.875 h -4.2383 l -4.707,-17.92969 -4.7266,17.92969 h -4.2383 z m -32.5586,18.59375 v 11.60156 h -3.6133 v -30.19531 h 3.6133 v 3.32031 q 1.1328,-1.95313 2.8515,-2.89063 1.7383,-0.95703 4.1407,-0.95703 3.9843,0 6.4648,3.16407 2.5,3.16406 2.5,8.32031 0,5.15625 -2.5,8.32031 -2.4805,3.16406 -6.4648,3.16406 -2.4024,0 -4.1407,-0.9375 -1.7187,-0.95703 -2.8515,-2.91015 z m 12.2265,-7.63672 q 0,-3.96485 -1.6406,-6.21094 -1.6211,-2.26562 -4.4726,-2.26562 -2.8516,0 -4.4922,2.26562 -1.6211,2.24609 -1.6211,6.21094 0,3.96484 1.6211,6.23047 1.6406,2.24609 4.4922,2.24609 2.8515,0 4.4726,-2.24609 1.6406,-2.26563 1.6406,-6.23047 z m -26.7968,-19.47266 h 3.5937 v 30.39063 h -3.5937 z m -5.8985,18.55469 v 1.75781 h -16.5234 q 0.2344,3.71094 2.2265,5.66406 2.0118,1.9336 5.586,1.9336 2.0703,0 4.0039,-0.50781 1.9531,-0.50782 3.8672,-1.52344 v 3.39844 q -1.9336,0.82031 -3.9649,1.25 -2.0312,0.42968 -4.1211,0.42968 -5.2343,0 -8.3007,-3.04687 -3.0469,-3.04688 -3.0469,-8.24219 0,-5.37109 2.8906,-8.51562 2.9102,-3.16407 7.832,-3.16407 4.4141,0 6.9727,2.85157 2.5781,2.83203 2.5781,7.71484 z m -3.5937,-1.05469 q -0.039,-2.94922 -1.6602,-4.70703 -1.6015,-1.75781 -4.2578,-1.75781 -3.0078,0 -4.8242,1.69922 -1.7969,1.69922 -2.0703,4.78515 z m -22.3242,-0.3125 v 13.20313 h -3.5938 V 846.5625 q 0,-3.10547 -1.2109,-4.64844 -1.211,-1.54297 -3.6328,-1.54297 -2.9102,0 -4.5899,1.85547 -1.6797,1.85547 -1.6797,5.0586 v 12.36328 h -3.6133 v -30.39063 h 3.6133 v 11.91406 q 1.2891,-1.97265 3.0274,-2.94921 1.7578,-0.97657 4.0429,-0.97657 3.7696,0 5.7032,2.34375 1.9336,2.32422 1.9336,6.85547 z m -42.7344,8.24219 h 4.1211 v 3.35937 l -3.2032,6.25 h -2.5195 l 1.6016,-6.25 z m -6.8164,-6.875 v 1.75781 h -16.5235 q 0.2344,3.71094 2.2266,5.66406 2.0117,1.9336 5.5859,1.9336 2.0703,0 4.0039,-0.50781 1.9532,-0.50782 3.8672,-1.52344 v 3.39844 q -1.9336,0.82031 -3.9648,1.25 -2.0313,0.42968 -4.1211,0.42968 -5.2344,0 -8.3008,-3.04687 -3.0469,-3.04688 -3.0469,-8.24219 0,-5.37109 2.8907,-8.51562 2.9101,-3.16407 7.832,-3.16407 4.4141,0 6.9726,2.85157 2.5782,2.83203 2.5782,7.71484 z m -3.5938,-1.05469 q -0.039,-2.94922 -1.6601,-4.70703 -1.6016,-1.75781 -4.2578,-1.75781 -3.0079,0 -4.8243,1.69922 -1.7968,1.69922 -2.0703,4.78515 z m -22.0312,-8.33984 v 3.39844 q -1.5235,-0.78125 -3.1641,-1.17188 -1.6406,-0.39062 -3.3984,-0.39062 -2.6758,0 -4.0235,0.82031 -1.3281,0.82031 -1.3281,2.46094 0,1.25 0.957,1.97265 0.9571,0.70313 3.8477,1.34766 l 1.2305,0.27344 q 3.8281,0.82031 5.4297,2.32421 1.621,1.48438 1.621,4.16016 0,3.04688 -2.4218,4.82422 -2.4024,1.77734 -6.6211,1.77734 -1.7578,0 -3.6719,-0.35156 -1.8945,-0.33203 -4.0039,-1.01562 v -3.71094 q 1.9922,1.03515 3.9258,1.5625 1.9336,0.50781 3.8281,0.50781 2.5391,0 3.9063,-0.85937 1.3671,-0.87891 1.3671,-2.46094 0,-1.46485 -0.9961,-2.2461 -0.9765,-0.78125 -4.3164,-1.5039 l -1.25,-0.29297 q -3.3398,-0.70313 -4.8242,-2.14844 -1.4844,-1.46484 -1.4844,-4.0039 0,-3.08594 2.1875,-4.76563 2.1875,-1.67969 6.211,-1.67969 1.9922,0 3.75,0.29297 1.7578,0.29297 3.2422,0.87891 z m -28.5352,10.23437 q -4.3555,0 -6.0351,0.9961 -1.6797,0.99609 -1.6797,3.39843 0,1.91407 1.25,3.04688 1.2695,1.11328 3.4375,1.11328 2.9883,0 4.7851,-2.10937 1.8164,-2.12891 1.8164,-5.64454 v -0.80078 z m 7.168,-1.48437 v 12.48047 h -3.5938 v -3.32032 q -1.2304,1.99219 -3.0664,2.94922 -1.8359,0.9375 -4.4922,0.9375 -3.3593,0 -5.3515,-1.875 -1.9727,-1.89453 -1.9727,-5.05859 0,-3.69141 2.461,-5.56641 2.4804,-1.875 7.3828,-1.875 h 5.039 v -0.35156 q 0,-2.48047 -1.6406,-3.82812 -1.6211,-1.36719 -4.5703,-1.36719 -1.875,0 -3.6523,0.44922 -1.7774,0.44922 -3.418,1.34765 v -3.32031 q 1.9726,-0.76172 3.8281,-1.13281 1.8555,-0.39063 3.6133,-0.39063 4.7461,0 7.0898,2.46094 2.3438,2.46094 2.3438,7.46094 z m -23.0078,0.64453 v 1.75781 h -16.5235 q 0.2344,3.71094 2.2266,5.66406 2.0117,1.9336 5.5859,1.9336 2.0703,0 4.0039,-0.50781 1.9532,-0.50782 3.8672,-1.52344 v 3.39844 q -1.9336,0.82031 -3.9648,1.25 -2.0313,0.42968 -4.1211,0.42968 -5.2344,0 -8.3008,-3.04687 -3.04687,-3.04688 -3.04687,-8.24219 0,-5.37109 2.89067,-8.51562 2.9101,-3.16407 7.832,-3.16407 4.4141,0 6.9726,2.85157 2.5782,2.83203 2.5782,7.71484 z m -3.5938,-1.05469 q -0.039,-2.94922 -1.6601,-4.70703 -1.6016,-1.75781 -4.2578,-1.75781 -3.0079,0 -4.8243,1.69922 -1.7968,1.69922 -2.0703,4.78515 z m -26.21092,-17.5 h 3.59375 v 30.39063 h -3.59375 z m -21.91406,27.10938 v 11.60156 h -3.61328 v -30.19531 h 3.61328 v 3.32031 q 1.13281,-1.95313 2.85156,-2.89063 1.73829,-0.95703 4.14063,-0.95703 3.98437,0 6.46484,3.16407 2.5,3.16406 2.5,8.32031 0,5.15625 -2.5,8.32031 -2.48047,3.16406 -6.46484,3.16406 -2.40234,0 -4.14063,-0.9375 -1.71875,-0.95703 -2.85156,-2.91015 z m 12.22656,-7.63672 q 0,-3.96485 -1.64062,-6.21094 -1.62109,-2.26562 -4.47266,-2.26562 -2.85156,0 -4.49218,2.26562 -1.6211,2.24609 -1.6211,6.21094 0,3.96484 1.6211,6.23047 1.64062,2.24609 4.49218,2.24609 2.85157,0 4.47266,-2.24609 1.64062,-2.26563 1.64062,-6.23047 z m -22.69531,-19.4336 q -2.61719,4.49219 -3.88672,8.88672 -1.26953,4.39453 -1.26953,8.90625 0,4.51172 1.26953,8.94532 1.28907,4.41406 3.88672,8.88671 h -3.125 q -2.92969,-4.58984 -4.39453,-9.02343 -1.44531,-4.4336 -1.44531,-8.8086 0,-4.35547 1.44531,-8.76953 1.44531,-4.41406 4.39453,-9.02344 z M 1956.8379,680.32031 h 19.0312 v 23.8125 h -19.0312 z m 0,-116.15625 h 19.0312 v 61.40625 l -1.875,33.46875 h -15.1875 l -1.9687,-33.46875 z m -63.6563,86.25 q 0,-18.75 -7.7812,-29.0625 -7.6875,-10.3125 -21.6563,-10.3125 -13.875,0 -21.6562,10.3125 -7.6875,10.3125 -7.6875,29.0625 0,18.65625 7.6875,28.96875 7.7812,10.3125 21.6562,10.3125 13.9688,0 21.6563,-10.3125 7.7812,-10.3125 7.7812,-28.96875 z m 17.25,40.6875 q 0,26.8125 -11.9062,39.84375 -11.9063,13.125 -36.4688,13.125 -9.0937,0 -17.1562,-1.40625 -8.0625,-1.3125 -15.6563,-4.125 v -16.78125 q 7.5938,4.125 15,6.09375 7.4063,1.96875 15.0938,1.96875 16.9687,0 25.4062,-8.90625 8.4375,-8.8125 8.4375,-26.71875 v -8.53125 q -5.3437,9.28125 -13.6875,13.875 -8.3437,4.59375 -19.9687,4.59375 -19.3125,0 -31.125,-14.71875 -11.8125,-14.71875 -11.8125,-39 0,-24.375 11.8125,-39.09375 11.8125,-14.71875 31.125,-14.71875 11.625,0 19.9687,4.59375 8.3438,4.59375 13.6875,13.875 v -15.9375 h 17.25 z m -120.9375,-50.34375 v 63.375 h -17.25 v -62.8125 q 0,-14.90625 -5.8125,-22.3125 -5.8125,-7.40625 -17.4375,-7.40625 -13.9687,0 -22.0312,8.90625 -8.0625,8.90625 -8.0625,24.28125 v 59.34375 h -17.3438 v -105 h 17.3438 v 16.3125 q 6.1875,-9.46875 14.5312,-14.15625 8.4375,-4.6875 19.4063,-4.6875 18.0937,0 27.375,11.25 9.2812,11.15625 9.2812,32.90625 z m -140.5312,-41.625 h 17.25 v 105 h -17.25 z m 0,-40.875 h 17.25 v 21.84375 h -17.25 z m -58.3125,11.0625 v 29.8125 h 35.5312 v 13.40625 h -35.5312 v 57 q 0,12.84375 3.4687,16.5 3.5625,3.65625 14.3438,3.65625 h 17.7187 v 14.4375 h -17.7187 q -19.9688,0 -27.5625,-7.40625 -7.5938,-7.5 -7.5938,-27.1875 v -57 h -12.6562 v -13.40625 h 12.6562 v -29.8125 z m -50.25,32.90625 v 16.3125 q -7.3125,-3.75 -15.1875,-5.625 -7.875,-1.875 -16.3125,-1.875 -12.8438,0 -19.3125,3.9375 -6.375,3.9375 -6.375,11.8125 0,6 4.5937,9.46875 4.5938,3.375 18.4688,6.46875 l 5.9062,1.3125 q 18.375,3.9375 26.0625,11.15625 7.7813,7.125 7.7813,19.96875 0,14.625 -11.625,23.15625 -11.5313,8.53125 -31.7813,8.53125 -8.4375,0 -17.625,-1.6875 -9.0937,-1.59375 -19.2187,-4.875 v -17.8125 q 9.5625,4.96875 18.8437,7.5 9.2813,2.4375 18.375,2.4375 12.1875,0 18.75,-4.125 6.5625,-4.21875 6.5625,-11.8125 0,-7.03125 -4.7812,-10.78125 -4.6875,-3.75 -20.7188,-7.21875 l -6,-1.40625 q -16.0312,-3.375 -23.1562,-10.3125 -7.125,-7.03125 -7.125,-19.21875 0,-14.8125 10.5,-22.875 10.5,-8.0625 29.8125,-8.0625 9.5625,0 18,1.40625 8.4375,1.40625 15.5625,4.21875 z m -120.1875,-3.09375 h 17.25 v 105 h -17.25 z m 0,-40.875 h 17.25 v 21.84375 h -17.25 z m -33.1875,43.96875 v 16.3125 q -7.3125,-3.75 -15.1875,-5.625 -7.875,-1.875 -16.3125,-1.875 -12.8438,0 -19.3125,3.9375 -6.375,3.9375 -6.375,11.8125 0,6 4.5937,9.46875 4.5938,3.375 18.4688,6.46875 l 5.9062,1.3125 q 18.375,3.9375 26.0625,11.15625 7.7813,7.125 7.7813,19.96875 0,14.625 -11.625,23.15625 -11.5313,8.53125 -31.7813,8.53125 -8.4375,0 -17.625,-1.6875 -9.0937,-1.59375 -19.2187,-4.875 v -17.8125 q 9.5625,4.96875 18.8437,7.5 9.2813,2.4375 18.375,2.4375 12.1875,0 18.75,-4.125 6.5625,-4.21875 6.5625,-11.8125 0,-7.03125 -4.7812,-10.78125 -4.6875,-3.75 -20.7188,-7.21875 l -6,-1.40625 q -16.0312,-3.375 -23.1562,-10.3125 -7.125,-7.03125 -7.125,-19.21875 0,-14.8125 10.5,-22.875 10.5,-8.0625 29.8125,-8.0625 9.5625,0 18,1.40625 8.4375,1.40625 15.5625,4.21875 z m -101.5313,38.53125 v 63.375 h -17.25 v -62.8125 q 0,-14.90625 -5.8125,-22.3125 -5.8125,-7.40625 -17.4375,-7.40625 -13.9687,0 -22.0312,8.90625 -8.0625,8.90625 -8.0625,24.28125 v 59.34375 h -17.3438 v -105 h 17.3438 v 16.3125 q 6.1875,-9.46875 14.5312,-14.15625 8.4375,-4.6875 19.4063,-4.6875 18.0937,0 27.375,11.25 9.2812,11.15625 9.2812,32.90625 z m -140.5312,-41.625 h 17.25 v 105 h -17.25 z m 0,-40.875 h 17.25 v 21.84375 h -17.25 z m -157.31251,21.46875 v 52.59375 h 23.81251 q 13.2187,0 20.4375,-6.84375 7.2187,-6.84375 7.2187,-19.5 0,-12.5625 -7.2187,-19.40625 -7.2188,-6.84375 -20.4375,-6.84375 z m -18.9375,-15.5625 h 42.75001 q 23.5312,0 35.5312,10.6875 12.0938,10.59375 12.0938,31.125 0,20.71875 -12.0938,31.3125 -12,10.59375 -35.5312,10.59375 h -23.81251 v 56.25 h -18.9375 z m -121.5,0 h 88.5 v 15.9375 h -69.5625 v 41.4375 h 66.65625 v 15.9375 h -66.65625 v 50.71875 h 71.25 v 15.9375 h -90.1875 z m -121.5,0 h 88.5 v 15.9375 h -69.5625 v 41.4375 h 66.65625 v 15.9375 h -66.65625 v 50.71875 h 71.25 v 15.9375 h -90.1875 z m -126,0 h 18.9375 v 59.15625 l 62.8125,-59.15625 h 24.375 l -69.46875,65.25 74.4375,74.71875 h -24.9375 l -67.21875,-67.40625 v 67.40625 h -18.9375 z" />
    </g>
  </g>
</svg>
